RosaSans-Italic.ufo
<glyph name="exclam" format="2">
  <advance width="660"/>
  <unicode hex="0021"/>
  <outline>
    <contour>
      <point x="436" y="488" type="line"/>
      <point x="735" y="1440" type="line"/>
      <point x="421" y="1440" type="line"/>
      <point x="206" y="488" type="line"/>
    </contour>
    <contour>
      <point x="213" y="-30" type="qcurve" smooth="yes"/>
      <point x="250" y="-30"/>
      <point x="320" y="-4"/>
      <point x="375" y="46"/>
      <point x="407" y="116"/>
      <point x="407" y="160" type="qcurve" smooth="yes"/>
      <point x="407" y="191"/>
      <point x="383" y="241"/>
      <point x="342" y="277"/>
      <point x="285" y="297"/>
      <point x="252" y="297" type="qcurve" smooth="yes"/>
      <point x="215" y="297"/>
      <point x="145" y="272"/>
      <point x="90" y="223"/>
      <point x="57" y="153"/>
      <point x="57" y="109" type="qcurve" smooth="yes"/>
      <point x="57" y="78"/>
      <point x="81" y="27"/>
      <point x="122" y="-9"/>
      <point x="180" y="-30"/>
    </contour>
  </outline>
</glyph>
<glyph name="quotedbl" format="2">
  <advance width="848"/>
  <unicode hex="0022"/>
  <outline>
    <contour>
      <point x="422" y="847" type="line"/>
      <point x="594" y="1400" type="line"/>
      <point x="359" y="1400" type="line"/>
      <point x="237" y="847" type="line"/>
    </contour>
    <contour>
      <point x="802" y="847" type="line"/>
      <point x="974" y="1400" type="line"/>
      <point x="739" y="1400" type="line"/>
      <point x="617" y="847" type="line"/>
    </contour>
  </outline>
</glyph>
<glyph name="numbersign" format="2">
  <advance width="1104"/>
  <unicode hex="0023"/>
  <outline>
    <contour>
      <point x="312" y="45" type="line"/>
      <point x="393" y="377" type="line"/>
      <point x="666" y="376" type="line"/>
      <point x="585" y="44" type="line"/>
      <point x="771" y="44" type="line"/>
      <point x="853" y="376" type="line"/>
      <point x="1022" y="376" type="line"/>
      <point x="1065" y="555" type="line"/>
      <point x="897" y="555" type="line"/>
      <point x="962" y="842" type="line"/>
      <point x="1131" y="842" type="line"/>
      <point x="1172" y="1020" type="line"/>
      <point x="1005" y="1020" type="line"/>
      <point x="1087" y="1356" type="line"/>
      <point x="901" y="1356" type="line"/>
      <point x="819" y="1020" type="line"/>
      <point x="545" y="1020" type="line"/>
      <point x="627" y="1355" type="line"/>
      <point x="442" y="1355" type="line"/>
      <point x="359" y="1020" type="line"/>
      <point x="190" y="1020" type="line"/>
      <point x="147" y="843" type="line"/>
      <point x="317" y="843" type="line"/>
      <point x="249" y="554" type="line"/>
      <point x="80" y="554" type="line"/>
      <point x="38" y="377" type="line"/>
      <point x="207" y="377" type="line"/>
      <point x="126" y="45" type="line"/>
    </contour>
    <contour>
      <point x="500" y="843" type="line"/>
      <point x="776" y="842" type="line"/>
      <point x="711" y="555" type="line"/>
      <point x="435" y="554" type="line"/>
    </contour>
  </outline>
</glyph>
<glyph name="dollar" format="2">
  <advance width="1296"/>
  <unicode hex="0024"/>
  <outline>
    <contour>
      <point x="590" y="-30" type="qcurve" smooth="yes"/>
      <point x="702" y="-30"/>
      <point x="897" y="37"/>
      <point x="1042" y="160"/>
      <point x="1126" y="336"/>
      <point x="1126" y="444" type="qcurve" smooth="yes"/>
      <point x="1126" y="496"/>
      <point x="1093" y="588"/>
      <point x="1020" y="669"/>
      <point x="905" y="740"/>
      <point x="823" y="770" type="qcurve"/>
      <point x="691" y="812" type="line"/>
      <point x="645" y="830"/>
      <point x="579" y="872"/>
      <point x="536" y="921"/>
      <point x="515" y="978"/>
      <point x="515" y="1012" type="qcurve" smooth="yes"/>
      <point x="515" y="1063"/>
      <point x="559" y="1148"/>
      <point x="636" y="1209"/>
      <point x="742" y="1243"/>
      <point x="804" y="1243" type="qcurve" smooth="yes"/>
      <point x="855" y="1243"/>
      <point x="955" y="1224"/>
      <point x="1045" y="1187"/>
      <point x="1121" y="1134"/>
      <point x="1149" y="1101" type="qcurve"/>
      <point x="1298" y="1253" type="line"/>
      <point x="1264" y="1293"/>
      <point x="1167" y="1359"/>
      <point x="1049" y="1406"/>
      <point x="912" y="1431"/>
      <point x="837" y="1431" type="qcurve" smooth="yes"/>
      <point x="733" y="1431"/>
      <point x="542" y="1365"/>
      <point x="396" y="1244"/>
      <point x="310" y="1073"/>
      <point x="310" y="966" type="qcurve" smooth="yes"/>
      <point x="310" y="864"/>
      <point x="439" y="697"/>
      <point x="582" y="636" type="qcurve"/>
      <point x="706" y="597" type="line"/>
      <point x="764" y="576"/>
      <point x="843" y="530"/>
      <point x="891" y="479"/>
      <point x="912" y="422"/>
      <point x="912" y="389" type="qcurve" smooth="yes"/>
      <point x="912" y="336"/>
      <point x="869" y="251"/>
      <point x="792" y="192"/>
      <point x="684" y="160"/>
      <point x="619" y="160" type="qcurve" smooth="yes"/>
      <point x="561" y="160"/>
      <point x="447" y="182"/>
      <point x="343" y="223"/>
      <point x="254" y="281"/>
      <point x="222" y="316" type="qcurve"/>
      <point x="75" y="158" type="line"/>
      <point x="117" y="114"/>
      <point x="230" y="45"/>
      <point x="363" y="-4"/>
      <point x="512" y="-30"/>
    </contour>
    <contour>
      <point x="558" y="-160" type="line"/>
      <point x="1019" y="1560" type="line"/>
      <point x="838" y="1560" type="line"/>
      <point x="377" y="-160" type="line"/>
    </contour>
  </outline>
</glyph>
<glyph name="percent" format="2">
  <advance width="2085"/>
  <unicode hex="0025"/>
  <outline>
    <contour>
      <point x="1727" y="1339" type="line"/>
      <point x="1615" y="1435" type="line"/>
      <point x="466" y="61" type="line"/>
      <point x="581" y="-35" type="line"/>
    </contour>
    <contour>
      <point x="556" y="658" type="curve" smooth="yes"/>
      <point x="790" y="658"/>
      <point x="1001" y="856"/>
      <point x="1001" y="1094" type="curve" smooth="yes"/>
      <point x="1001" y="1277"/>
      <point x="862" y="1420"/>
      <point x="659" y="1420" type="curve" smooth="yes"/>
      <point x="425" y="1420"/>
      <point x="211" y="1225"/>
      <point x="211" y="989" type="curve" smooth="yes"/>
      <point x="211" y="804"/>
      <point x="352" y="658"/>
    </contour>
    <contour>
      <point x="583" y="829" type="curve" smooth="yes"/>
      <point x="464" y="829"/>
      <point x="392" y="900"/>
      <point x="392" y="1008" type="curve" smooth="yes"/>
      <point x="392" y="1144"/>
      <point x="497" y="1249"/>
      <point x="630" y="1249" type="curve" smooth="yes"/>
      <point x="747" y="1249"/>
      <point x="821" y="1180"/>
      <point x="821" y="1076" type="curve" smooth="yes"/>
      <point x="821" y="940"/>
      <point x="719" y="829"/>
    </contour>
    <contour>
      <point x="1536" y="-20" type="curve" smooth="yes"/>
      <point x="1768" y="-20"/>
      <point x="1982" y="177"/>
      <point x="1982" y="413" type="curve" smooth="yes"/>
      <point x="1982" y="599"/>
      <point x="1843" y="742"/>
      <point x="1638" y="742" type="curve" smooth="yes"/>
      <point x="1404" y="742"/>
      <point x="1192" y="547"/>
      <point x="1192" y="311" type="curve" smooth="yes"/>
      <point x="1192" y="126"/>
      <point x="1333" y="-20"/>
    </contour>
    <contour>
      <point x="1565" y="151" type="curve" smooth="yes"/>
      <point x="1445" y="151"/>
      <point x="1373" y="224"/>
      <point x="1373" y="328" type="curve" smooth="yes"/>
      <point x="1373" y="460"/>
      <point x="1474" y="571"/>
      <point x="1612" y="571" type="curve" smooth="yes"/>
      <point x="1729" y="571"/>
      <point x="1802" y="504"/>
      <point x="1802" y="399" type="curve" smooth="yes"/>
      <point x="1802" y="262"/>
      <point x="1699" y="151"/>
    </contour>
  </outline>
</glyph>
<glyph name="ampersand" format="2">
  <advance width="1505"/>
  <unicode hex="0026"/>
  <outline>
    <contour>
      <point x="489" y="-28" type="curve" smooth="yes"/>
      <point x="638" y="-28"/>
      <point x="799" y="29"/>
      <point x="936" y="135" type="curve"/>
      <point x="1026" y="0" type="line"/>
      <point x="1301" y="0" type="line"/>
      <point x="1117" y="283" type="line"/>
      <point x="1250" y="405"/>
      <point x="1399" y="593"/>
      <point x="1481" y="753" type="curve"/>
      <point x="1288" y="837" type="line"/>
      <point x="1196" y="660"/>
      <point x="1110" y="542"/>
      <point x="1012" y="445" type="curve"/>
      <point x="816" y="735" type="line"/>
      <point x="1078" y="829"/>
      <point x="1207" y="957"/>
      <point x="1207" y="1138" type="curve" smooth="yes"/>
      <point x="1207" y="1310"/>
      <point x="1065" y="1430"/>
      <point x="853" y="1430" type="curve" smooth="yes"/>
      <point x="624" y="1430"/>
      <point x="416" y="1262"/>
      <point x="416" y="1034" type="curve" smooth="yes"/>
      <point x="416" y="961"/>
      <point x="438" y="892"/>
      <point x="490" y="809" type="curve"/>
      <point x="255" y="735"/>
      <point x="70" y="564"/>
      <point x="70" y="323" type="curve" smooth="yes"/>
      <point x="70" y="112"/>
      <point x="233" y="-28"/>
    </contour>
    <contour>
      <point x="537" y="184" type="curve" smooth="yes"/>
      <point x="397" y="184"/>
      <point x="310" y="253"/>
      <point x="310" y="358" type="curve" smooth="yes"/>
      <point x="310" y="491"/>
      <point x="421" y="608"/>
      <point x="590" y="655" type="curve"/>
      <point x="829" y="299" type="line"/>
      <point x="741" y="221"/>
      <point x="638" y="184"/>
    </contour>
    <contour>
      <point x="713" y="869" type="curve"/>
      <point x="662" y="942"/>
      <point x="640" y="1001"/>
      <point x="640" y="1055" type="curve" smooth="yes"/>
      <point x="640" y="1162"/>
      <point x="725" y="1237"/>
      <point x="830" y="1237" type="curve" smooth="yes"/>
      <point x="923" y="1237"/>
      <point x="983" y="1181"/>
      <point x="983" y="1101" type="curve" smooth="yes"/>
      <point x="983" y="992"/>
      <point x="888" y="913"/>
    </contour>
  </outline>
</glyph>
<glyph name="quotesingle" format="2">
  <advance width="468"/>
  <unicode hex="0027"/>
  <outline>
    <contour>
      <point x="422" y="847" type="line"/>
      <point x="594" y="1400" type="line"/>
      <point x="359" y="1400" type="line"/>
      <point x="237" y="847" type="line"/>
    </contour>
  </outline>
</glyph>
<glyph name="parenleft" format="2">
  <advance width="699"/>
  <unicode hex="0028"/>
  <outline>
    <contour>
      <point x="412" y="-157" type="line"/>
      <point x="383" y="-32"/>
      <point x="368" y="92"/>
      <point x="368" y="229" type="curve" smooth="yes"/>
      <point x="368" y="460"/>
      <point x="415" y="701"/>
      <point x="503" y="930" type="curve" smooth="yes"/>
      <point x="591" y="1158"/>
      <point x="720" y="1366"/>
      <point x="885" y="1527" type="curve"/>
      <point x="691" y="1610" type="line"/>
      <point x="519" y="1425"/>
      <point x="384" y="1211"/>
      <point x="289" y="979" type="curve" smooth="yes"/>
      <point x="194" y="746"/>
      <point x="144" y="501"/>
      <point x="144" y="250" type="curve" smooth="yes"/>
      <point x="144" y="85"/>
      <point x="161" y="-73"/>
      <point x="205" y="-230" type="curve"/>
    </contour>
  </outline>
</glyph>
<glyph name="parenright" format="2">
  <advance width="699"/>
  <unicode hex="0029"/>
  <outline>
    <contour>
      <point x="111" y="-230" type="line"/>
      <point x="240" y="-91"/>
      <point x="443" y="228"/>
      <point x="584" y="576"/>
      <point x="658" y="944"/>
      <point x="658" y="1130" type="qcurve" smooth="yes"/>
      <point x="658" y="1253"/>
      <point x="629" y="1492"/>
      <point x="597" y="1610" type="qcurve"/>
      <point x="389" y="1537" type="line"/>
      <point x="412" y="1445"/>
      <point x="434" y="1255"/>
      <point x="434" y="1151" type="qcurve" smooth="yes"/>
      <point x="434" y="979"/>
      <point x="365" y="621"/>
      <point x="233" y="281"/>
      <point x="40" y="-26"/>
      <point x="-83" y="-146" type="qcurve"/>
    </contour>
  </outline>
</glyph>
<glyph name="asterisk" format="2">
  <advance width="1111"/>
  <unicode hex="002A"/>
  <outline>
    <contour>
      <point x="658" y="865" type="line"/>
      <point x="748" y="577" type="line"/>
      <point x="929" y="640" type="line"/>
      <point x="804" y="918" type="line"/>
      <point x="1108" y="917" type="line"/>
      <point x="1099" y="1109" type="line"/>
      <point x="797" y="1078" type="line"/>
      <point x="893" y="1364" type="line"/>
      <point x="710" y="1414" type="line"/>
      <point x="646" y="1116" type="line"/>
      <point x="402" y="1296" type="line"/>
      <point x="295" y="1135" type="line"/>
      <point x="557" y="983" type="line"/>
      <point x="313" y="806" type="line"/>
      <point x="432" y="661" type="line"/>
    </contour>
  </outline>
</glyph>
<glyph name="plus" format="2">
  <advance width="1296"/>
  <unicode hex="002B"/>
  <outline>
    <contour>
      <point x="653" y="165" type="line"/>
      <point x="764" y="576" type="line"/>
      <point x="1193" y="576" type="line"/>
      <point x="1241" y="758" type="line"/>
      <point x="812" y="758" type="line"/>
      <point x="923" y="1169" type="line"/>
      <point x="733" y="1169" type="line"/>
      <point x="622" y="758" type="line"/>
      <point x="193" y="758" type="line"/>
      <point x="145" y="576" type="line"/>
      <point x="574" y="576" type="line"/>
      <point x="463" y="165" type="line"/>
    </contour>
  </outline>
</glyph>
<glyph name="comma" format="2">
  <advance width="550"/>
  <unicode hex="002C"/>
  <outline>
    <contour>
      <point x="-83" y="-321" type="line"/>
      <point x="-3" y="-285"/>
      <point x="150" y="-193"/>
      <point x="269" y="-80"/>
      <point x="343" y="54"/>
      <point x="343" y="132" type="qcurve" smooth="yes"/>
      <point x="343" y="171"/>
      <point x="319" y="232"/>
      <point x="274" y="275"/>
      <point x="213" y="297"/>
      <point x="174" y="297" type="qcurve" smooth="yes"/>
      <point x="137" y="297"/>
      <point x="71" y="271"/>
      <point x="23" y="226"/>
      <point x="-4" y="163"/>
      <point x="-4" y="126" type="qcurve" smooth="yes"/>
      <point x="-4" y="97"/>
      <point x="17" y="48"/>
      <point x="56" y="12"/>
      <point x="110" y="-9"/>
      <point x="143" y="-12" type="qcurve"/>
      <point x="127" y="-38"/>
      <point x="73" y="-89"/>
      <point x="1" y="-139"/>
      <point x="-87" y="-186"/>
      <point x="-137" y="-207" type="qcurve"/>
    </contour>
  </outline>
</glyph>
<glyph name="hyphen" format="2">
  <advance width="777"/>
  <unicode hex="002D"/>
  <outline>
    <contour>
      <point x="649" y="476" type="line"/>
      <point x="695" y="648" type="line"/>
      <point x="165" y="648" type="line"/>
      <point x="119" y="476" type="line"/>
    </contour>
  </outline>
</glyph>
<glyph name="period" format="2">
  <advance width="558"/>
  <unicode hex="002E"/>
  <outline>
    <contour>
      <point x="162" y="-30" type="curve" smooth="yes"/>
      <point x="262" y="-30"/>
      <point x="356" y="42"/>
      <point x="356" y="157" type="curve" smooth="yes"/>
      <point x="356" y="242"/>
      <point x="291" y="297"/>
      <point x="202" y="297" type="curve" smooth="yes"/>
      <point x="102" y="297"/>
      <point x="6" y="226"/>
      <point x="6" y="109" type="curve" smooth="yes"/>
      <point x="6" y="27"/>
      <point x="73" y="-30"/>
    </contour>
  </outline>
</glyph>
<glyph name="slash" format="2">
  <advance width="886"/>
  <unicode hex="002F"/>
  <outline>
    <contour>
      <point x="1162" y="1489" type="line"/>
      <point x="983" y="1610" type="line"/>
      <point x="-170" y="-112" type="line"/>
      <point x="12" y="-230" type="line"/>
    </contour>
  </outline>
</glyph>
<glyph name="zero" format="2">
  <advance width="1362"/>
  <unicode hex="0030"/>
  <outline>
    <contour>
      <point x="616" y="-30" type="qcurve" smooth="yes"/>
      <point x="720" y="-30"/>
      <point x="909" y="43"/>
      <point x="1071" y="171"/>
      <point x="1201" y="347"/>
      <point x="1293" y="552"/>
      <point x="1344" y="778"/>
      <point x="1344" y="892" type="qcurve" smooth="yes"/>
      <point x="1344" y="1006"/>
      <point x="1282" y="1202"/>
      <point x="1160" y="1347"/>
      <point x="976" y="1430"/>
      <point x="854" y="1430" type="qcurve" smooth="yes"/>
      <point x="749" y="1430"/>
      <point x="560" y="1357"/>
      <point x="399" y="1228"/>
      <point x="268" y="1053"/>
      <point x="176" y="847"/>
      <point x="126" y="621"/>
      <point x="126" y="506" type="qcurve" smooth="yes"/>
      <point x="126" y="392"/>
      <point x="189" y="196"/>
      <point x="312" y="52"/>
      <point x="495" y="-30"/>
    </contour>
    <contour>
      <point x="641" y="197" type="qcurve" smooth="yes"/>
      <point x="578" y="197"/>
      <point x="481" y="240"/>
      <point x="415" y="319"/>
      <point x="381" y="433"/>
      <point x="381" y="505" type="qcurve" smooth="yes"/>
      <point x="381" y="579"/>
      <point x="408" y="739"/>
      <point x="460" y="895"/>
      <point x="536" y="1035"/>
      <point x="636" y="1141"/>
      <point x="757" y="1203"/>
      <point x="829" y="1203" type="qcurve" smooth="yes"/>
      <point x="892" y="1203"/>
      <point x="990" y="1161"/>
      <point x="1056" y="1082"/>
      <point x="1090" y="969"/>
      <point x="1090" y="898" type="qcurve" smooth="yes"/>
      <point x="1090" y="826"/>
      <point x="1064" y="667"/>
      <point x="1012" y="511"/>
      <point x="936" y="369"/>
      <point x="836" y="261"/>
      <point x="713" y="197"/>
    </contour>
  </outline>
</glyph>
<glyph name="zero.tnum" format="2">
  <advance width="1200"/>
  <unicode hex="0030"/>
  <outline>
    <contour>
      <point x="541" y="-30" type="curve" smooth="yes"/>
      <point x="979" y="-30"/>
      <point x="1215" y="515"/>
      <point x="1215" y="892" type="curve" smooth="yes"/>
      <point x="1215" y="1200"/>
      <point x="1058" y="1430"/>
      <point x="760" y="1430" type="curve" smooth="yes"/>
      <point x="318" y="1430"/>
      <point x="87" y="884"/>
      <point x="87" y="506" type="curve" smooth="yes"/>
      <point x="87" y="199"/>
      <point x="245" y="-30"/>
    </contour>
    <contour>
      <point x="564" y="197" type="curve" smooth="yes"/>
      <point x="395" y="197"/>
      <point x="329" y="339"/>
      <point x="329" y="505" type="curve" smooth="yes"/>
      <point x="329" y="748"/>
      <point x="455" y="1203"/>
      <point x="737" y="1203" type="curve" smooth="yes"/>
      <point x="907" y="1203"/>
      <point x="974" y="1065"/>
      <point x="974" y="898" type="curve" smooth="yes"/>
      <point x="974" y="656"/>
      <point x="846" y="197"/>
    </contour>
  </outline>
</glyph>
<glyph name="one" format="2">
  <advance width="886"/>
  <unicode hex="0031"/>
  <outline>
    <contour>
      <point x="557" y="0" type="line"/>
      <point x="933" y="1400" type="line"/>
      <point x="859" y="1400" type="line"/>
      <point x="177" y="1182" type="line"/>
      <point x="237" y="987" type="line"/>
      <point x="617" y="1108" type="line"/>
      <point x="317" y="0" type="line"/>
    </contour>
  </outline>
</glyph>
<glyph name="two.tnum" format="2">
  <advance width="1200"/>
  <unicode hex="0032"/>
  <outline>
    <contour>
      <point x="207" y="1056" type="curve"/>
      <point x="407" y="958" type="line"/>
      <point x="470" y="1083"/>
      <point x="626" y="1226"/>
      <point x="769" y="1226" type="curve" smooth="yes"/>
      <point x="870" y="1226"/>
      <point x="995" y="1183"/>
      <point x="995" y="1063" type="curve" smooth="yes"/>
      <point x="995" y="1019"/>
      <point x="979" y="968"/>
      <point x="960" y="929" type="curve"/>
      <point x="861" y="709"/>
      <point x="267" y="324"/>
      <point x="39" y="191" type="curve"/>
      <point x="-12" y="0" type="line"/>
      <point x="945" y="0" type="line"/>
      <point x="1003" y="215" type="line"/>
      <point x="423" y="215" type="line"/>
      <point x="644" y="327"/>
      <point x="1009" y="562"/>
      <point x="1164" y="825" type="curve" smooth="yes"/>
      <point x="1210" y="903"/>
      <point x="1238" y="984"/>
      <point x="1238" y="1064" type="curve" smooth="yes"/>
      <point x="1238" y="1320"/>
      <point x="1007" y="1428"/>
      <point x="779" y="1428" type="curve" smooth="yes"/>
      <point x="525" y="1428"/>
      <point x="321" y="1270"/>
    </contour>
  </outline>
</glyph>
<glyph name="three" format="2">
  <advance width="1166"/>
  <unicode hex="0033"/>
  <outline>
    <contour>
      <point x="455" y="-32" type="curve" smooth="yes"/>
      <point x="760" y="-32"/>
      <point x="1022" y="171"/>
      <point x="1022" y="471" type="curve" smooth="yes"/>
      <point x="1022" y="671"/>
      <point x="866" y="788"/>
      <point x="674" y="814" type="curve"/>
      <point x="1168" y="1206" type="line"/>
      <point x="1219" y="1400" type="line"/>
      <point x="326" y="1400" type="line"/>
      <point x="269" y="1185" type="line"/>
      <point x="846" y="1185" type="line"/>
      <point x="344" y="805" type="line"/>
      <point x="369" y="654" type="line"/>
      <point x="408" y="660"/>
      <point x="448" y="662"/>
      <point x="484" y="662" type="curve" smooth="yes"/>
      <point x="663" y="662"/>
      <point x="775" y="588"/>
      <point x="775" y="461" type="curve" smooth="yes"/>
      <point x="775" y="298"/>
      <point x="643" y="192"/>
      <point x="467" y="192" type="curve" smooth="yes"/>
      <point x="331" y="192"/>
      <point x="193" y="249"/>
      <point x="117" y="342" type="curve"/>
      <point x="-14" y="145" type="line"/>
      <point x="66" y="46"/>
      <point x="260" y="-32"/>
    </contour>
  </outline>
</glyph>
<glyph name="three.tnum" format="2">
  <advance width="1200"/>
  <unicode hex="0033"/>
  <outline>
    <contour>
      <point x="491" y="-31" type="curve" smooth="yes"/>
      <point x="777" y="-31"/>
      <point x="1053" y="159"/>
      <point x="1053" y="471" type="curve" smooth="yes"/>
      <point x="1053" y="678"/>
      <point x="893" y="787"/>
      <point x="709" y="814" type="curve"/>
      <point x="1197" y="1204" type="line"/>
      <point x="1248" y="1400" type="line"/>
      <point x="366" y="1400" type="line"/>
      <point x="309" y="1185" type="line"/>
      <point x="881" y="1185" type="line"/>
      <point x="384" y="806" type="line"/>
      <point x="409" y="655" type="line"/>
      <point x="444" y="661"/>
      <point x="485" y="662"/>
      <point x="520" y="662" type="curve" smooth="yes"/>
      <point x="653" y="662"/>
      <point x="813" y="620"/>
      <point x="813" y="461" type="curve" smooth="yes"/>
      <point x="813" y="288"/>
      <point x="668" y="192"/>
      <point x="502" y="192" type="curve" smooth="yes"/>
      <point x="372" y="192"/>
      <point x="231" y="241"/>
      <point x="155" y="338" type="curve"/>
      <point x="29" y="145" type="line"/>
      <point x="123" y="23"/>
      <point x="347" y="-31"/>
    </contour>
  </outline>
</glyph>
<glyph name="four" format="2">
  <advance width="1204"/>
  <unicode hex="0034"/>
  <outline>
    <contour>
      <point x="786" y="0" type="line"/>
      <point x="864" y="292" type="line"/>
      <point x="1086" y="292" type="line"/>
      <point x="1131" y="463" type="line"/>
      <point x="910" y="463" type="line"/>
      <point x="994" y="781" type="line"/>
      <point x="818" y="781" type="line"/>
      <point x="733" y="463" type="line"/>
      <point x="254" y="463" type="line"/>
      <point x="1008" y="1400" type="line"/>
      <point x="788" y="1400" type="line"/>
      <point x="25" y="447" type="line"/>
      <point x="-15" y="292" type="line"/>
      <point x="688" y="292" type="line"/>
      <point x="609" y="0" type="line"/>
    </contour>
  </outline>
</glyph>
<glyph name="four.tnum" format="2">
  <advance width="1200"/>
  <unicode hex="0034"/>
  <outline>
    <contour>
      <point x="807" y="0" type="line"/>
      <point x="879" y="279" type="line"/>
      <point x="1078" y="279" type="line"/>
      <point x="1132" y="492" type="line"/>
      <point x="933" y="492" type="line"/>
      <point x="1009" y="790" type="line"/>
      <point x="795" y="790" type="line"/>
      <point x="719" y="492" type="line"/>
      <point x="336" y="492" type="line"/>
      <point x="1012" y="1400" type="line"/>
      <point x="747" y="1400" type="line"/>
      <point x="58" y="469" type="line"/>
      <point x="9" y="279" type="line"/>
      <point x="665" y="279" type="line"/>
      <point x="593" y="0" type="line"/>
    </contour>
  </outline>
</glyph>
<glyph name="five" format="2">
  <advance width="1170"/>
  <unicode hex="0035"/>
  <outline>
    <contour>
      <point x="461" y="-30" type="curve" smooth="yes"/>
      <point x="782" y="-30"/>
      <point x="1037" y="188"/>
      <point x="1037" y="500" type="curve" smooth="yes"/>
      <point x="1037" y="735"/>
      <point x="855" y="878"/>
      <point x="592" y="878" type="curve" smooth="yes"/>
      <point x="552" y="878"/>
      <point x="512" y="873"/>
      <point x="472" y="863" type="curve"/>
      <point x="593" y="1173" type="line"/>
      <point x="1194" y="1173" type="line"/>
      <point x="1254" y="1398" type="line"/>
      <point x="471" y="1398" type="line"/>
      <point x="221" y="738" type="line"/>
      <point x="283" y="639" type="line"/>
      <point x="361" y="665"/>
      <point x="435" y="676"/>
      <point x="501" y="676" type="curve" smooth="yes"/>
      <point x="674" y="676"/>
      <point x="786" y="597"/>
      <point x="786" y="471" type="curve" smooth="yes"/>
      <point x="786" y="306"/>
      <point x="659" y="193"/>
      <point x="474" y="193" type="curve" smooth="yes"/>
      <point x="335" y="193"/>
      <point x="193" y="242"/>
      <point x="109" y="336" type="curve"/>
      <point x="-19" y="142" type="line"/>
      <point x="77" y="41"/>
      <point x="264" y="-30"/>
    </contour>
  </outline>
</glyph>
<glyph name="five.tnum" format="2">
  <advance width="1200"/>
  <unicode hex="0035"/>
  <outline>
    <contour>
      <point x="497" y="-30" type="curve" smooth="yes"/>
      <point x="792" y="-30"/>
      <point x="1050" y="174"/>
      <point x="1050" y="500" type="curve" smooth="yes"/>
      <point x="1050" y="759"/>
      <point x="846" y="878"/>
      <point x="623" y="878" type="curve" smooth="yes"/>
      <point x="585" y="878"/>
      <point x="551" y="874"/>
      <point x="512" y="864" type="curve"/>
      <point x="509" y="864" type="line"/>
      <point x="625" y="1173" type="line"/>
      <point x="1200" y="1173" type="line"/>
      <point x="1258" y="1398" type="line"/>
      <point x="505" y="1398" type="line"/>
      <point x="266" y="738" type="line"/>
      <point x="325" y="639" type="line"/>
      <point x="403" y="665"/>
      <point x="471" y="676"/>
      <point x="535" y="676" type="curve" smooth="yes"/>
      <point x="662" y="676"/>
      <point x="807" y="626"/>
      <point x="807" y="471" type="curve" smooth="yes"/>
      <point x="807" y="295"/>
      <point x="670" y="193"/>
      <point x="509" y="193" type="curve" smooth="yes"/>
      <point x="381" y="193"/>
      <point x="245" y="238"/>
      <point x="160" y="337" type="curve"/>
      <point x="38" y="142" type="line"/>
      <point x="144" y="24"/>
      <point x="348" y="-30"/>
    </contour>
  </outline>
</glyph>
<glyph name="six" format="2">
  <advance width="1286"/>
  <unicode hex="0036"/>
  <outline>
    <contour>
      <point x="621" y="-30" type="curve" smooth="yes"/>
      <point x="928" y="-30"/>
      <point x="1198" y="206"/>
      <point x="1198" y="494" type="curve" smooth="yes"/>
      <point x="1198" y="719"/>
      <point x="1011" y="896"/>
      <point x="730" y="896" type="curve" smooth="yes"/>
      <point x="637" y="896"/>
      <point x="549" y="864"/>
      <point x="477" y="801" type="curve"/>
      <point x="618" y="1009"/>
      <point x="889" y="1234"/>
      <point x="1292" y="1234" type="curve"/>
      <point x="1256" y="1430" type="line"/>
      <point x="672" y="1430"/>
      <point x="114" y="997"/>
      <point x="114" y="454" type="curve" smooth="yes"/>
      <point x="114" y="164"/>
      <point x="316" y="-30"/>
    </contour>
    <contour>
      <point x="634" y="185" type="curve" smooth="yes"/>
      <point x="469" y="185"/>
      <point x="365" y="281"/>
      <point x="365" y="409" type="curve" smooth="yes"/>
      <point x="365" y="577"/>
      <point x="510" y="698"/>
      <point x="679" y="698" type="curve" smooth="yes"/>
      <point x="837" y="698"/>
      <point x="944" y="597"/>
      <point x="944" y="469" type="curve" smooth="yes"/>
      <point x="944" y="310"/>
      <point x="806" y="185"/>
    </contour>
  </outline>
</glyph>
<glyph name="six.tnum" format="2">
  <advance width="1200"/>
  <unicode hex="0036"/>
  <outline>
    <contour>
      <point x="568" y="-30" type="curve" smooth="yes"/>
      <point x="862" y="-30"/>
      <point x="1121" y="206"/>
      <point x="1121" y="494" type="curve" smooth="yes"/>
      <point x="1121" y="719"/>
      <point x="942" y="896"/>
      <point x="672" y="896" type="curve" smooth="yes"/>
      <point x="588" y="896"/>
      <point x="510" y="870"/>
      <point x="442" y="814" type="curve"/>
      <point x="439" y="814" type="line"/>
      <point x="618" y="1078"/>
      <point x="902" y="1234"/>
      <point x="1212" y="1234" type="curve"/>
      <point x="1177" y="1430" type="line"/>
      <point x="1048" y="1430"/>
      <point x="926" y="1408"/>
      <point x="810" y="1369" type="curve" smooth="yes"/>
      <point x="393" y="1227"/>
      <point x="81" y="861"/>
      <point x="81" y="471" type="curve" smooth="yes"/>
      <point x="81" y="164"/>
      <point x="275" y="-30"/>
    </contour>
    <contour>
      <point x="580" y="185" type="curve" smooth="yes"/>
      <point x="424" y="185"/>
      <point x="324" y="281"/>
      <point x="324" y="409" type="curve" smooth="yes"/>
      <point x="324" y="577"/>
      <point x="463" y="698"/>
      <point x="623" y="698" type="curve" smooth="yes"/>
      <point x="774" y="698"/>
      <point x="875" y="597"/>
      <point x="875" y="469" type="curve" smooth="yes"/>
      <point x="875" y="310"/>
      <point x="745" y="185"/>
    </contour>
  </outline>
</glyph>
<glyph name="seven" format="2">
  <advance width="1121"/>
  <unicode hex="0037"/>
  <outline>
    <contour>
      <point x="330" y="0" type="line"/>
      <point x="1225" y="1218" type="line"/>
      <point x="1273" y="1400" type="line"/>
      <point x="335" y="1400" type="line"/>
      <point x="273" y="1167" type="line"/>
      <point x="907" y="1167" type="line"/>
      <point x="37" y="0" type="line"/>
    </contour>
  </outline>
</glyph>
<glyph name="seven.tnum" format="2">
  <advance width="1200"/>
  <unicode hex="0037"/>
  <outline>
    <contour>
      <point x="389" y="0" type="line"/>
      <point x="1246" y="1218" type="line"/>
      <point x="1292" y="1400" type="line"/>
      <point x="391" y="1400" type="line"/>
      <point x="332" y="1167" type="line"/>
      <point x="939" y="1167" type="line"/>
      <point x="106" y="0" type="line"/>
    </contour>
  </outline>
</glyph>
<glyph name="eight" format="2">
  <advance width="1243"/>
  <unicode hex="0038"/>
  <outline>
    <contour>
      <point x="542" y="-30" type="curve" smooth="yes"/>
      <point x="852" y="-30"/>
      <point x="1111" y="160"/>
      <point x="1111" y="429" type="curve"/>
      <point x="1111" y="551"/>
      <point x="1046" y="647"/>
      <point x="932" y="713" type="curve"/>
      <point x="1108" y="766"/>
      <point x="1244" y="907"/>
      <point x="1244" y="1083" type="curve"/>
      <point x="1244" y="1279"/>
      <point x="1067" y="1430"/>
      <point x="807" y="1430" type="curve" smooth="yes"/>
      <point x="517" y="1430"/>
      <point x="301" y="1254"/>
      <point x="300" y="1017" type="curve"/>
      <point x="300" y="915"/>
      <point x="363" y="814"/>
      <point x="442" y="767" type="curve"/>
      <point x="234" y="715"/>
      <point x="70" y="553"/>
      <point x="70" y="339" type="curve"/>
      <point x="70" y="123"/>
      <point x="247" y="-30"/>
    </contour>
    <contour>
      <point x="573" y="179" type="curve" smooth="yes"/>
      <point x="431" y="179"/>
      <point x="322" y="257"/>
      <point x="322" y="379" type="curve"/>
      <point x="323" y="532"/>
      <point x="445" y="639"/>
      <point x="614" y="639" type="curve" smooth="yes"/>
      <point x="766" y="639"/>
      <point x="867" y="564"/>
      <point x="867" y="439" type="curve" smooth="yes"/>
      <point x="867" y="284"/>
      <point x="741" y="179"/>
    </contour>
    <contour>
      <point x="758" y="850" type="curve" smooth="yes"/>
      <point x="623" y="850"/>
      <point x="534" y="918"/>
      <point x="534" y="1029" type="curve" smooth="yes"/>
      <point x="534" y="1151"/>
      <point x="642" y="1243"/>
      <point x="788" y="1243" type="curve" smooth="yes"/>
      <point x="920" y="1243"/>
      <point x="1006" y="1168"/>
      <point x="1006" y="1064" type="curve" smooth="yes"/>
      <point x="1006" y="935"/>
      <point x="896" y="850"/>
    </contour>
  </outline>
</glyph>
<glyph name="nine" format="2">
  <advance width="1251"/>
  <unicode hex="0039"/>
  <outline>
    <contour>
      <point x="484" y="0" type="line"/>
      <point x="946" y="468" type="line" smooth="yes"/>
      <point x="1006" y="528"/>
      <point x="1119" y="652"/>
      <point x="1208" y="785"/>
      <point x="1263" y="931"/>
      <point x="1263" y="1012" type="qcurve" smooth="yes"/>
      <point x="1263" y="1099"/>
      <point x="1195" y="1251"/>
      <point x="1071" y="1364"/>
      <point x="897" y="1430"/>
      <point x="790" y="1430" type="qcurve" smooth="yes"/>
      <point x="675" y="1430"/>
      <point x="464" y="1349"/>
      <point x="302" y="1206"/>
      <point x="206" y="1011"/>
      <point x="206" y="898" type="qcurve" smooth="yes"/>
      <point x="206" y="813"/>
      <point x="270" y="671"/>
      <point x="388" y="568"/>
      <point x="552" y="511"/>
      <point x="652" y="511" type="qcurve" smooth="yes"/>
      <point x="690" y="511"/>
      <point x="762" y="520"/>
      <point x="794" y="530" type="qcurve"/>
      <point x="804" y="607" type="line"/>
      <point x="195" y="0" type="line"/>
    </contour>
    <contour>
      <point x="705" y="698" type="qcurve" smooth="yes"/>
      <point x="650" y="698"/>
      <point x="559" y="730"/>
      <point x="493" y="789"/>
      <point x="458" y="871"/>
      <point x="458" y="922" type="qcurve" smooth="yes"/>
      <point x="458" y="987"/>
      <point x="507" y="1096"/>
      <point x="590" y="1174"/>
      <point x="700" y="1218"/>
      <point x="761" y="1218" type="qcurve" smooth="yes"/>
      <point x="817" y="1218"/>
      <point x="910" y="1187"/>
      <point x="977" y="1128"/>
      <point x="1014" y="1046"/>
      <point x="1014" y="995" type="qcurve" smooth="yes"/>
      <point x="1014" y="932"/>
      <point x="965" y="823"/>
      <point x="882" y="744"/>
      <point x="769" y="698"/>
    </contour>
  </outline>
</glyph>
<glyph name="nine.tnum" format="2">
  <advance width="1200"/>
  <unicode hex="0039"/>
  <outline>
    <contour>
      <point x="137" y="-30" type="line"/>
      <point x="684" y="-30"/>
      <point x="1223" y="419"/>
      <point x="1223" y="958" type="curve" smooth="yes"/>
      <point x="1223" y="1242"/>
      <point x="1029" y="1430"/>
      <point x="734" y="1430" type="curve" smooth="yes"/>
      <point x="444" y="1430"/>
      <point x="206" y="1213"/>
      <point x="206" y="931" type="curve" smooth="yes"/>
      <point x="206" y="706"/>
      <point x="382" y="529"/>
      <point x="644" y="529" type="curve" smooth="yes"/>
      <point x="731" y="529"/>
      <point x="804" y="554"/>
      <point x="866" y="610" type="curve"/>
      <point x="698" y="343"/>
      <point x="412" y="166"/>
      <point x="102" y="166" type="curve"/>
    </contour>
    <contour>
      <point x="693" y="726" type="curve" smooth="yes"/>
      <point x="549" y="726"/>
      <point x="452" y="815"/>
      <point x="452" y="944" type="curve" smooth="yes"/>
      <point x="452" y="1096"/>
      <point x="580" y="1215"/>
      <point x="735" y="1215" type="curve" smooth="yes"/>
      <point x="886" y="1215"/>
      <point x="981" y="1125"/>
      <point x="981" y="1003" type="curve" smooth="yes"/>
      <point x="981" y="843"/>
      <point x="847" y="726"/>
    </contour>
  </outline>
</glyph>
<glyph name="less" format="2">
  <advance width="1296"/>
  <unicode hex="003C"/>
  <outline>
    <contour>
      <point x="1117" y="337" type="line"/>
      <point x="448" y="633" type="line"/>
      <point x="1325" y="953" type="line"/>
      <point x="1260" y="1133" type="line"/>
      <point x="188" y="738" type="line"/>
      <point x="141" y="557" type="line"/>
      <point x="1041" y="160" type="line"/>
    </contour>
  </outline>
</glyph>
<glyph name="equal" format="2">
  <advance width="1296"/>
  <unicode hex="003D"/>
  <outline>
    <contour>
      <point x="1230" y="782" type="line"/>
      <point x="1269" y="930" type="line"/>
      <point x="266" y="930" type="line"/>
      <point x="227" y="782" type="line"/>
    </contour>
    <contour>
      <point x="1126" y="404" type="line"/>
      <point x="1166" y="552" type="line"/>
      <point x="162" y="552" type="line"/>
      <point x="123" y="404" type="line"/>
    </contour>
  </outline>
</glyph>
<glyph name="greater" format="2">
  <advance width="1296"/>
  <unicode hex="003E"/>
  <outline>
    <contour>
      <point x="1188" y="558" type="line"/>
      <point x="1235" y="739" type="line"/>
      <point x="335" y="1135" type="line"/>
      <point x="259" y="959" type="line"/>
      <point x="928" y="663" type="line"/>
      <point x="51" y="342" type="line"/>
      <point x="116" y="163" type="line"/>
    </contour>
  </outline>
</glyph>
<glyph name="question" format="2">
  <advance width="1001"/>
  <unicode hex="003F"/>
  <outline>
    <contour>
      <point x="415" y="451" type="line"/>
      <point x="493" y="590"/>
      <point x="664" y="666"/>
      <point x="808" y="766" type="curve" smooth="yes"/>
      <point x="937" y="855"/>
      <point x="1045" y="965"/>
      <point x="1045" y="1126" type="curve" smooth="yes"/>
      <point x="1045" y="1381"/>
      <point x="745" y="1470"/>
      <point x="538" y="1470" type="curve" smooth="yes"/>
      <point x="439" y="1470"/>
      <point x="303" y="1451"/>
      <point x="217" y="1399" type="curve"/>
      <point x="222" y="1173" type="line"/>
      <point x="297" y="1205"/>
      <point x="375" y="1227"/>
      <point x="457" y="1227" type="curve" smooth="yes"/>
      <point x="552" y="1227"/>
      <point x="718" y="1200"/>
      <point x="718" y="1075" type="curve" smooth="yes"/>
      <point x="718" y="926"/>
      <point x="550" y="877"/>
      <point x="422" y="799" type="curve" smooth="yes"/>
      <point x="344" y="751"/>
      <point x="281" y="688"/>
      <point x="281" y="601" type="curve" smooth="yes"/>
      <point x="281" y="549"/>
      <point x="313" y="493"/>
      <point x="340" y="451" type="curve"/>
    </contour>
    <contour>
      <point x="278" y="-31" type="curve" smooth="yes"/>
      <point x="382" y="-31"/>
      <point x="475" y="49"/>
      <point x="475" y="156" type="curve" smooth="yes"/>
      <point x="475" y="247"/>
      <point x="395" y="299"/>
      <point x="312" y="299" type="curve" smooth="yes"/>
      <point x="207" y="299"/>
      <point x="115" y="218"/>
      <point x="115" y="111" type="curve" smooth="yes"/>
      <point x="115" y="20"/>
      <point x="195" y="-31"/>
    </contour>
  </outline>
</glyph>
<glyph name="at" format="2">
  <advance width="1728"/>
  <unicode hex="0040"/>
  <outline>
    <contour>
      <point x="880" y="-234" type="curve" smooth="yes"/>
      <point x="1089" y="-234"/>
      <point x="1302" y="-173"/>
      <point x="1434" y="-74" type="curve"/>
      <point x="1382" y="36" type="line"/>
      <point x="1269" y="-56"/>
      <point x="1076" y="-116"/>
      <point x="890" y="-116" type="curve" smooth="yes"/>
      <point x="506" y="-116"/>
      <point x="248" y="128"/>
      <point x="248" y="487" type="curve" smooth="yes"/>
      <point x="248" y="851"/>
      <point x="529" y="1125"/>
      <point x="901" y="1125" type="curve" smooth="yes"/>
      <point x="1259" y="1125"/>
      <point x="1507" y="899"/>
      <point x="1507" y="573" type="curve" smooth="yes"/>
      <point x="1507" y="380"/>
      <point x="1417" y="254"/>
      <point x="1300" y="254" type="curve" smooth="yes"/>
      <point x="1205" y="254"/>
      <point x="1176" y="301"/>
      <point x="1181" y="411" type="curve" smooth="yes"/>
      <point x="1205" y="857" type="line"/>
      <point x="1079" y="857" type="line"/>
      <point x="1076" y="777" type="line"/>
      <point x="1012" y="848"/>
      <point x="935" y="883"/>
      <point x="843" y="883" type="curve" smooth="yes"/>
      <point x="644" y="883"/>
      <point x="488" y="709"/>
      <point x="488" y="489" type="curve" smooth="yes"/>
      <point x="488" y="288"/>
      <point x="621" y="139"/>
      <point x="803" y="139" type="curve" smooth="yes"/>
      <point x="919" y="139"/>
      <point x="1015" y="187"/>
      <point x="1075" y="277" type="curve"/>
      <point x="1098" y="191"/>
      <point x="1169" y="139"/>
      <point x="1284" y="139" type="curve" smooth="yes"/>
      <point x="1477" y="139"/>
      <point x="1635" y="326"/>
      <point x="1635" y="575" type="curve" smooth="yes"/>
      <point x="1635" y="969"/>
      <point x="1334" y="1242"/>
      <point x="903" y="1242" type="curve" smooth="yes"/>
      <point x="453" y="1242"/>
      <point x="120" y="919"/>
      <point x="120" y="485" type="curve" smooth="yes"/>
      <point x="120" y="56"/>
      <point x="428" y="-234"/>
    </contour>
    <contour>
      <point x="824" y="269" type="curve" smooth="yes"/>
      <point x="703" y="269"/>
      <point x="635" y="346"/>
      <point x="635" y="486" type="curve" smooth="yes"/>
      <point x="635" y="651"/>
      <point x="719" y="751"/>
      <point x="857" y="751" type="curve" smooth="yes"/>
      <point x="978" y="751"/>
      <point x="1045" y="675"/>
      <point x="1045" y="538" type="curve" smooth="yes"/>
      <point x="1045" y="369"/>
      <point x="962" y="269"/>
    </contour>
  </outline>
</glyph>
<glyph name="A" format="2">
  <advance width="1411"/>
  <unicode hex="0041"/>
  <outline>
    <contour>
      <point x="184" y="0" type="line"/>
      <point x="384" y="317" type="line"/>
      <point x="939" y="317" type="line"/>
      <point x="975" y="0" type="line"/>
      <point x="1259" y="0" type="line"/>
      <point x="1088" y="1400" type="line"/>
      <point x="799" y="1400" type="line"/>
      <point x="-117" y="0" type="line"/>
    </contour>
    <contour>
      <point x="867" y="1098" type="line"/>
      <point x="934" y="538" type="line"/>
      <point x="506" y="538" type="line"/>
    </contour>
  </outline>
</glyph>
<glyph name="B" format="2">
  <advance width="1291"/>
  <unicode hex="0042"/>
  <outline>
    <contour>
      <point x="640" y="0" type="line" smooth="yes"/>
      <point x="926" y="0"/>
      <point x="1165" y="177"/>
      <point x="1165" y="450" type="curve" smooth="yes"/>
      <point x="1165" y="572"/>
      <point x="1105" y="685"/>
      <point x="980" y="739" type="curve"/>
      <point x="1161" y="786"/>
      <point x="1292" y="918"/>
      <point x="1292" y="1084" type="curve" smooth="yes"/>
      <point x="1292" y="1282"/>
      <point x="1129" y="1400"/>
      <point x="852" y="1400" type="curve" smooth="yes"/>
      <point x="419" y="1400" type="line"/>
      <point x="44" y="0" type="line"/>
    </contour>
    <contour>
      <point x="471" y="622" type="line"/>
      <point x="669" y="622" type="line" smooth="yes"/>
      <point x="811" y="622"/>
      <point x="895" y="564"/>
      <point x="895" y="449" type="curve" smooth="yes"/>
      <point x="895" y="293"/>
      <point x="793" y="199"/>
      <point x="626" y="199" type="curve" smooth="yes"/>
      <point x="356" y="199" type="line"/>
    </contour>
    <contour>
      <point x="627" y="1201" type="line"/>
      <point x="782" y="1201" type="line" smooth="yes"/>
      <point x="946" y="1201"/>
      <point x="1029" y="1146"/>
      <point x="1029" y="1039" type="curve" smooth="yes"/>
      <point x="1029" y="910"/>
      <point x="909" y="810"/>
      <point x="745" y="810" type="curve" smooth="yes"/>
      <point x="521" y="810" type="line"/>
    </contour>
  </outline>
</glyph>
<glyph name="C" format="2">
  <advance width="1399"/>
  <unicode hex="0043"/>
  <outline>
    <contour>
      <point x="792" y="-30" type="curve" smooth="yes"/>
      <point x="963" y="-30"/>
      <point x="1110" y="10"/>
      <point x="1242" y="90" type="curve"/>
      <point x="1179" y="322" type="line"/>
      <point x="1071" y="254"/>
      <point x="957" y="223"/>
      <point x="841" y="223" type="curve" smooth="yes"/>
      <point x="708" y="223"/>
      <point x="602" y="259"/>
      <point x="530" y="323" type="curve" smooth="yes"/>
      <point x="457" y="387"/>
      <point x="418" y="479"/>
      <point x="418" y="596" type="curve" smooth="yes"/>
      <point x="418" y="757"/>
      <point x="467" y="902"/>
      <point x="558" y="1007" type="curve" smooth="yes"/>
      <point x="649" y="1112"/>
      <point x="776" y="1178"/>
      <point x="936" y="1178" type="curve" smooth="yes"/>
      <point x="1093" y="1178"/>
      <point x="1211" y="1125"/>
      <point x="1283" y="1032" type="curve"/>
      <point x="1463" y="1229" type="line"/>
      <point x="1402" y="1298"/>
      <point x="1333" y="1349"/>
      <point x="1249" y="1382" type="curve" smooth="yes"/>
      <point x="1165" y="1414"/>
      <point x="1068" y="1430"/>
      <point x="955" y="1430" type="curve" smooth="yes"/>
      <point x="879" y="1430"/>
      <point x="807" y="1419"/>
      <point x="736" y="1398" type="curve" smooth="yes"/>
      <point x="595" y="1355"/>
      <point x="476" y="1279"/>
      <point x="376" y="1171" type="curve" smooth="yes"/>
      <point x="327" y="1116"/>
      <point x="285" y="1057"/>
      <point x="250" y="992" type="curve" smooth="yes"/>
      <point x="179" y="860"/>
      <point x="139" y="712"/>
      <point x="139" y="551" type="curve" smooth="yes"/>
      <point x="139" y="370"/>
      <point x="204" y="226"/>
      <point x="320" y="126" type="curve" smooth="yes"/>
      <point x="436" y="25"/>
      <point x="596" y="-30"/>
    </contour>
  </outline>
</glyph>
<glyph name="D" format="2">
  <advance width="1450"/>
  <unicode hex="0044"/>
  <anchor x="499" y="727" name="bar"/>
  <anchor x="942" y="1400" name="top"/>
  <outline>
    <contour>
      <point x="572" y="0" type="line" smooth="yes"/>
      <point x="1068" y="0"/>
      <point x="1413" y="335"/>
      <point x="1413" y="816" type="curve" smooth="yes"/>
      <point x="1413" y="1205"/>
      <point x="1111" y="1400"/>
      <point x="704" y="1400" type="curve" smooth="yes"/>
      <point x="420" y="1400" type="line"/>
      <point x="45" y="0" type="line"/>
    </contour>
    <contour>
      <point x="615" y="1158" type="line"/>
      <point x="709" y="1158" type="line" smooth="yes"/>
      <point x="974" y="1158"/>
      <point x="1139" y="1017"/>
      <point x="1139" y="784" type="curve" smooth="yes"/>
      <point x="1139" y="482"/>
      <point x="933" y="242"/>
      <point x="616" y="242" type="curve" smooth="yes"/>
      <point x="370" y="242" type="line"/>
    </contour>
  </outline>
</glyph>
<glyph name="E" format="2">
  <advance width="1243"/>
  <unicode hex="0045"/>
  <outline>
    <contour>
      <point x="982" y="0" type="line"/>
      <point x="1043" y="230" type="line"/>
      <point x="365" y="230" type="line"/>
      <point x="470" y="620" type="line"/>
      <point x="1044" y="620" type="line"/>
      <point x="1101" y="833" type="line"/>
      <point x="527" y="833" type="line"/>
      <point x="618" y="1172" type="line"/>
      <point x="1289" y="1172" type="line"/>
      <point x="1350" y="1400" type="line"/>
      <point x="419" y="1400" type="line"/>
      <point x="44" y="0" type="line"/>
    </contour>
  </outline>
</glyph>
<glyph name="F" format="2">
  <advance width="1176"/>
  <unicode hex="0046"/>
  <outline>
    <contour>
      <point x="305" y="0" type="line"/>
      <point x="457" y="567" type="line"/>
      <point x="1020" y="567" type="line"/>
      <point x="1083" y="797" type="line"/>
      <point x="520" y="797" type="line"/>
      <point x="617" y="1162" type="line"/>
      <point x="1241" y="1162" type="line"/>
      <point x="1304" y="1400" type="line"/>
      <point x="420" y="1400" type="line"/>
      <point x="45" y="0" type="line"/>
    </contour>
  </outline>
</glyph>
<glyph name="G" format="2">
  <advance width="1506"/>
  <unicode hex="0047"/>
  <outline>
    <contour>
      <point x="837" y="-30" type="qcurve" smooth="yes"/>
      <point x="882" y="-30"/>
      <point x="983" y="-22"/>
      <point x="1086" y="-6"/>
      <point x="1187" y="18"/>
      <point x="1230" y="34" type="qcurve"/>
      <point x="1425" y="762" type="line"/>
      <point x="862" y="762" type="line"/>
      <point x="804" y="550" type="line"/>
      <point x="1136" y="550" type="line"/>
      <point x="1048" y="215" type="line"/>
      <point x="1015" y="208"/>
      <point x="936" y="200"/>
      <point x="892" y="200" type="qcurve" smooth="yes"/>
      <point x="784" y="200"/>
      <point x="605" y="254"/>
      <point x="478" y="359"/>
      <point x="408" y="510"/>
      <point x="408" y="606" type="qcurve" smooth="yes"/>
      <point x="408" y="729"/>
      <point x="488" y="943"/>
      <point x="636" y="1102"/>
      <point x="845" y="1193"/>
      <point x="973" y="1193" type="qcurve" smooth="yes"/>
      <point x="1083" y="1193"/>
      <point x="1275" y="1132"/>
      <point x="1351" y="1070" type="qcurve"/>
      <point x="1508" y="1261" type="line"/>
      <point x="1453" y="1309"/>
      <point x="1328" y="1374"/>
      <point x="1196" y="1413"/>
      <point x="1061" y="1430"/>
      <point x="996" y="1430" type="qcurve" smooth="yes"/>
      <point x="875" y="1430"/>
      <point x="654" y="1371"/>
      <point x="463" y="1263"/>
      <point x="308" y="1110"/>
      <point x="199" y="923"/>
      <point x="139" y="706"/>
      <point x="139" y="588" type="qcurve" smooth="yes"/>
      <point x="139" y="446"/>
      <point x="246" y="217"/>
      <point x="434" y="56"/>
      <point x="689" y="-30"/>
    </contour>
  </outline>
</glyph>
<glyph name="H" format="2">
  <advance width="1514"/>
  <unicode hex="0048"/>
  <anchor x="998" y="1400" name="top"/>
  <anchor x="322" y="1400" name="topleft"/>
  <outline>
    <contour>
      <point x="305" y="0" type="line"/>
      <point x="471" y="618" type="line"/>
      <point x="1107" y="618" type="line"/>
      <point x="941" y="0" type="line"/>
      <point x="1201" y="0" type="line"/>
      <point x="1576" y="1400" type="line"/>
      <point x="1316" y="1400" type="line"/>
      <point x="1170" y="856" type="line"/>
      <point x="534" y="856" type="line"/>
      <point x="680" y="1400" type="line"/>
      <point x="420" y="1400" type="line"/>
      <point x="45" y="0" type="line"/>
    </contour>
  </outline>
</glyph>
<glyph name="I" format="2">
  <advance width="617"/>
  <unicode hex="0049"/>
  <anchor x="175" y="-0" name="bottom"/>
  <anchor x="305" y="-0" name="ogonek"/>
  <anchor x="550" y="1400" name="top"/>
  <anchor x="322" y="1400" name="topleft"/>
  <outline>
    <contour>
      <point x="305" y="0" type="line"/>
      <point x="680" y="1400" type="line"/>
      <point x="420" y="1400" type="line"/>
      <point x="45" y="0" type="line"/>
    </contour>
  </outline>
</glyph>
<glyph name="J" format="2">
  <advance width="1025"/>
  <unicode hex="004A"/>
  <anchor x="957" y="1400" name="top"/>
  <outline>
    <contour>
      <point x="295" y="-30" type="curve" smooth="yes"/>
      <point x="566" y="-30"/>
      <point x="745" y="129"/>
      <point x="820" y="405" type="curve" smooth="yes"/>
      <point x="1087" y="1400" type="line"/>
      <point x="827" y="1400" type="line"/>
      <point x="571" y="452" type="line" smooth="yes"/>
      <point x="523" y="275"/>
      <point x="427" y="208"/>
      <point x="285" y="208" type="curve" smooth="yes"/>
      <point x="201" y="208"/>
      <point x="124" y="236"/>
      <point x="50" y="288" type="curve"/>
      <point x="-83" y="89" type="line"/>
      <point x="14" y="13"/>
      <point x="144" y="-30"/>
    </contour>
  </outline>
</glyph>
<glyph name="K" format="2">
  <advance width="1418"/>
  <unicode hex="004B"/>
  <anchor x="608" y="-0" name="bottom"/>
  <outline>
    <contour>
      <point x="304" y="0" type="line"/>
      <point x="399" y="355" type="line"/>
      <point x="638" y="568" type="line"/>
      <point x="926" y="0" type="line"/>
      <point x="1245" y="0" type="line"/>
      <point x="850" y="752" type="line"/>
      <point x="1542" y="1400" type="line"/>
      <point x="1200" y="1400" type="line"/>
      <point x="503" y="749" type="line"/>
      <point x="679" y="1400" type="line"/>
      <point x="419" y="1400" type="line"/>
      <point x="44" y="0" type="line"/>
    </contour>
  </outline>
</glyph>
<glyph name="L" format="2">
  <advance width="1084"/>
  <unicode hex="004C"/>
  <anchor x="468" y="0" name="bottom"/>
  <anchor x="646" y="1440" name="caron"/>
  <anchor x="532" y="1400" name="top"/>
  <outline>
    <contour>
      <point x="878" y="0" type="line"/>
      <point x="927" y="186" type="line"/>
      <point x="308" y="186" type="line"/>
      <point x="633" y="1400" type="line"/>
      <point x="431" y="1400" type="line"/>
      <point x="56" y="0" type="line"/>
    </contour>
  </outline>
</glyph>
<glyph name="M" format="2">
  <advance width="1846"/>
  <unicode hex="004D"/>
  <outline>
    <contour>
      <point x="282" y="0" type="line"/>
      <point x="565" y="1074" type="line"/>
      <point x="516" y="1071" type="line"/>
      <point x="773" y="289" type="line"/>
      <point x="960" y="289" type="line"/>
      <point x="1601" y="1009" type="line"/>
      <point x="1562" y="1036" type="line"/>
      <point x="1281" y="0" type="line"/>
      <point x="1534" y="0" type="line"/>
      <point x="1909" y="1400" type="line"/>
      <point x="1662" y="1400" type="line"/>
      <point x="877" y="498" type="line"/>
      <point x="973" y="473" type="line"/>
      <point x="674" y="1400" type="line"/>
      <point x="419" y="1400" type="line"/>
      <point x="44" y="0" type="line"/>
    </contour>
  </outline>
</glyph>
<glyph name="N" format="2">
  <advance width="1525"/>
  <unicode hex="004E"/>
  <anchor x="629" y="0" name="bottom"/>
  <anchor x="1004" y="1400" name="top"/>
  <outline>
    <contour>
      <point x="298" y="0" type="line"/>
      <point x="564" y="992" type="line"/>
      <point x="965" y="0" type="line"/>
      <point x="1213" y="0" type="line"/>
      <point x="1588" y="1400" type="line"/>
      <point x="1335" y="1400" type="line"/>
      <point x="1071" y="420" type="line"/>
      <point x="670" y="1400" type="line"/>
      <point x="420" y="1400" type="line"/>
      <point x="45" y="0" type="line"/>
    </contour>
  </outline>
</glyph>
<glyph name="O" format="2">
  <advance width="1675"/>
  <unicode hex="004F"/>
  <anchor x="749" y="-0" name="bottom"/>
  <anchor x="1436" y="1400" name="horn"/>
  <anchor x="989" y="-0" name="ogonek"/>
  <anchor x="1033" y="1400" name="top"/>
  <anchor x="357" y="1400" name="topleft"/>
  <outline>
    <contour>
      <point x="801" y="-30" type="curve" smooth="yes"/>
      <point x="1256" y="-30"/>
      <point x="1643" y="351"/>
      <point x="1643" y="804" type="curve" smooth="yes"/>
      <point x="1643" y="1159"/>
      <point x="1381" y="1430"/>
      <point x="979" y="1430" type="curve" smooth="yes"/>
      <point x="523" y="1430"/>
      <point x="140" y="1052"/>
      <point x="140" y="591" type="curve" smooth="yes"/>
      <point x="140" y="234"/>
      <point x="402" y="-30"/>
    </contour>
    <contour>
      <point x="831" y="215" type="curve" smooth="yes"/>
      <point x="583" y="215"/>
      <point x="415" y="372"/>
      <point x="415" y="614" type="curve" smooth="yes"/>
      <point x="415" y="924"/>
      <point x="641" y="1185"/>
      <point x="952" y="1185" type="curve" smooth="yes"/>
      <point x="1202" y="1185"/>
      <point x="1368" y="1029"/>
      <point x="1368" y="786" type="curve" smooth="yes"/>
      <point x="1368" y="476"/>
      <point x="1141" y="215"/>
    </contour>
  </outline>
</glyph>
<glyph name="P" format="2">
  <advance width="1286"/>
  <unicode hex="0050"/>
  <outline>
    <contour>
      <point x="299" y="0" type="line"/>
      <point x="438" y="518" type="line"/>
      <point x="781" y="518" type="line" smooth="yes"/>
      <point x="902" y="518"/>
      <point x="1110" y="588"/>
      <point x="1262" y="718"/>
      <point x="1348" y="905"/>
      <point x="1348" y="1022" type="qcurve" smooth="yes"/>
      <point x="1348" y="1109"/>
      <point x="1281" y="1249"/>
      <point x="1154" y="1347"/>
      <point x="972" y="1400"/>
      <point x="856" y="1400" type="qcurve" smooth="yes"/>
      <point x="414" y="1400" type="line"/>
      <point x="39" y="0" type="line"/>
    </contour>
    <contour>
      <point x="614" y="1174" type="line"/>
      <point x="820" y="1174" type="line" smooth="yes"/>
      <point x="883" y="1174"/>
      <point x="981" y="1152"/>
      <point x="1048" y="1106"/>
      <point x="1083" y="1035"/>
      <point x="1083" y="987" type="qcurve" smooth="yes"/>
      <point x="1083" y="932"/>
      <point x="1044" y="841"/>
      <point x="973" y="775"/>
      <point x="872" y="739"/>
      <point x="809" y="739" type="qcurve" smooth="yes"/>
      <point x="496" y="739" type="line"/>
    </contour>
  </outline>
</glyph>
<glyph name="Q" format="2">
  <advance width="1659"/>
  <unicode hex="0051"/>
  <anchor x="749" y="0" name="bottom"/>
  <anchor x="1436" y="1400" name="horn"/>
  <anchor x="996" y="0" name="ogonek"/>
  <anchor x="1033" y="1400" name="top"/>
  <anchor x="351" y="1400" name="topleft"/>
  <outline>
    <contour>
      <point x="805" y="-30" type="curve" smooth="yes"/>
      <point x="405" y="-30"/>
      <point x="143" y="234"/>
      <point x="143" y="591" type="curve" smooth="yes"/>
      <point x="143" y="1052"/>
      <point x="527" y="1430"/>
      <point x="982" y="1430" type="curve" smooth="yes"/>
      <point x="1384" y="1430"/>
      <point x="1646" y="1159"/>
      <point x="1646" y="804" type="curve" smooth="yes"/>
      <point x="1646" y="351"/>
      <point x="1260" y="-30"/>
    </contour>
    <contour>
      <point x="834" y="215" type="curve" smooth="yes"/>
      <point x="1145" y="215"/>
      <point x="1372" y="476"/>
      <point x="1372" y="786" type="curve" smooth="yes"/>
      <point x="1372" y="1029"/>
      <point x="1206" y="1185"/>
      <point x="956" y="1185" type="curve" smooth="yes"/>
      <point x="645" y="1185"/>
      <point x="418" y="924"/>
      <point x="418" y="614" type="curve" smooth="yes"/>
      <point x="418" y="372"/>
      <point x="587" y="215"/>
    </contour>
    <contour>
      <point x="1286" y="-110" type="line"/>
      <point x="832" y="570" type="line"/>
      <point x="1020" y="645" type="line"/>
      <point x="1489" y="-30" type="line"/>
    </contour>
  </outline>
</glyph>
<glyph name="R" format="2">
  <advance width="1347"/>
  <unicode hex="0052"/>
  <outline>
    <contour>
      <point x="304" y="0" type="line"/>
      <point x="451" y="548" type="line"/>
      <point x="619" y="548" type="line"/>
      <point x="848" y="0" type="line"/>
      <point x="1147" y="0" type="line"/>
      <point x="890" y="580" type="line"/>
      <point x="988" y="595"/>
      <point x="1155" y="674"/>
      <point x="1278" y="793"/>
      <point x="1347" y="950"/>
      <point x="1347" y="1043" type="qcurve" smooth="yes"/>
      <point x="1347" y="1124"/>
      <point x="1286" y="1256"/>
      <point x="1168" y="1350"/>
      <point x="995" y="1400"/>
      <point x="882" y="1400" type="qcurve" smooth="yes"/>
      <point x="419" y="1400" type="line"/>
      <point x="44" y="0" type="line"/>
    </contour>
    <contour>
      <point x="622" y="1182" type="line"/>
      <point x="827" y="1182" type="line" smooth="yes"/>
      <point x="891" y="1182"/>
      <point x="986" y="1160"/>
      <point x="1049" y="1116"/>
      <point x="1080" y="1050"/>
      <point x="1080" y="1007" type="qcurve" smooth="yes"/>
      <point x="1080" y="951"/>
      <point x="1040" y="859"/>
      <point x="968" y="796"/>
      <point x="867" y="761"/>
      <point x="808" y="761" type="qcurve" smooth="yes"/>
      <point x="508" y="761" type="line"/>
    </contour>
  </outline>
</glyph>
<glyph name="S" format="2">
  <advance width="1266"/>
  <unicode hex="0053"/>
  <outline>
    <contour>
      <point x="580" y="-30" type="qcurve" smooth="yes"/>
      <point x="696" y="-30"/>
      <point x="901" y="36"/>
      <point x="1055" y="160"/>
      <point x="1146" y="337"/>
      <point x="1146" y="448" type="qcurve" smooth="yes"/>
      <point x="1146" y="560"/>
      <point x="1000" y="720"/>
      <point x="851" y="782" type="qcurve"/>
      <point x="722" y="833" type="line"/>
      <point x="667" y="856"/>
      <point x="591" y="898"/>
      <point x="544" y="940"/>
      <point x="524" y="985"/>
      <point x="524" y="1011" type="qcurve" smooth="yes"/>
      <point x="524" y="1056"/>
      <point x="564" y="1130"/>
      <point x="636" y="1182"/>
      <point x="734" y="1210"/>
      <point x="792" y="1210" type="qcurve" smooth="yes"/>
      <point x="845" y="1210"/>
      <point x="948" y="1190"/>
      <point x="1042" y="1152"/>
      <point x="1120" y="1100"/>
      <point x="1148" y="1067" type="qcurve"/>
      <point x="1319" y="1245" type="line"/>
      <point x="1282" y="1287"/>
      <point x="1179" y="1355"/>
      <point x="1052" y="1404"/>
      <point x="904" y="1431"/>
      <point x="823" y="1431" type="qcurve" smooth="yes"/>
      <point x="713" y="1431"/>
      <point x="512" y="1364"/>
      <point x="359" y="1241"/>
      <point x="269" y="1067"/>
      <point x="269" y="959" type="qcurve" smooth="yes"/>
      <point x="269" y="852"/>
      <point x="411" y="684"/>
      <point x="564" y="623" type="qcurve" smooth="yes"/>
      <point x="683" y="576" type="line" smooth="yes"/>
      <point x="739" y="554"/>
      <point x="816" y="509"/>
      <point x="864" y="464"/>
      <point x="886" y="415"/>
      <point x="886" y="388" type="qcurve" smooth="yes"/>
      <point x="886" y="341"/>
      <point x="844" y="268"/>
      <point x="771" y="218"/>
      <point x="670" y="192"/>
      <point x="610" y="192" type="qcurve" smooth="yes"/>
      <point x="551" y="192"/>
      <point x="432" y="215"/>
      <point x="323" y="256"/>
      <point x="231" y="315"/>
      <point x="197" y="350" type="qcurve"/>
      <point x="29" y="167" type="line"/>
      <point x="73" y="121"/>
      <point x="196" y="48"/>
      <point x="339" y="-3"/>
      <point x="498" y="-30"/>
    </contour>
  </outline>
</glyph>
<glyph name="T" format="2">
  <advance width="1137"/>
  <unicode hex="0054"/>
  <anchor x="618" y="683" name="bar"/>
  <anchor x="434" y="-0" name="bottom"/>
  <anchor x="809" y="1400" name="top"/>
  <outline>
    <contour>
      <point x="565" y="0" type="line"/>
      <point x="877" y="1162" type="line"/>
      <point x="1264" y="1162" type="line"/>
      <point x="1327" y="1400" type="line"/>
      <point x="292" y="1400" type="line"/>
      <point x="229" y="1162" type="line"/>
      <point x="616" y="1162" type="line"/>
      <point x="304" y="0" type="line"/>
    </contour>
  </outline>
</glyph>
<glyph name="U" format="2">
  <advance width="1493"/>
  <unicode hex="0055"/>
  <outline>
    <contour>
      <point x="669" y="-30" type="curve" smooth="yes"/>
      <point x="842" y="-30"/>
      <point x="987" y="28"/>
      <point x="1100" y="130" type="curve" smooth="yes"/>
      <point x="1212" y="232"/>
      <point x="1292" y="379"/>
      <point x="1339" y="556" type="curve" smooth="yes"/>
      <point x="1566" y="1400" type="line"/>
      <point x="1305" y="1400" type="line"/>
      <point x="1077" y="553" type="line" smooth="yes"/>
      <point x="1045" y="434"/>
      <point x="994" y="350"/>
      <point x="929" y="295" type="curve" smooth="yes"/>
      <point x="864" y="240"/>
      <point x="784" y="215"/>
      <point x="695" y="215" type="curve" smooth="yes"/>
      <point x="582" y="215"/>
      <point x="505" y="247"/>
      <point x="463" y="305" type="curve" smooth="yes"/>
      <point x="421" y="363"/>
      <point x="415" y="446"/>
      <point x="444" y="553" type="curve" smooth="yes"/>
      <point x="672" y="1400" type="line"/>
      <point x="412" y="1400" type="line"/>
      <point x="185" y="556" type="line" smooth="yes"/>
      <point x="137" y="376"/>
      <point x="165" y="229"/>
      <point x="251" y="128" type="curve" smooth="yes"/>
      <point x="337" y="27"/>
      <point x="481" y="-30"/>
    </contour>
  </outline>
</glyph>
<glyph name="V" format="2">
  <advance width="1347"/>
  <unicode hex="0056"/>
  <outline>
    <contour>
      <point x="680" y="0" type="line"/>
      <point x="1585" y="1400" type="line"/>
      <point x="1281" y="1400" type="line"/>
      <point x="625" y="349" type="line"/>
      <point x="533" y="1400" type="line"/>
      <point x="247" y="1400" type="line"/>
      <point x="396" y="0" type="line"/>
    </contour>
  </outline>
</glyph>
<glyph name="W" format="2">
  <advance width="2047"/>
  <unicode hex="0057"/>
  <anchor x="1265" y="1400" name="top"/>
  <outline>
    <contour>
      <point x="593" y="0" type="line"/>
      <point x="1165" y="1003" type="line"/>
      <point x="1186" y="0" type="line"/>
      <point x="1454" y="0" type="line"/>
      <point x="2249" y="1400" type="line"/>
      <point x="1971" y="1400" type="line"/>
      <point x="1420" y="386" type="line"/>
      <point x="1401" y="1400" type="line"/>
      <point x="1134" y="1400" type="line"/>
      <point x="555" y="377" type="line"/>
      <point x="550" y="1400" type="line"/>
      <point x="284" y="1400" type="line"/>
      <point x="328" y="0" type="line"/>
    </contour>
  </outline>
</glyph>
<glyph name="X" format="2">
  <advance width="1359"/>
  <unicode hex="0058"/>
  <outline>
    <contour>
      <point x="236" y="0" type="line"/>
      <point x="685" y="521" type="line"/>
      <point x="879" y="0" type="line"/>
      <point x="1179" y="0" type="line"/>
      <point x="914" y="695" type="line"/>
      <point x="1547" y="1400" type="line"/>
      <point x="1226" y="1400" type="line"/>
      <point x="784" y="913" type="line"/>
      <point x="610" y="1400" type="line"/>
      <point x="313" y="1400" type="line"/>
      <point x="555" y="734" type="line"/>
      <point x="-90" y="0" type="line"/>
    </contour>
  </outline>
</glyph>
<glyph name="Y" format="2">
  <advance width="1261"/>
  <unicode hex="0059"/>
  <anchor x="491" y="0" name="bottom"/>
  <anchor x="865" y="1400" name="top"/>
  <anchor x="204" y="1400" name="topleft"/>
  <outline>
    <contour>
      <point x="621" y="0" type="line"/>
      <point x="781" y="594" type="line"/>
      <point x="1494" y="1400" type="line"/>
      <point x="1188" y="1400" type="line"/>
      <point x="710" y="854" type="line"/>
      <point x="530" y="1400" type="line"/>
      <point x="251" y="1400" type="line"/>
      <point x="520" y="598" type="line"/>
      <point x="360" y="0" type="line"/>
    </contour>
  </outline>
</glyph>
<glyph name="Z" format="2">
  <advance width="1173"/>
  <unicode hex="005A"/>
  <anchor x="834" y="1400" name="top"/>
  <outline>
    <contour>
      <point x="960" y="0" type="line"/>
      <point x="1023" y="238" type="line"/>
      <point x="348" y="238" type="line"/>
      <point x="1272" y="1179" type="line"/>
      <point x="1329" y="1400" type="line"/>
      <point x="353" y="1400" type="line"/>
      <point x="289" y="1162" type="line"/>
      <point x="937" y="1162" type="line"/>
      <point x="12" y="221" type="line"/>
      <point x="-46" y="0" type="line"/>
    </contour>
  </outline>
</glyph>
<glyph name="bracketleft" format="2">
  <advance width="712"/>
  <unicode hex="005B"/>
  <outline>
    <contour>
      <point x="400" y="-220" type="line"/>
      <point x="449" y="-39" type="line"/>
      <point x="245" y="-39" type="line"/>
      <point x="637" y="1419" type="line"/>
      <point x="841" y="1419" type="line"/>
      <point x="891" y="1600" type="line"/>
      <point x="479" y="1600" type="line"/>
      <point x="-13" y="-220" type="line"/>
    </contour>
  </outline>
</glyph>
<glyph name="backslash" format="2">
  <advance width="960"/>
  <unicode hex="005C"/>
  <outline>
    <contour>
      <point x="782" y="-195" type="line"/>
      <point x="520" y="1610" type="line"/>
      <point x="285" y="1578" type="line"/>
      <point x="547" y="-230" type="line"/>
    </contour>
  </outline>
</glyph>
<glyph name="bracketright" format="2">
  <advance width="699"/>
  <unicode hex="005D"/>
  <outline>
    <contour>
      <point x="820" y="1600" type="line"/>
      <point x="408" y="1600" type="line"/>
      <point x="359" y="1419" type="line"/>
      <point x="563" y="1419" type="line"/>
      <point x="170" y="-39" type="line"/>
      <point x="-34" y="-39" type="line"/>
      <point x="-81" y="-220" type="line"/>
      <point x="331" y="-220" type="line"/>
    </contour>
  </outline>
</glyph>
<glyph name="asciicircum" format="2">
  <advance width="1296"/>
  <unicode hex="005E"/>
  <outline>
    <contour>
      <point x="482" y="830" type="line"/>
      <point x="862" y="1253" type="line"/>
      <point x="1015" y="830" type="line"/>
      <point x="1195" y="830" type="line"/>
      <point x="990" y="1400" type="line"/>
      <point x="795" y="1400" type="line"/>
      <point x="284" y="830" type="line"/>
    </contour>
  </outline>
</glyph>
<glyph name="underscore" format="2">
  <advance width="1100"/>
  <unicode hex="005F"/>
  <outline>
    <contour>
      <point x="847" y="-345" type="line"/>
      <point x="903" y="-141" type="line"/>
      <point x="-148" y="-141" type="line"/>
      <point x="-203" y="-345" type="line"/>
    </contour>
  </outline>
</glyph>
<glyph name="a" format="2">
  <advance width="1131"/>
  <unicode hex="0061"/>
  <anchor x="407" y="-0" name="bottom"/>
  <anchor x="864" y="-0" name="ogonek"/>
  <anchor x="672" y="1000" name="top"/>
  <outline>
    <contour>
      <point x="334" y="-29" type="curve" smooth="yes"/>
      <point x="463" y="-29"/>
      <point x="590" y="16"/>
      <point x="665" y="114" type="curve"/>
      <point x="636" y="0" type="line"/>
      <point x="864" y="0" type="line"/>
      <point x="1020" y="572" type="line"/>
      <point x="1096" y="860"/>
      <point x="944" y="1040"/>
      <point x="626" y="1040" type="curve" smooth="yes"/>
      <point x="480" y="1040"/>
      <point x="351" y="1007"/>
      <point x="241" y="936" type="curve"/>
      <point x="271" y="749" type="line"/>
      <point x="350" y="804"/>
      <point x="467" y="838"/>
      <point x="560" y="838" type="curve" smooth="yes"/>
      <point x="721" y="838"/>
      <point x="823" y="774"/>
      <point x="780" y="604" type="curve"/>
      <point x="716" y="376" type="line" smooth="yes"/>
      <point x="683" y="258"/>
      <point x="569" y="164"/>
      <point x="419" y="164" type="curve" smooth="yes"/>
      <point x="324" y="164"/>
      <point x="260" y="208"/>
      <point x="260" y="285" type="curve" smooth="yes"/>
      <point x="260" y="458"/>
      <point x="547" y="473"/>
      <point x="782" y="442" type="curve"/>
      <point x="825" y="599" type="line"/>
      <point x="386" y="651"/>
      <point x="17" y="563"/>
      <point x="17" y="256" type="curve" smooth="yes"/>
      <point x="17" y="81"/>
      <point x="138" y="-29"/>
    </contour>
  </outline>
</glyph>
<glyph name="b" format="2">
  <advance width="1309"/>
  <unicode hex="0062"/>
  <outline>
    <contour>
      <point x="672" y="-30" type="qcurve" smooth="yes"/>
      <point x="796" y="-30"/>
      <point x="1007" y="72"/>
      <point x="1162" y="243"/>
      <point x="1249" y="468"/>
      <point x="1249" y="591" type="qcurve" smooth="yes"/>
      <point x="1249" y="685"/>
      <point x="1188" y="846"/>
      <point x="1073" y="963"/>
      <point x="907" y="1030"/>
      <point x="803" y="1030" type="qcurve" smooth="yes"/>
      <point x="744" y="1030"/>
      <point x="644" y="1006"/>
      <point x="554" y="961"/>
      <point x="473" y="897"/>
      <point x="433" y="856" type="qcurve"/>
      <point x="473" y="771" type="line"/>
      <point x="652" y="1440" type="line"/>
      <point x="397" y="1440" type="line"/>
      <point x="10" y="0" type="line"/>
      <point x="236" y="0" type="line"/>
      <point x="305" y="253" type="line"/>
      <point x="254" y="230" type="line"/>
      <point x="270" y="173"/>
      <point x="344" y="78"/>
      <point x="452" y="9"/>
      <point x="591" y="-30"/>
    </contour>
    <contour>
      <point x="656" y="196" type="qcurve" smooth="yes"/>
      <point x="596" y="196"/>
      <point x="500" y="230"/>
      <point x="431" y="295"/>
      <point x="394" y="388"/>
      <point x="394" y="446" type="qcurve" smooth="yes"/>
      <point x="394" y="516"/>
      <point x="441" y="647"/>
      <point x="530" y="747"/>
      <point x="655" y="806"/>
      <point x="733" y="806" type="qcurve" smooth="yes"/>
      <point x="791" y="806"/>
      <point x="887" y="772"/>
      <point x="955" y="709"/>
      <point x="992" y="620"/>
      <point x="992" y="565" type="qcurve" smooth="yes"/>
      <point x="992" y="493"/>
      <point x="944" y="360"/>
      <point x="856" y="257"/>
      <point x="732" y="196"/>
    </contour>
  </outline>
</glyph>
<glyph name="c" format="2">
  <advance width="1048"/>
  <unicode hex="0063"/>
  <outline>
    <contour>
      <point x="543" y="-30" type="qcurve" smooth="yes"/>
      <point x="635" y="-30"/>
      <point x="819" y="22"/>
      <point x="903" y="70" type="qcurve"/>
      <point x="835" y="276" type="line"/>
      <point x="782" y="237"/>
      <point x="657" y="194"/>
      <point x="592" y="194" type="qcurve" smooth="yes"/>
      <point x="524" y="194"/>
      <point x="419" y="229"/>
      <point x="347" y="294"/>
      <point x="309" y="388"/>
      <point x="309" y="447" type="qcurve" smooth="yes"/>
      <point x="309" y="521"/>
      <point x="357" y="652"/>
      <point x="447" y="749"/>
      <point x="576" y="806"/>
      <point x="658" y="806" type="qcurve" smooth="yes"/>
      <point x="736" y="806"/>
      <point x="864" y="759"/>
      <point x="908" y="707" type="qcurve"/>
      <point x="1069" y="887" type="line"/>
      <point x="996" y="959"/>
      <point x="804" y="1030"/>
      <point x="686" y="1030" type="qcurve" smooth="yes"/>
      <point x="556" y="1030"/>
      <point x="324" y="937"/>
      <point x="150" y="773"/>
      <point x="49" y="550"/>
      <point x="49" y="422" type="qcurve" smooth="yes"/>
      <point x="49" y="324"/>
      <point x="119" y="159"/>
      <point x="248" y="38"/>
      <point x="430" y="-30"/>
    </contour>
  </outline>
</glyph>
<glyph name="d" format="2">
  <advance width="1309"/>
  <unicode hex="0064"/>
  <outline>
    <contour>
      <point x="507" y="-30" type="curve" smooth="yes"/>
      <point x="595" y="-30"/>
      <point x="669" y="-10"/>
      <point x="732" y="25" type="curve" smooth="yes"/>
      <point x="795" y="59"/>
      <point x="845" y="108"/>
      <point x="889" y="167" type="curve"/>
      <point x="870" y="247" type="line"/>
      <point x="803" y="0" type="line"/>
      <point x="1029" y="0" type="line"/>
      <point x="1417" y="1440" type="line"/>
      <point x="1162" y="1440" type="line"/>
      <point x="984" y="775" type="line"/>
      <point x="1052" y="806" type="line"/>
      <point x="1017" y="877"/>
      <point x="964" y="932"/>
      <point x="894" y="971" type="curve" smooth="yes"/>
      <point x="824" y="1010"/>
      <point x="739" y="1030"/>
      <point x="642" y="1030" type="curve" smooth="yes"/>
      <point x="479" y="1030"/>
      <point x="332" y="958"/>
      <point x="228" y="843" type="curve" smooth="yes"/>
      <point x="123" y="728"/>
      <point x="58" y="572"/>
      <point x="58" y="405" type="curve" smooth="yes"/>
      <point x="58" y="274"/>
      <point x="103" y="165"/>
      <point x="182" y="89" type="curve" smooth="yes"/>
      <point x="261" y="13"/>
      <point x="372" y="-30"/>
    </contour>
    <contour>
      <point x="575" y="194" type="curve" smooth="yes"/>
      <point x="498" y="194"/>
      <point x="432" y="218"/>
      <point x="387" y="262" type="curve" smooth="yes"/>
      <point x="342" y="305"/>
      <point x="316" y="366"/>
      <point x="316" y="441" type="curve" smooth="yes"/>
      <point x="316" y="540"/>
      <point x="350" y="630"/>
      <point x="410" y="697" type="curve" smooth="yes"/>
      <point x="469" y="764"/>
      <point x="553" y="806"/>
      <point x="653" y="806" type="curve" smooth="yes"/>
      <point x="732" y="806"/>
      <point x="798" y="782"/>
      <point x="844" y="739" type="curve" smooth="yes"/>
      <point x="890" y="696"/>
      <point x="915" y="633"/>
      <point x="915" y="557" type="curve" smooth="yes"/>
      <point x="915" y="460"/>
      <point x="881" y="369"/>
      <point x="821" y="303" type="curve" smooth="yes"/>
      <point x="761" y="237"/>
      <point x="676" y="194"/>
    </contour>
  </outline>
</glyph>
<glyph name="e" format="2">
  <advance width="1162"/>
  <unicode hex="0065"/>
  <anchor x="478" y="0" name="bottom"/>
  <anchor x="856" y="0" name="ogonek"/>
  <anchor x="698" y="1000" name="top"/>
  <outline>
    <contour>
      <point x="555" y="-30" type="curve" smooth="yes"/>
      <point x="680" y="-30"/>
      <point x="829" y="2"/>
      <point x="932" y="58" type="curve"/>
      <point x="885" y="249" type="line"/>
      <point x="794" y="198"/>
      <point x="695" y="174"/>
      <point x="597" y="174" type="curve" smooth="yes"/>
      <point x="415" y="174"/>
      <point x="273" y="262"/>
      <point x="295" y="438" type="curve"/>
      <point x="1086" y="438" type="line"/>
      <point x="1192" y="759"/>
      <point x="1016" y="1030"/>
      <point x="662" y="1030" type="curve" smooth="yes"/>
      <point x="321" y="1030"/>
      <point x="58" y="758"/>
      <point x="58" y="415" type="curve" smooth="yes"/>
      <point x="58" y="152"/>
      <point x="249" y="-30"/>
    </contour>
    <contour>
      <point x="348" y="620" type="line"/>
      <point x="379" y="757"/>
      <point x="491" y="836"/>
      <point x="637" y="836" type="curve" smooth="yes"/>
      <point x="787" y="836"/>
      <point x="881" y="772"/>
      <point x="871" y="620" type="curve"/>
    </contour>
  </outline>
</glyph>
<glyph name="f" format="2">
  <advance width="799"/>
  <unicode hex="0066"/>
  <outline>
    <contour>
      <point x="363" y="0" type="line"/>
      <point x="576" y="792" type="line"/>
      <point x="832" y="792" type="line"/>
      <point x="887" y="1000" type="line"/>
      <point x="631" y="1000" type="line"/>
      <point x="666" y="1127" type="line" smooth="yes"/>
      <point x="678" y="1172"/>
      <point x="697" y="1205"/>
      <point x="723" y="1224" type="curve" smooth="yes"/>
      <point x="748" y="1243"/>
      <point x="778" y="1253"/>
      <point x="812" y="1253" type="curve" smooth="yes"/>
      <point x="849" y="1253"/>
      <point x="890" y="1246"/>
      <point x="929" y="1221" type="curve"/>
      <point x="1021" y="1410" type="line"/>
      <point x="961" y="1451"/>
      <point x="888" y="1470"/>
      <point x="799" y="1470" type="curve" smooth="yes"/>
      <point x="603" y="1470"/>
      <point x="471" y="1354"/>
      <point x="414" y="1139" type="curve" smooth="yes"/>
      <point x="108" y="0" type="line"/>
    </contour>
    <contour>
      <point x="350" y="792" type="line"/>
      <point x="403" y="1000" type="line"/>
      <point x="182" y="1000" type="line"/>
      <point x="129" y="792" type="line"/>
    </contour>
  </outline>
</glyph>
<glyph name="g" format="2">
  <advance width="1209"/>
  <unicode hex="0067"/>
  <anchor x="657" y="1000" name="top"/>
  <outline>
    <contour>
      <point x="414" y="-450" type="curve" smooth="yes"/>
      <point x="684" y="-450"/>
      <point x="961" y="-348"/>
      <point x="961" y="-114" type="curve" smooth="yes"/>
      <point x="961" y="7"/>
      <point x="849" y="97"/>
      <point x="621" y="145" type="curve" smooth="yes"/>
      <point x="454" y="182" type="line" smooth="yes"/>
      <point x="375" y="199"/>
      <point x="334" y="217"/>
      <point x="334" y="252" type="curve" smooth="yes"/>
      <point x="334" y="312"/>
      <point x="426" y="334"/>
      <point x="539" y="329" type="curve"/>
      <point x="514" y="434" type="line"/>
      <point x="305" y="436"/>
      <point x="103" y="363"/>
      <point x="103" y="213" type="curve" smooth="yes"/>
      <point x="103" y="158"/>
      <point x="132" y="115"/>
      <point x="183" y="80" type="curve"/>
      <point x="18" y="67"/>
      <point x="-121" y="-20"/>
      <point x="-121" y="-156" type="curve" smooth="yes"/>
      <point x="-121" y="-369"/>
      <point x="177" y="-450"/>
    </contour>
    <contour>
      <point x="439" y="-285" type="curve" smooth="yes"/>
      <point x="308" y="-285"/>
      <point x="120" y="-240"/>
      <point x="120" y="-123" type="curve" smooth="yes"/>
      <point x="120" y="-37"/>
      <point x="229" y="4"/>
      <point x="345" y="-4" type="curve"/>
      <point x="529" y="-42" type="line" smooth="yes"/>
      <point x="641" y="-65"/>
      <point x="708" y="-98"/>
      <point x="708" y="-155" type="curve" smooth="yes"/>
      <point x="708" y="-240"/>
      <point x="594" y="-285"/>
    </contour>
    <contour>
      <point x="579" y="315" type="curve" smooth="yes"/>
      <point x="833" y="315"/>
      <point x="1055" y="483"/>
      <point x="1055" y="700" type="curve" smooth="yes"/>
      <point x="1055" y="887"/>
      <point x="884" y="1030"/>
      <point x="630" y="1030" type="curve" smooth="yes"/>
      <point x="377" y="1030"/>
      <point x="156" y="866"/>
      <point x="156" y="643" type="curve" smooth="yes"/>
      <point x="156" y="457"/>
      <point x="328" y="315"/>
    </contour>
    <contour>
      <point x="595" y="499" type="curve" smooth="yes"/>
      <point x="469" y="499"/>
      <point x="385" y="561"/>
      <point x="385" y="656" type="curve" smooth="yes"/>
      <point x="385" y="757"/>
      <point x="483" y="847"/>
      <point x="617" y="847" type="curve" smooth="yes"/>
      <point x="741" y="847"/>
      <point x="825" y="785"/>
      <point x="825" y="695" type="curve" smooth="yes"/>
      <point x="825" y="591"/>
      <point x="730" y="499"/>
    </contour>
    <contour>
      <point x="1256" y="792" type="line"/>
      <point x="1311" y="1000" type="line"/>
      <point x="753" y="975" type="line"/>
      <point x="798" y="802" type="line"/>
    </contour>
  </outline>
</glyph>
<glyph name="h" format="2">
  <advance width="1260"/>
  <unicode hex="0068"/>
  <outline>
    <contour>
      <point x="270" y="0" type="line"/>
      <point x="419" y="552" type="line" smooth="yes"/>
      <point x="435" y="613"/>
      <point x="492" y="704"/>
      <point x="567" y="765"/>
      <point x="655" y="796"/>
      <point x="704" y="796" type="qcurve" smooth="yes"/>
      <point x="758" y="796"/>
      <point x="839" y="766"/>
      <point x="887" y="708"/>
      <point x="899" y="625"/>
      <point x="885" y="573" type="qcurve" smooth="yes"/>
      <point x="730" y="0" type="line"/>
      <point x="986" y="0" type="line"/>
      <point x="1160" y="646" type="line"/>
      <point x="1181" y="732"/>
      <point x="1147" y="874"/>
      <point x="1057" y="975"/>
      <point x="921" y="1030"/>
      <point x="840" y="1030" type="qcurve" smooth="yes"/>
      <point x="742" y="1030"/>
      <point x="559" y="950"/>
      <point x="481" y="872" type="qcurve"/>
      <point x="484" y="789" type="line"/>
      <point x="660" y="1440" type="line"/>
      <point x="404" y="1440" type="line"/>
      <point x="14" y="0" type="line"/>
    </contour>
  </outline>
</glyph>
<glyph name="k" format="2">
  <advance width="1149"/>
  <unicode hex="006B"/>
  <anchor x="479" y="0" name="bottom"/>
  <outline>
    <contour>
      <point x="270" y="0" type="line"/>
      <point x="354" y="312" type="line"/>
      <point x="515" y="443" type="line"/>
      <point x="687" y="0" type="line"/>
      <point x="979" y="0" type="line"/>
      <point x="737" y="600" type="line"/>
      <point x="1199" y="1000" type="line"/>
      <point x="882" y="1000" type="line"/>
      <point x="442" y="637" type="line"/>
      <point x="660" y="1440" type="line"/>
      <point x="404" y="1440" type="line"/>
      <point x="14" y="0" type="line"/>
    </contour>
  </outline>
</glyph>
<glyph name="l" format="2">
  <advance width="678"/>
  <unicode hex="006C"/>
  <outline>
    <contour>
      <point x="340" y="-31" type="qcurve" smooth="yes"/>
      <point x="255" y="-31"/>
      <point x="144" y="25"/>
      <point x="87" y="115"/>
      <point x="79" y="225"/>
      <point x="96" y="280" type="qcurve"/>
      <point x="410" y="1440" type="line"/>
      <point x="666" y="1440" type="line"/>
      <point x="367" y="335" type="line" smooth="yes"/>
      <point x="359" y="304"/>
      <point x="355" y="252"/>
      <point x="371" y="213"/>
      <point x="406" y="192"/>
      <point x="435" y="192" type="qcurve" smooth="yes"/>
      <point x="455" y="192"/>
      <point x="500" y="200"/>
      <point x="527" y="207" type="qcurve"/>
      <point x="525" y="0" type="line"/>
      <point x="471" y="-18"/>
      <point x="375" y="-31"/>
    </contour>
  </outline>
</glyph>
<glyph name="m" format="2">
  <advance width="1922"/>
  <unicode hex="006D"/>
  <outline>
    <contour>
      <point x="270" y="0" type="line"/>
      <point x="425" y="578" type="line" smooth="yes"/>
      <point x="439" y="631"/>
      <point x="494" y="712"/>
      <point x="567" y="767"/>
      <point x="655" y="796"/>
      <point x="701" y="796" type="qcurve" smooth="yes"/>
      <point x="752" y="796"/>
      <point x="824" y="768"/>
      <point x="865" y="713"/>
      <point x="872" y="633"/>
      <point x="858" y="580" type="qcurve" smooth="yes"/>
      <point x="703" y="0" type="line"/>
      <point x="959" y="0" type="line"/>
      <point x="1114" y="578" type="line" smooth="yes"/>
      <point x="1128" y="631"/>
      <point x="1183" y="712"/>
      <point x="1256" y="767"/>
      <point x="1344" y="796"/>
      <point x="1390" y="796" type="qcurve" smooth="yes"/>
      <point x="1441" y="796"/>
      <point x="1513" y="768"/>
      <point x="1554" y="713"/>
      <point x="1561" y="633"/>
      <point x="1547" y="580" type="qcurve" smooth="yes"/>
      <point x="1392" y="0" type="line"/>
      <point x="1648" y="0" type="line"/>
      <point x="1824" y="654" type="line"/>
      <point x="1846" y="745"/>
      <point x="1821" y="886"/>
      <point x="1742" y="981"/>
      <point x="1615" y="1030"/>
      <point x="1534" y="1030" type="qcurve" smooth="yes"/>
      <point x="1478" y="1030"/>
      <point x="1367" y="1005"/>
      <point x="1264" y="951"/>
      <point x="1169" y="871"/>
      <point x="1128" y="816" type="qcurve"/>
      <point x="1126" y="861"/>
      <point x="1090" y="939"/>
      <point x="1022" y="997"/>
      <point x="924" y="1030"/>
      <point x="860" y="1030" type="qcurve" smooth="yes"/>
      <point x="808" y="1030"/>
      <point x="704" y="1002"/>
      <point x="608" y="949"/>
      <point x="526" y="872"/>
      <point x="495" y="823" type="qcurve"/>
      <point x="539" y="1000" type="line"/>
      <point x="283" y="1000" type="line"/>
      <point x="14" y="0" type="line"/>
    </contour>
  </outline>
</glyph>
<glyph name="n" format="2">
  <advance width="1260"/>
  <unicode hex="006E"/>
  <outline>
    <contour>
      <point x="270" y="0" type="line"/>
      <point x="419" y="553" type="line"/>
      <point x="434" y="613"/>
      <point x="491" y="704"/>
      <point x="568" y="765"/>
      <point x="661" y="796"/>
      <point x="712" y="796" type="qcurve" smooth="yes"/>
      <point x="763" y="796"/>
      <point x="841" y="768"/>
      <point x="887" y="712"/>
      <point x="899" y="629"/>
      <point x="884" y="574" type="qcurve" smooth="yes"/>
      <point x="730" y="0" type="line"/>
      <point x="986" y="0" type="line"/>
      <point x="1162" y="654" type="line"/>
      <point x="1183" y="740"/>
      <point x="1148" y="879"/>
      <point x="1059" y="977"/>
      <point x="925" y="1030"/>
      <point x="847" y="1030" type="qcurve" smooth="yes"/>
      <point x="756" y="1030"/>
      <point x="577" y="950"/>
      <point x="503" y="863" type="qcurve"/>
      <point x="539" y="1000" type="line"/>
      <point x="283" y="1000" type="line"/>
      <point x="14" y="0" type="line"/>
    </contour>
  </outline>
</glyph>
<glyph name="o" format="2">
  <advance width="1232"/>
  <unicode hex="006F"/>
  <anchor x="515" y="-0" name="bottom"/>
  <anchor x="1111" y="1000" name="horn"/>
  <anchor x="760" y="-0" name="ogonek"/>
  <anchor x="717" y="1000" name="top"/>
  <outline>
    <contour>
      <point x="550" y="-30" type="curve" smooth="yes"/>
      <point x="877" y="-30"/>
      <point x="1172" y="244"/>
      <point x="1172" y="573" type="curve" smooth="yes"/>
      <point x="1172" y="824"/>
      <point x="984" y="1030"/>
      <point x="682" y="1030" type="curve" smooth="yes"/>
      <point x="356" y="1030"/>
      <point x="60" y="757"/>
      <point x="60" y="429" type="curve" smooth="yes"/>
      <point x="60" y="175"/>
      <point x="247" y="-30"/>
    </contour>
    <contour>
      <point x="578" y="194" type="curve" smooth="yes"/>
      <point x="419" y="194"/>
      <point x="317" y="291"/>
      <point x="317" y="443" type="curve" smooth="yes"/>
      <point x="317" y="633"/>
      <point x="450" y="806"/>
      <point x="654" y="806" type="curve" smooth="yes"/>
      <point x="813" y="806"/>
      <point x="915" y="711"/>
      <point x="915" y="559" type="curve" smooth="yes"/>
      <point x="915" y="369"/>
      <point x="784" y="194"/>
    </contour>
  </outline>
</glyph>
<glyph name="p" format="2">
  <advance width="1294"/>
  <unicode hex="0070"/>
  <outline>
    <contour>
      <point x="110" y="-420" type="line"/>
      <point x="266" y="160" type="line"/>
      <point x="336" y="47"/>
      <point x="468" y="-30"/>
      <point x="652" y="-30" type="curve" smooth="yes"/>
      <point x="973" y="-30"/>
      <point x="1225" y="259"/>
      <point x="1225" y="582" type="curve" smooth="yes"/>
      <point x="1225" y="833"/>
      <point x="1058" y="1014"/>
      <point x="783" y="1014" type="curve" smooth="yes"/>
      <point x="627" y="1014"/>
      <point x="525" y="953"/>
      <point x="438" y="869" type="curve"/>
      <point x="471" y="984" type="line"/>
      <point x="290" y="984" type="line"/>
      <point x="-88" y="-420" type="line"/>
    </contour>
    <contour>
      <point x="644" y="148" type="curve" smooth="yes"/>
      <point x="464" y="148"/>
      <point x="347" y="257"/>
      <point x="347" y="426" type="curve" smooth="yes"/>
      <point x="347" y="638"/>
      <point x="497" y="836"/>
      <point x="728" y="836" type="curve" smooth="yes"/>
      <point x="907" y="836"/>
      <point x="1023" y="730"/>
      <point x="1023" y="563" type="curve" smooth="yes"/>
      <point x="1023" y="341"/>
      <point x="870" y="148"/>
    </contour>
  </outline>
</glyph>
<glyph name="q" format="2">
  <advance width="1295"/>
  <unicode hex="0071"/>
  <outline>
    <contour>
      <point x="892" y="-420" type="line"/>
      <point x="1270" y="984" type="line"/>
      <point x="1090" y="984" type="line"/>
      <point x="1027" y="751" type="line"/>
      <point x="1067" y="763" type="line"/>
      <point x="999" y="930"/>
      <point x="829" y="1014"/>
      <point x="643" y="1014" type="curve" smooth="yes"/>
      <point x="322" y="1014"/>
      <point x="70" y="731"/>
      <point x="70" y="408" type="curve" smooth="yes"/>
      <point x="70" y="163"/>
      <point x="235" y="-27"/>
      <point x="503" y="-27" type="curve" smooth="yes"/>
      <point x="677" y="-27"/>
      <point x="790" y="47"/>
      <point x="896" y="160" type="curve"/>
      <point x="867" y="222" type="line"/>
      <point x="695" y="-420" type="line"/>
    </contour>
    <contour>
      <point x="565" y="150" type="curve" smooth="yes"/>
      <point x="390" y="150"/>
      <point x="272" y="257"/>
      <point x="272" y="425" type="curve" smooth="yes"/>
      <point x="272" y="636"/>
      <point x="421" y="834"/>
      <point x="652" y="834" type="curve" smooth="yes"/>
      <point x="831" y="834"/>
      <point x="948" y="727"/>
      <point x="948" y="559" type="curve" smooth="yes"/>
      <point x="948" y="345"/>
      <point x="799" y="150"/>
    </contour>
  </outline>
</glyph>
<glyph name="r" format="2">
  <advance width="846"/>
  <unicode hex="0072"/>
  <outline>
    <contour>
      <point x="271" y="0" type="line"/>
      <point x="415" y="532" type="line" smooth="yes"/>
      <point x="436" y="615"/>
      <point x="478" y="676"/>
      <point x="531" y="717" type="curve" smooth="yes"/>
      <point x="583" y="757"/>
      <point x="647" y="777"/>
      <point x="715" y="777" type="curve" smooth="yes"/>
      <point x="763" y="777"/>
      <point x="811" y="767"/>
      <point x="854" y="751" type="curve"/>
      <point x="955" y="1015" type="line"/>
      <point x="918" y="1026"/>
      <point x="877" y="1031"/>
      <point x="838" y="1031" type="curve" smooth="yes"/>
      <point x="778" y="1031"/>
      <point x="716" y="1018"/>
      <point x="659" y="988" type="curve" smooth="yes"/>
      <point x="602" y="958"/>
      <point x="548" y="910"/>
      <point x="500" y="843" type="curve"/>
      <point x="542" y="1000" type="line"/>
      <point x="285" y="1000" type="line"/>
      <point x="15" y="0" type="line"/>
    </contour>
  </outline>
</glyph>
<glyph name="s" format="2">
  <advance width="1010"/>
  <unicode hex="0073"/>
  <outline>
    <contour>
      <point x="424" y="-29" type="qcurve" smooth="yes"/>
      <point x="519" y="-29"/>
      <point x="681" y="23"/>
      <point x="798" y="120"/>
      <point x="864" y="256"/>
      <point x="864" y="340" type="qcurve" smooth="yes"/>
      <point x="864" y="386"/>
      <point x="827" y="462"/>
      <point x="751" y="526"/>
      <point x="632" y="579"/>
      <point x="550" y="603" type="qcurve" smooth="yes"/>
      <point x="500" y="618"/>
      <point x="431" y="644"/>
      <point x="387" y="671"/>
      <point x="368" y="701"/>
      <point x="368" y="720" type="qcurve" smooth="yes"/>
      <point x="368" y="749"/>
      <point x="393" y="794"/>
      <point x="437" y="825"/>
      <point x="500" y="842"/>
      <point x="537" y="842" type="qcurve" smooth="yes"/>
      <point x="581" y="842"/>
      <point x="669" y="823"/>
      <point x="749" y="789"/>
      <point x="820" y="741"/>
      <point x="847" y="711" type="qcurve"/>
      <point x="974" y="884" type="line"/>
      <point x="940" y="920"/>
      <point x="851" y="978"/>
      <point x="745" y="1018"/>
      <point x="624" y="1040"/>
      <point x="559" y="1040" type="qcurve" smooth="yes"/>
      <point x="470" y="1040"/>
      <point x="314" y="989"/>
      <point x="197" y="894"/>
      <point x="129" y="762"/>
      <point x="129" y="681" type="qcurve" smooth="yes"/>
      <point x="129" y="631"/>
      <point x="167" y="550"/>
      <point x="244" y="484"/>
      <point x="362" y="432"/>
      <point x="442" y="410" type="qcurve"/>
      <point x="495" y="394"/>
      <point x="566" y="368"/>
      <point x="609" y="343"/>
      <point x="628" y="316"/>
      <point x="628" y="297" type="qcurve" smooth="yes"/>
      <point x="628" y="267"/>
      <point x="603" y="219"/>
      <point x="555" y="186"/>
      <point x="487" y="169"/>
      <point x="444" y="169" type="qcurve" smooth="yes"/>
      <point x="400" y="169"/>
      <point x="307" y="188"/>
      <point x="219" y="223"/>
      <point x="138" y="274"/>
      <point x="103" y="306" type="qcurve"/>
      <point x="-28" y="137" type="line"/>
      <point x="11" y="96"/>
      <point x="114" y="34"/>
      <point x="232" y="-8"/>
      <point x="360" y="-29"/>
    </contour>
  </outline>
</glyph>
<glyph name="t" format="2">
  <advance width="875"/>
  <unicode hex="0074"/>
  <outline>
    <contour>
      <point x="475" y="-30" type="qcurve" smooth="yes"/>
      <point x="529" y="-30"/>
      <point x="631" y="-10"/>
      <point x="673" y="9" type="qcurve"/>
      <point x="688" y="224" type="line"/>
      <point x="661" y="212"/>
      <point x="604" y="200"/>
      <point x="572" y="200" type="qcurve" smooth="yes"/>
      <point x="529" y="200"/>
      <point x="474" y="224"/>
      <point x="449" y="268"/>
      <point x="451" y="334"/>
      <point x="462" y="375" type="qcurve" smooth="yes"/>
      <point x="575" y="792" type="line"/>
      <point x="838" y="792" type="line"/>
      <point x="893" y="1000" type="line"/>
      <point x="630" y="1000" type="line"/>
      <point x="709" y="1290" type="line"/>
      <point x="453" y="1290" type="line"/>
      <point x="193" y="324" type="line" smooth="yes"/>
      <point x="171" y="240"/>
      <point x="188" y="109"/>
      <point x="262" y="18"/>
      <point x="388" y="-30"/>
    </contour>
    <contour>
      <point x="348" y="792" type="line"/>
      <point x="403" y="1000" type="line"/>
      <point x="163" y="1000" type="line"/>
      <point x="108" y="792" type="line"/>
    </contour>
  </outline>
</glyph>
<glyph name="u" format="2">
  <advance width="1197"/>
  <unicode hex="0075"/>
  <anchor x="452" y="0" name="bottom"/>
  <anchor x="908" y="0" name="descender"/>
  <anchor x="1173" y="984" name="horn"/>
  <anchor x="908" y="0" name="ogonek"/>
  <anchor x="727" y="984" name="top"/>
  <outline>
    <contour>
      <point x="409" y="-30" type="curve" smooth="yes"/>
      <point x="542" y="-30"/>
      <point x="667" y="24"/>
      <point x="760" y="126" type="curve"/>
      <point x="727" y="0" type="line"/>
      <point x="908" y="0" type="line"/>
      <point x="1173" y="984" type="line"/>
      <point x="974" y="984" type="line"/>
      <point x="821" y="418" type="line" smooth="yes"/>
      <point x="776" y="245"/>
      <point x="646" y="152"/>
      <point x="505" y="152" type="curve" smooth="yes"/>
      <point x="360" y="152"/>
      <point x="283" y="233"/>
      <point x="319" y="388" type="curve"/>
      <point x="479" y="984" type="line"/>
      <point x="280" y="984" type="line"/>
      <point x="109" y="348" type="line"/>
      <point x="54" y="122"/>
      <point x="187" y="-30"/>
    </contour>
  </outline>
</glyph>
<glyph name="v" format="2">
  <advance width="1065"/>
  <unicode hex="0076"/>
  <outline>
    <contour>
      <point x="550" y="0" type="line"/>
      <point x="1176" y="1000" type="line"/>
      <point x="891" y="1000" type="line"/>
      <point x="409" y="168" type="line"/>
      <point x="474" y="155" type="line"/>
      <point x="431" y="1000" type="line"/>
      <point x="159" y="1000" type="line"/>
      <point x="254" y="0" type="line"/>
    </contour>
  </outline>
</glyph>
<glyph name="w" format="2">
  <advance width="1565"/>
  <unicode hex="0077"/>
  <anchor x="911" y="982" name="top"/>
  <outline>
    <contour>
      <point x="419" y="0" type="line"/>
      <point x="849" y="724" type="line"/>
      <point x="876" y="0" type="line"/>
      <point x="1083" y="0" type="line"/>
      <point x="1667" y="984" type="line"/>
      <point x="1464" y="984" type="line"/>
      <point x="1037" y="241" type="line"/>
      <point x="1018" y="984" type="line"/>
      <point x="821" y="984" type="line"/>
      <point x="375" y="235" type="line"/>
      <point x="359" y="984" type="line"/>
      <point x="164" y="984" type="line"/>
      <point x="208" y="0" type="line"/>
    </contour>
  </outline>
</glyph>
<glyph name="x" format="2">
  <advance width="1127"/>
  <unicode hex="0078"/>
  <outline>
    <contour>
      <point x="218" y="-1" type="line"/>
      <point x="519" y="328" type="line"/>
      <point x="653" y="0" type="line"/>
      <point x="966" y="0" type="line"/>
      <point x="737" y="493" type="line"/>
      <point x="1205" y="1000" type="line"/>
      <point x="872" y="1000" type="line"/>
      <point x="602" y="679" type="line"/>
      <point x="483" y="1000" type="line"/>
      <point x="175" y="1000" type="line"/>
      <point x="390" y="512" type="line"/>
      <point x="-110" y="1" type="line"/>
    </contour>
  </outline>
</glyph>
<glyph name="y" format="2">
  <advance width="1100"/>
  <unicode hex="0079"/>
  <outline>
    <contour>
      <point x="72" y="-450" type="qcurve" smooth="yes"/>
      <point x="128" y="-450"/>
      <point x="237" y="-422"/>
      <point x="343" y="-355"/>
      <point x="445" y="-247"/>
      <point x="495" y="-168" type="qcurve"/>
      <point x="1216" y="1000" type="line"/>
      <point x="929" y="1000" type="line"/>
      <point x="494" y="244" type="line"/>
      <point x="432" y="1000" type="line"/>
      <point x="158" y="1000" type="line"/>
      <point x="284" y="-19" type="line"/>
      <point x="236" y="-110" type="line"/>
      <point x="220" y="-137"/>
      <point x="184" y="-176"/>
      <point x="143" y="-202"/>
      <point x="95" y="-215"/>
      <point x="67" y="-215" type="qcurve" smooth="yes"/>
      <point x="27" y="-215"/>
      <point x="-56" y="-186"/>
      <point x="-89" y="-158" type="qcurve"/>
      <point x="-198" y="-369" type="line"/>
      <point x="-168" y="-393"/>
      <point x="-104" y="-424"/>
      <point x="-36" y="-443"/>
      <point x="36" y="-450"/>
    </contour>
  </outline>
</glyph>
<glyph name="z" format="2">
  <advance width="996"/>
  <unicode hex="007A"/>
  <anchor x="633" y="1000" name="top"/>
  <outline>
    <contour>
      <point x="772" y="0" type="line"/>
      <point x="833" y="227" type="line"/>
      <point x="361" y="227" type="line"/>
      <point x="986" y="821" type="line"/>
      <point x="1033" y="1000" type="line"/>
      <point x="237" y="1000" type="line"/>
      <point x="176" y="773" type="line"/>
      <point x="643" y="773" type="line"/>
      <point x="3" y="181" type="line"/>
      <point x="-44" y="0" type="line"/>
    </contour>
  </outline>
</glyph>
<glyph name="braceleft" format="2">
  <advance width="699"/>
  <unicode hex="007B"/>
  <outline>
    <contour>
      <point x="441" y="-44" type="line"/>
      <point x="303" y="-54"/>
      <point x="270" y="-14"/>
      <point x="310" y="85" type="curve" smooth="yes"/>
      <point x="464" y="452" type="line" smooth="yes"/>
      <point x="520" y="588"/>
      <point x="496" y="666"/>
      <point x="379" y="690" type="curve"/>
      <point x="379" y="692" type="line"/>
      <point x="505" y="713"/>
      <point x="574" y="792"/>
      <point x="589" y="929" type="curve"/>
      <point x="637" y="1295" type="line" smooth="yes"/>
      <point x="649" y="1395"/>
      <point x="704" y="1435"/>
      <point x="836" y="1424" type="curve"/>
      <point x="884" y="1605" type="line"/>
      <point x="607" y="1635"/>
      <point x="446" y="1524"/>
      <point x="419" y="1284" type="curve" smooth="yes"/>
      <point x="374" y="926" type="line" smooth="yes"/>
      <point x="361" y="812"/>
      <point x="321" y="782"/>
      <point x="164" y="782" type="curve"/>
      <point x="116" y="601" type="line"/>
      <point x="273" y="601"/>
      <point x="297" y="571"/>
      <point x="248" y="456" type="curve" smooth="yes"/>
      <point x="98" y="93" type="line" smooth="yes"/>
      <point x="-5" y="-145"/>
      <point x="96" y="-255"/>
      <point x="393" y="-225" type="curve"/>
    </contour>
  </outline>
</glyph>
<glyph name="bar" format="2">
  <advance width="614"/>
  <unicode hex="007C"/>
  <outline>
    <contour>
      <point x="218" y="-220" type="line"/>
      <point x="709" y="1600" type="line"/>
      <point x="499" y="1600" type="line"/>
      <point x="8" y="-220" type="line"/>
    </contour>
  </outline>
</glyph>
<glyph name="braceright" format="2">
  <advance width="702"/>
  <unicode hex="007D"/>
  <outline>
    <contour>
      <point x="-94" y="-225" type="line"/>
      <point x="188" y="-255"/>
      <point x="347" y="-145"/>
      <point x="374" y="93" type="curve"/>
      <point x="419" y="456" type="line"/>
      <point x="431" y="571"/>
      <point x="472" y="601"/>
      <point x="629" y="601" type="curve"/>
      <point x="679" y="782" type="line"/>
      <point x="522" y="782"/>
      <point x="496" y="812"/>
      <point x="545" y="926" type="curve"/>
      <point x="693" y="1284" type="line"/>
      <point x="796" y="1524"/>
      <point x="694" y="1635"/>
      <point x="400" y="1605" type="curve"/>
      <point x="351" y="1424" type="line"/>
      <point x="489" y="1435"/>
      <point x="522" y="1395"/>
      <point x="482" y="1295" type="curve" smooth="yes"/>
      <point x="332" y="929" type="line"/>
      <point x="272" y="792"/>
      <point x="300" y="713"/>
      <point x="415" y="692" type="curve"/>
      <point x="412" y="690" type="line"/>
      <point x="283" y="666"/>
      <point x="217" y="588"/>
      <point x="200" y="452" type="curve"/>
      <point x="156" y="85" type="line"/>
      <point x="144" y="-14"/>
      <point x="88" y="-54"/>
      <point x="-45" y="-44" type="curve"/>
    </contour>
  </outline>
</glyph>
<glyph name="asciitilde" format="2">
  <advance width="1296"/>
  <unicode hex="007E"/>
  <outline>
    <contour>
      <point x="923" y="500" type="curve" smooth="yes"/>
      <point x="1031" y="500"/>
      <point x="1143" y="551"/>
      <point x="1248" y="660" type="curve"/>
      <point x="1189" y="818" type="line"/>
      <point x="1105" y="729"/>
      <point x="1021" y="684"/>
      <point x="944" y="684" type="curve" smooth="yes"/>
      <point x="880" y="684"/>
      <point x="810" y="721"/>
      <point x="731" y="758" type="curve" smooth="yes"/>
      <point x="652" y="795"/>
      <point x="569" y="832"/>
      <point x="480" y="832" type="curve" smooth="yes"/>
      <point x="372" y="832"/>
      <point x="264" y="779"/>
      <point x="159" y="670" type="curve"/>
      <point x="223" y="518" type="line"/>
      <point x="300" y="602"/>
      <point x="389" y="648"/>
      <point x="466" y="648" type="curve" smooth="yes"/>
      <point x="533" y="648"/>
      <point x="598" y="611"/>
      <point x="671" y="574" type="curve" smooth="yes"/>
      <point x="744" y="537"/>
      <point x="824" y="500"/>
    </contour>
  </outline>
</glyph>
<glyph name="exclamdown" format="2">
  <advance width="670"/>
  <unicode hex="00A1"/>
  <outline>
    <contour>
      <point x="203" y="-409" type="line"/>
      <point x="422" y="522" type="line"/>
      <point x="250" y="522" type="line"/>
      <point x="-33" y="-409" type="line"/>
    </contour>
    <contour>
      <point x="415" y="742" type="curve" smooth="yes"/>
      <point x="502" y="742"/>
      <point x="582" y="805"/>
      <point x="582" y="903" type="curve" smooth="yes"/>
      <point x="582" y="972"/>
      <point x="526" y="1021"/>
      <point x="451" y="1021" type="curve" smooth="yes"/>
      <point x="364" y="1021"/>
      <point x="282" y="959"/>
      <point x="282" y="861" type="curve" smooth="yes"/>
      <point x="282" y="791"/>
      <point x="339" y="742"/>
    </contour>
  </outline>
</glyph>
<glyph name="cent" format="2">
  <advance width="1296"/>
  <unicode hex="00A2"/>
  <outline>
    <contour>
      <point x="626" y="-160" type="line"/>
      <point x="669" y="0" type="line"/>
      <point x="752" y="0"/>
      <point x="911" y="40"/>
      <point x="983" y="82" type="qcurve"/>
      <point x="941" y="267" type="line"/>
      <point x="896" y="239"/>
      <point x="784" y="208"/>
      <point x="726" y="209" type="qcurve"/>
      <point x="877" y="773" type="line"/>
      <point x="916" y="766"/>
      <point x="982" y="736"/>
      <point x="1010" y="712" type="qcurve"/>
      <point x="1150" y="864" type="line"/>
      <point x="1109" y="905"/>
      <point x="999" y="962"/>
      <point x="932" y="976" type="qcurve"/>
      <point x="980" y="1160" type="line"/>
      <point x="800" y="1160" type="line"/>
      <point x="755" y="994" type="line"/>
      <point x="635" y="988"/>
      <point x="429" y="893"/>
      <point x="277" y="737"/>
      <point x="191" y="534"/>
      <point x="191" y="419" type="qcurve" smooth="yes"/>
      <point x="191" y="347"/>
      <point x="232" y="220"/>
      <point x="311" y="117"/>
      <point x="423" y="42"/>
      <point x="494" y="22" type="qcurve"/>
      <point x="446" y="-160" type="line"/>
    </contour>
    <contour>
      <point x="549" y="230" type="line"/>
      <point x="475" y="253"/>
      <point x="398" y="362"/>
      <point x="398" y="444" type="qcurve" smooth="yes"/>
      <point x="398" y="513"/>
      <point x="442" y="636"/>
      <point x="521" y="728"/>
      <point x="632" y="782"/>
      <point x="698" y="782" type="qcurve"/>
    </contour>
  </outline>
</glyph>
<glyph name="sterling" format="2">
  <advance width="1296"/>
  <unicode hex="00A3"/>
  <outline>
    <contour>
      <point x="1044" y="0" type="line"/>
      <point x="1088" y="162" type="line"/>
      <point x="417" y="162" type="line"/>
      <point x="564" y="263"/>
      <point x="603" y="384"/>
      <point x="603" y="505" type="curve" smooth="yes"/>
      <point x="603" y="647"/>
      <point x="628" y="809"/>
      <point x="627" y="947" type="curve"/>
      <point x="627" y="1144"/>
      <point x="745" y="1264"/>
      <point x="929" y="1264" type="curve" smooth="yes"/>
      <point x="1046" y="1264"/>
      <point x="1144" y="1230"/>
      <point x="1228" y="1145" type="curve"/>
      <point x="1340" y="1273" type="line"/>
      <point x="1260" y="1362"/>
      <point x="1119" y="1429"/>
      <point x="933" y="1429" type="curve" smooth="yes"/>
      <point x="647" y="1429"/>
      <point x="437" y="1239"/>
      <point x="437" y="962" type="curve" smooth="yes"/>
      <point x="437" y="809"/>
      <point x="435" y="647"/>
      <point x="435" y="510" type="curve" smooth="yes"/>
      <point x="435" y="299"/>
      <point x="316" y="217"/>
      <point x="88" y="163" type="curve"/>
      <point x="45" y="0" type="line"/>
    </contour>
    <contour>
      <point x="1051" y="615" type="line"/>
      <point x="1088" y="760" type="line"/>
      <point x="227" y="760" type="line"/>
      <point x="190" y="615" type="line"/>
    </contour>
  </outline>
</glyph>
<glyph name="currency" format="2">
  <advance width="1296"/>
  <unicode hex="00A4"/>
  <outline>
    <contour>
      <point x="413" y="264" type="line"/>
      <point x="460" y="229"/>
      <point x="566" y="198"/>
      <point x="627" y="198" type="qcurve" smooth="yes"/>
      <point x="684" y="198"/>
      <point x="797" y="232"/>
      <point x="852" y="267" type="qcurve"/>
      <point x="987" y="111" type="line"/>
      <point x="1143" y="247" type="line"/>
      <point x="1012" y="399" type="line"/>
      <point x="1061" y="458"/>
      <point x="1114" y="593"/>
      <point x="1114" y="671" type="qcurve" smooth="yes"/>
      <point x="1114" y="716"/>
      <point x="1094" y="804"/>
      <point x="1072" y="843" type="qcurve"/>
      <point x="1246" y="994" type="line"/>
      <point x="1125" y="1132" type="line"/>
      <point x="953" y="981" type="line"/>
      <point x="907" y="1015"/>
      <point x="801" y="1045"/>
      <point x="740" y="1045" type="qcurve" smooth="yes"/>
      <point x="683" y="1045"/>
      <point x="568" y="1011"/>
      <point x="512" y="976" type="qcurve"/>
      <point x="377" y="1132" type="line"/>
      <point x="222" y="997" type="line"/>
      <point x="353" y="845" type="line"/>
      <point x="308" y="789"/>
      <point x="253" y="652"/>
      <point x="253" y="568" type="qcurve" smooth="yes"/>
      <point x="253" y="525"/>
      <point x="271" y="440"/>
      <point x="293" y="401" type="qcurve"/>
      <point x="119" y="249" type="line"/>
      <point x="239" y="111" type="line"/>
    </contour>
    <contour>
      <point x="657" y="391" type="qcurve" smooth="yes"/>
      <point x="609" y="391"/>
      <point x="532" y="421"/>
      <point x="477" y="473"/>
      <point x="448" y="545"/>
      <point x="448" y="588" type="qcurve" smooth="yes"/>
      <point x="448" y="640"/>
      <point x="489" y="736"/>
      <point x="560" y="808"/>
      <point x="656" y="851"/>
      <point x="711" y="851" type="qcurve" smooth="yes"/>
      <point x="757" y="851"/>
      <point x="834" y="823"/>
      <point x="888" y="771"/>
      <point x="918" y="698"/>
      <point x="918" y="654" type="qcurve" smooth="yes"/>
      <point x="918" y="597"/>
      <point x="876" y="501"/>
      <point x="803" y="431"/>
      <point x="709" y="391"/>
    </contour>
  </outline>
</glyph>
<glyph name="yen" format="2">
  <advance width="1296"/>
  <unicode hex="00A5"/>
  <outline>
    <contour>
      <point x="623" y="0" type="line"/>
      <point x="697" y="282" type="line"/>
      <point x="1073" y="282" type="line"/>
      <point x="1117" y="445" type="line"/>
      <point x="741" y="445" type="line"/>
      <point x="785" y="605" type="line"/>
      <point x="1161" y="605" type="line"/>
      <point x="1205" y="768" type="line"/>
      <point x="916" y="768" type="line"/>
      <point x="1502" y="1400" type="line"/>
      <point x="1227" y="1400" type="line"/>
      <point x="720" y="834" type="line"/>
      <point x="538" y="1400" type="line"/>
      <point x="287" y="1400" type="line"/>
      <point x="506" y="768" type="line"/>
      <point x="214" y="768" type="line"/>
      <point x="170" y="605" type="line"/>
      <point x="545" y="605" type="line"/>
      <point x="501" y="445" type="line"/>
      <point x="126" y="445" type="line"/>
      <point x="82" y="282" type="line"/>
      <point x="457" y="282" type="line"/>
      <point x="383" y="0" type="line"/>
    </contour>
  </outline>
</glyph>
<glyph name="brokenbar" format="2">
  <advance width="612"/>
  <unicode hex="00A6"/>
  <outline>
    <contour>
      <point x="495" y="810" type="line"/>
      <point x="675" y="1480" type="line"/>
      <point x="465" y="1480" type="line"/>
      <point x="285" y="810" type="line"/>
    </contour>
    <contour>
      <point x="250" y="-100" type="line"/>
      <point x="429" y="570" type="line"/>
      <point x="219" y="570" type="line"/>
      <point x="40" y="-100" type="line"/>
    </contour>
  </outline>
</glyph>
<glyph name="section" format="2">
  <advance width="1253"/>
  <unicode hex="00A7"/>
  <outline>
    <contour>
      <point x="421" y="-450" type="curve" smooth="yes"/>
      <point x="695" y="-450"/>
      <point x="930" y="-294"/>
      <point x="930" y="-26" type="curve" smooth="yes"/>
      <point x="930" y="127"/>
      <point x="821" y="215"/>
      <point x="616" y="286" type="curve" smooth="yes"/>
      <point x="467" y="338"/>
      <point x="370" y="390"/>
      <point x="370" y="488" type="curve" smooth="yes"/>
      <point x="370" y="637"/>
      <point x="525" y="715"/>
      <point x="712" y="711" type="curve"/>
      <point x="745" y="858" type="line"/>
      <point x="441" y="877"/>
      <point x="139" y="729"/>
      <point x="139" y="445" type="curve" smooth="yes"/>
      <point x="139" y="286"/>
      <point x="267" y="193"/>
      <point x="496" y="113" type="curve"/>
      <point x="649" y="57"/>
      <point x="709" y="14"/>
      <point x="709" y="-60" type="curve" smooth="yes"/>
      <point x="709" y="-176"/>
      <point x="596" y="-244"/>
      <point x="453" y="-244" type="curve" smooth="yes"/>
      <point x="315" y="-244"/>
      <point x="170" y="-189"/>
      <point x="79" y="-96" type="curve"/>
      <point x="-60" y="-274" type="line"/>
      <point x="38" y="-372"/>
      <point x="220" y="-450"/>
    </contour>
    <contour>
      <point x="552" y="142" type="line"/>
      <point x="866" y="133"/>
      <point x="1148" y="276"/>
      <point x="1148" y="558" type="curve" smooth="yes"/>
      <point x="1148" y="715"/>
      <point x="1015" y="806"/>
      <point x="803" y="877" type="curve"/>
      <point x="646" y="932"/>
      <point x="572" y="969"/>
      <point x="572" y="1048" type="curve" smooth="yes"/>
      <point x="572" y="1165"/>
      <point x="677" y="1225"/>
      <point x="805" y="1225" type="curve" smooth="yes"/>
      <point x="936" y="1225"/>
      <point x="1077" y="1171"/>
      <point x="1163" y="1080" type="curve"/>
      <point x="1298" y="1260" type="line"/>
      <point x="1191" y="1368"/>
      <point x="1026" y="1430"/>
      <point x="844" y="1430" type="curve" smooth="yes"/>
      <point x="580" y="1430"/>
      <point x="356" y="1273"/>
      <point x="356" y="1015" type="curve" smooth="yes"/>
      <point x="356" y="870"/>
      <point x="459" y="778"/>
      <point x="661" y="710" type="curve"/>
      <point x="830" y="651"/>
      <point x="913" y="607"/>
      <point x="913" y="523" type="curve" smooth="yes"/>
      <point x="913" y="370"/>
      <point x="762" y="276"/>
      <point x="583" y="287" type="curve"/>
    </contour>
  </outline>
</glyph>
<glyph name="copyright" format="2">
  <advance width="1676"/>
  <unicode hex="00A9"/>
  <anchor x="838" y="303" name="bottom"/>
  <anchor x="838" y="1087" name="top"/>
  <outline>
    <contour>
      <point x="838" y="-35" type="curve" smooth="yes"/>
      <point x="1256" y="-35"/>
      <point x="1576" y="281"/>
      <point x="1576" y="695" type="curve" smooth="yes"/>
      <point x="1576" y="1102"/>
      <point x="1256" y="1425"/>
      <point x="838" y="1425" type="curve" smooth="yes"/>
      <point x="418" y="1425"/>
      <point x="100" y="1110"/>
      <point x="100" y="695" type="curve" smooth="yes"/>
      <point x="100" y="282"/>
      <point x="416" y="-35"/>
    </contour>
    <contour>
      <point x="838" y="73" type="curve" smooth="yes"/>
      <point x="508" y="73"/>
      <point x="219" y="320"/>
      <point x="219" y="695" type="curve" smooth="yes"/>
      <point x="219" y="1069"/>
      <point x="508" y="1316"/>
      <point x="838" y="1316" type="curve" smooth="yes"/>
      <point x="1168" y="1316"/>
      <point x="1457" y="1069"/>
      <point x="1457" y="695" type="curve" smooth="yes"/>
      <point x="1457" y="320"/>
      <point x="1168" y="73"/>
    </contour>
    <contour>
      <point x="862" y="287" type="curve" smooth="yes"/>
      <point x="989" y="287"/>
      <point x="1086" y="319"/>
      <point x="1165" y="378" type="curve"/>
      <point x="1103" y="490" type="line"/>
      <point x="1034" y="436"/>
      <point x="955" y="416"/>
      <point x="879" y="416" type="curve" smooth="yes"/>
      <point x="695" y="416"/>
      <point x="580" y="520"/>
      <point x="580" y="695" type="curve" smooth="yes"/>
      <point x="580" y="867"/>
      <point x="694" y="974"/>
      <point x="872" y="974" type="curve" smooth="yes"/>
      <point x="955" y="974"/>
      <point x="1022" y="952"/>
      <point x="1073" y="907" type="curve"/>
      <point x="1142" y="1017" type="line"/>
      <point x="1075" y="1072"/>
      <point x="987" y="1103"/>
      <point x="863" y="1103" type="curve" smooth="yes"/>
      <point x="617" y="1103"/>
      <point x="441" y="932"/>
      <point x="441" y="694" type="curve" smooth="yes"/>
      <point x="441" y="447"/>
      <point x="610" y="287"/>
    </contour>
  </outline>
</glyph>
<glyph name="ordfeminine" format="2">
  <advance width="814"/>
  <unicode hex="00AA"/>
  <anchor x="458" y="722" name="bottom"/>
  <anchor x="768" y="722" name="ogonek"/>
  <anchor x="631" y="1376" name="top"/>
  <outline>
    <contour>
      <point x="399" y="704" type="curve" smooth="yes"/>
      <point x="495" y="704"/>
      <point x="581" y="735"/>
      <point x="627" y="795" type="curve"/>
      <point x="609" y="722" type="line"/>
      <point x="768" y="722" type="line"/>
      <point x="869" y="1092" type="line" smooth="yes"/>
      <point x="919" y="1281"/>
      <point x="825" y="1402"/>
      <point x="594" y="1402" type="curve" smooth="yes"/>
      <point x="496" y="1402"/>
      <point x="409" y="1377"/>
      <point x="338" y="1329" type="curve"/>
      <point x="359" y="1205" type="line"/>
      <point x="410" y="1238"/>
      <point x="488" y="1260"/>
      <point x="553" y="1260" type="curve" smooth="yes"/>
      <point x="659" y="1260"/>
      <point x="727" y="1222"/>
      <point x="700" y="1116" type="curve" smooth="yes"/>
      <point x="660" y="969" type="line" smooth="yes"/>
      <point x="640" y="895"/>
      <point x="563" y="837"/>
      <point x="465" y="837" type="curve" smooth="yes"/>
      <point x="405" y="837"/>
      <point x="363" y="865"/>
      <point x="363" y="909" type="curve" smooth="yes"/>
      <point x="363" y="1008"/>
      <point x="541" y="1029"/>
      <point x="702" y="1008" type="curve"/>
      <point x="730" y="1117" type="line"/>
      <point x="433" y="1149"/>
      <point x="192" y="1087"/>
      <point x="192" y="890" type="curve" smooth="yes"/>
      <point x="192" y="777"/>
      <point x="274" y="704"/>
    </contour>
  </outline>
</glyph>
<glyph name="guillemetleft" format="2">
  <advance width="1093"/>
  <unicode hex="00AB"/>
  <outline>
    <contour>
      <point x="908" y="169" type="line"/>
      <point x="748" y="497" type="line"/>
      <point x="1056" y="817" type="line"/>
      <point x="915" y="942" type="line"/>
      <point x="504" y="513" type="line"/>
      <point x="715" y="85" type="line"/>
    </contour>
    <contour>
      <point x="458" y="169" type="line"/>
      <point x="298" y="497" type="line"/>
      <point x="606" y="817" type="line"/>
      <point x="465" y="942" type="line"/>
      <point x="54" y="513" type="line"/>
      <point x="265" y="85" type="line"/>
    </contour>
  </outline>
</glyph>
<glyph name="logicalnot" format="2">
  <advance width="1296"/>
  <unicode hex="00AC"/>
  <outline>
    <contour>
      <point x="1128" y="408" type="line"/>
      <point x="1266" y="924" type="line"/>
      <point x="263" y="924" type="line"/>
      <point x="224" y="776" type="line"/>
      <point x="1072" y="776" type="line"/>
      <point x="973" y="408" type="line"/>
    </contour>
  </outline>
</glyph>
<glyph name="registered" format="2">
  <advance width="1220"/>
  <unicode hex="00AE"/>
  <outline>
    <contour>
      <point x="748" y="474" type="curve" smooth="yes"/>
      <point x="895" y="474"/>
      <point x="1026" y="529"/>
      <point x="1119" y="621" type="curve" smooth="yes"/>
      <point x="1212" y="712"/>
      <point x="1269" y="838"/>
      <point x="1269" y="982" type="curve" smooth="yes"/>
      <point x="1269" y="1125"/>
      <point x="1212" y="1253"/>
      <point x="1117" y="1346" type="curve" smooth="yes"/>
      <point x="1022" y="1439"/>
      <point x="891" y="1496"/>
      <point x="742" y="1496" type="curve" smooth="yes"/>
      <point x="594" y="1496"/>
      <point x="465" y="1441"/>
      <point x="371" y="1350" type="curve" smooth="yes"/>
      <point x="277" y="1259"/>
      <point x="221" y="1131"/>
      <point x="221" y="987" type="curve" smooth="yes"/>
      <point x="221" y="842"/>
      <point x="277" y="714"/>
      <point x="372" y="622" type="curve" smooth="yes"/>
      <point x="467" y="530"/>
      <point x="599" y="474"/>
    </contour>
    <contour>
      <point x="748" y="555" type="curve" smooth="yes"/>
      <point x="632" y="555"/>
      <point x="522" y="598"/>
      <point x="443" y="674" type="curve" smooth="yes"/>
      <point x="363" y="749"/>
      <point x="312" y="856"/>
      <point x="312" y="987" type="curve" smooth="yes"/>
      <point x="312" y="1115"/>
      <point x="362" y="1222"/>
      <point x="441" y="1297" type="curve" smooth="yes"/>
      <point x="520" y="1372"/>
      <point x="627" y="1414"/>
      <point x="742" y="1414" type="curve" smooth="yes"/>
      <point x="858" y="1414"/>
      <point x="967" y="1372"/>
      <point x="1047" y="1296" type="curve" smooth="yes"/>
      <point x="1127" y="1220"/>
      <point x="1178" y="1113"/>
      <point x="1178" y="982" type="curve" smooth="yes"/>
      <point x="1178" y="854"/>
      <point x="1128" y="748"/>
      <point x="1049" y="673" type="curve" smooth="yes"/>
      <point x="970" y="598"/>
      <point x="863" y="555"/>
    </contour>
    <contour>
      <point x="658" y="710" type="line"/>
      <point x="657" y="925" type="line"/>
      <point x="730" y="925" type="line"/>
      <point x="884" y="710" type="line"/>
      <point x="1008" y="710" type="line"/>
      <point x="836" y="943" type="line"/>
      <point x="919" y="960"/>
      <point x="975" y="1014"/>
      <point x="975" y="1094" type="curve" smooth="yes"/>
      <point x="975" y="1145"/>
      <point x="956" y="1186"/>
      <point x="921" y="1215" type="curve" smooth="yes"/>
      <point x="886" y="1243"/>
      <point x="836" y="1259"/>
      <point x="775" y="1259" type="curve" smooth="yes"/>
      <point x="554" y="1259" type="line"/>
      <point x="556" y="710" type="line"/>
    </contour>
    <contour>
      <point x="657" y="1175" type="line"/>
      <point x="767" y="1175" type="line" smooth="yes"/>
      <point x="836" y="1175"/>
      <point x="873" y="1143"/>
      <point x="873" y="1090" type="curve" smooth="yes"/>
      <point x="873" y="1037"/>
      <point x="832" y="1008"/>
      <point x="761" y="1008" type="curve" smooth="yes"/>
      <point x="657" y="1008" type="line"/>
    </contour>
  </outline>
</glyph>
<glyph name="degree" format="2">
  <advance width="908"/>
  <unicode hex="00B0"/>
  <outline>
    <contour>
      <point x="550" y="658" type="qcurve" smooth="yes"/>
      <point x="636" y="658"/>
      <point x="797" y="726"/>
      <point x="920" y="844"/>
      <point x="995" y="1001"/>
      <point x="995" y="1089" type="qcurve" smooth="yes"/>
      <point x="995" y="1159"/>
      <point x="945" y="1280"/>
      <point x="855" y="1369"/>
      <point x="728" y="1420"/>
      <point x="651" y="1420" type="qcurve" smooth="yes"/>
      <point x="564" y="1420"/>
      <point x="403" y="1352"/>
      <point x="278" y="1235"/>
      <point x="204" y="1079"/>
      <point x="204" y="991" type="qcurve" smooth="yes"/>
      <point x="204" y="921"/>
      <point x="254" y="800"/>
      <point x="346" y="710"/>
      <point x="473" y="658"/>
    </contour>
    <contour>
      <point x="576" y="829" type="qcurve" smooth="yes"/>
      <point x="532" y="829"/>
      <point x="461" y="855"/>
      <point x="412" y="901"/>
      <point x="385" y="968"/>
      <point x="385" y="1008" type="qcurve" smooth="yes"/>
      <point x="385" y="1059"/>
      <point x="423" y="1147"/>
      <point x="487" y="1212"/>
      <point x="575" y="1249"/>
      <point x="624" y="1249" type="qcurve" smooth="yes"/>
      <point x="669" y="1249"/>
      <point x="738" y="1224"/>
      <point x="788" y="1179"/>
      <point x="814" y="1115"/>
      <point x="814" y="1076" type="qcurve" smooth="yes"/>
      <point x="814" y="1025"/>
      <point x="778" y="935"/>
      <point x="714" y="868"/>
      <point x="627" y="829"/>
    </contour>
  </outline>
</glyph>
<glyph name="twosuperior" format="2">
  <advance width="844"/>
  <unicode hex="00B2"/>
  <outline>
    <contour>
      <point x="815" y="722" type="line"/>
      <point x="854" y="874" type="line"/>
      <point x="455" y="874" type="line"/>
      <point x="608" y="982" type="line" smooth="yes"/>
      <point x="803" y="1119"/>
      <point x="959" y="1239"/>
      <point x="959" y="1413" type="curve" smooth="yes"/>
      <point x="959" y="1556"/>
      <point x="843" y="1652"/>
      <point x="649" y="1652" type="curve" smooth="yes"/>
      <point x="553" y="1652"/>
      <point x="452" y="1624"/>
      <point x="369" y="1570" type="curve"/>
      <point x="401" y="1430" type="line"/>
      <point x="467" y="1478"/>
      <point x="543" y="1496"/>
      <point x="610" y="1496" type="curve" smooth="yes"/>
      <point x="719" y="1496"/>
      <point x="782" y="1454"/>
      <point x="782" y="1382" type="curve" smooth="yes"/>
      <point x="782" y="1251"/>
      <point x="627" y="1148"/>
      <point x="460" y="1032" type="curve"/>
      <point x="197" y="848" type="line"/>
      <point x="164" y="722" type="line"/>
    </contour>
  </outline>
</glyph>
<glyph name="threesuperior" format="2">
  <advance width="821"/>
  <unicode hex="00B3"/>
  <outline>
    <contour>
      <point x="477" y="702" type="qcurve" smooth="yes"/>
      <point x="554" y="702"/>
      <point x="692" y="749"/>
      <point x="796" y="834"/>
      <point x="857" y="954"/>
      <point x="857" y="1026" type="qcurve" smooth="yes"/>
      <point x="857" y="1076"/>
      <point x="820" y="1153"/>
      <point x="758" y="1210"/>
      <point x="674" y="1245"/>
      <point x="628" y="1252" type="qcurve"/>
      <point x="949" y="1496" type="line"/>
      <point x="983" y="1632" type="line"/>
      <point x="383" y="1632" type="line"/>
      <point x="344" y="1481" type="line"/>
      <point x="724" y="1481" type="line"/>
      <point x="398" y="1246" type="line"/>
      <point x="415" y="1140" type="line"/>
      <point x="435" y="1144"/>
      <point x="476" y="1146"/>
      <point x="494" y="1146" type="qcurve" smooth="yes"/>
      <point x="582" y="1146"/>
      <point x="682" y="1080"/>
      <point x="682" y="1021" type="qcurve" smooth="yes"/>
      <point x="682" y="984"/>
      <point x="653" y="924"/>
      <point x="600" y="881"/>
      <point x="527" y="858"/>
      <point x="484" y="858" type="qcurve" smooth="yes"/>
      <point x="449" y="858"/>
      <point x="381" y="872"/>
      <point x="320" y="898"/>
      <point x="270" y="934"/>
      <point x="252" y="955" type="qcurve"/>
      <point x="163" y="819" type="line"/>
      <point x="182" y="795"/>
      <point x="250" y="752"/>
      <point x="334" y="720"/>
      <point x="430" y="702"/>
    </contour>
  </outline>
</glyph>
<glyph name="micro" format="2">
  <advance width="1225"/>
  <unicode hex="00B5"/>
  <outline>
    <contour>
      <point x="106" y="-420" type="line"/>
      <point x="221" y="100" type="line"/>
      <point x="271" y="13"/>
      <point x="364" y="-30"/>
      <point x="492" y="-30" type="curve" smooth="yes"/>
      <point x="596" y="-30"/>
      <point x="694" y="10"/>
      <point x="781" y="90" type="curve"/>
      <point x="755" y="0" type="line"/>
      <point x="935" y="0" type="line"/>
      <point x="1200" y="984" type="line"/>
      <point x="1002" y="984" type="line"/>
      <point x="839" y="402" type="line" smooth="yes"/>
      <point x="795" y="250"/>
      <point x="680" y="154"/>
      <point x="543" y="154" type="curve" smooth="yes"/>
      <point x="382" y="154"/>
      <point x="299" y="286"/>
      <point x="338" y="428" type="curve" smooth="yes"/>
      <point x="488" y="984" type="line"/>
      <point x="290" y="984" type="line"/>
      <point x="-87" y="-420" type="line"/>
    </contour>
  </outline>
</glyph>
<glyph name="paragraph" format="2">
  <advance width="1279"/>
  <unicode hex="00B6"/>
  <outline>
    <contour>
      <point x="423" y="-420" type="line"/>
      <point x="877" y="1266" type="line"/>
      <point x="1061" y="1266" type="line"/>
      <point x="607" y="-420" type="line"/>
      <point x="757" y="-420" type="line"/>
      <point x="1211" y="1266" type="line"/>
      <point x="1428" y="1266" type="line"/>
      <point x="1465" y="1400" type="line"/>
      <point x="769" y="1400" type="line" smooth="yes"/>
      <point x="471" y="1400"/>
      <point x="215" y="1232"/>
      <point x="215" y="958" type="curve" smooth="yes"/>
      <point x="215" y="759"/>
      <point x="366" y="618"/>
      <point x="609" y="624" type="curve"/>
      <point x="565" y="664" type="line"/>
      <point x="272" y="-420" type="line"/>
    </contour>
  </outline>
</glyph>
<glyph name="periodcentered" format="2">
  <advance width="550"/>
  <unicode hex="00B7"/>
  <outline>
    <contour>
      <point x="305" y="521" type="qcurve" smooth="yes"/>
      <point x="342" y="521"/>
      <point x="413" y="547"/>
      <point x="467" y="595"/>
      <point x="500" y="665"/>
      <point x="500" y="708" type="qcurve" smooth="yes"/>
      <point x="500" y="740"/>
      <point x="477" y="792"/>
      <point x="436" y="828"/>
      <point x="380" y="848"/>
      <point x="347" y="848" type="qcurve" smooth="yes"/>
      <point x="309" y="848"/>
      <point x="238" y="823"/>
      <point x="183" y="774"/>
      <point x="150" y="704"/>
      <point x="150" y="660" type="qcurve"/>
      <point x="149" y="629"/>
      <point x="173" y="578"/>
      <point x="215" y="542"/>
      <point x="272" y="521"/>
    </contour>
  </outline>
</glyph>
<glyph name="onesuperior" format="2">
  <advance width="651"/>
  <unicode hex="00B9"/>
  <outline>
    <contour>
      <point x="573" y="722" type="line"/>
      <point x="817" y="1632" type="line"/>
      <point x="744" y="1632" type="line"/>
      <point x="302" y="1494" type="line"/>
      <point x="346" y="1356" type="line"/>
      <point x="596" y="1430" type="line"/>
      <point x="403" y="722" type="line"/>
    </contour>
  </outline>
</glyph>
<glyph name="ordmasculine" format="2">
  <advance width="870"/>
  <unicode hex="00BA"/>
  <anchor x="520" y="722" name="bottom"/>
  <anchor x="915" y="1376" name="horn"/>
  <anchor x="646" y="722" name="ogonek"/>
  <anchor x="650" y="1376" name="top"/>
  <outline>
    <contour>
      <point x="543" y="702" type="curve" smooth="yes"/>
      <point x="762" y="702"/>
      <point x="961" y="879"/>
      <point x="961" y="1095" type="curve" smooth="yes"/>
      <point x="961" y="1260"/>
      <point x="830" y="1396"/>
      <point x="627" y="1396" type="curve" smooth="yes"/>
      <point x="409" y="1396"/>
      <point x="210" y="1218"/>
      <point x="210" y="1006" type="curve" smooth="yes"/>
      <point x="210" y="837"/>
      <point x="339" y="702"/>
    </contour>
    <contour>
      <point x="561" y="860" type="curve" smooth="yes"/>
      <point x="459" y="860"/>
      <point x="390" y="920"/>
      <point x="390" y="1016" type="curve" smooth="yes"/>
      <point x="390" y="1130"/>
      <point x="475" y="1238"/>
      <point x="609" y="1238" type="curve" smooth="yes"/>
      <point x="711" y="1238"/>
      <point x="779" y="1179"/>
      <point x="779" y="1083" type="curve" smooth="yes"/>
      <point x="779" y="969"/>
      <point x="694" y="860"/>
    </contour>
  </outline>
</glyph>
<glyph name="guillemetright" format="2">
  <advance width="1093"/>
  <unicode hex="00BB"/>
  <outline>
    <contour>
      <point x="1046" y="514" type="line"/>
      <point x="835" y="943" type="line"/>
      <point x="642" y="859" type="line"/>
      <point x="803" y="531" type="line"/>
      <point x="494" y="211" type="line"/>
      <point x="635" y="85" type="line"/>
    </contour>
    <contour>
      <point x="596" y="514" type="line"/>
      <point x="385" y="943" type="line"/>
      <point x="192" y="859" type="line"/>
      <point x="353" y="531" type="line"/>
      <point x="44" y="211" type="line"/>
      <point x="185" y="85" type="line"/>
    </contour>
  </outline>
</glyph>
<glyph name="onequarter" format="2">
  <advance width="1873"/>
  <unicode hex="00BC"/>
  <outline>
    <component base="fraction" xOffset="672"/>
    <contour>
      <point x="520" y="490" type="line"/>
      <point x="764" y="1400" type="line"/>
      <point x="692" y="1400" type="line"/>
      <point x="250" y="1262" type="line"/>
      <point x="293" y="1124" type="line"/>
      <point x="543" y="1198" type="line"/>
      <point x="350" y="490" type="line"/>
    </contour>
    <contour>
      <point x="1549" y="0" type="line"/>
      <point x="1597" y="178" type="line"/>
      <point x="1733" y="178" type="line"/>
      <point x="1772" y="327" type="line"/>
      <point x="1635" y="327" type="line"/>
      <point x="1685" y="516" type="line"/>
      <point x="1532" y="516" type="line"/>
      <point x="1480" y="327" type="line"/>
      <point x="1223" y="327" type="line"/>
      <point x="1683" y="910" type="line"/>
      <point x="1490" y="910" type="line"/>
      <point x="1019" y="310" type="line"/>
      <point x="985" y="178" type="line"/>
      <point x="1442" y="178" type="line"/>
      <point x="1394" y="0" type="line"/>
    </contour>
  </outline>
</glyph>
<glyph name="onehalf" format="2">
  <advance width="1870"/>
  <unicode hex="00BD"/>
  <outline>
    <contour>
      <point x="1533" y="1339" type="line"/>
      <point x="1420" y="1435" type="line"/>
      <point x="271" y="61" type="line"/>
      <point x="386" y="-35" type="line"/>
    </contour>
    <contour>
      <point x="499" y="490" type="line"/>
      <point x="743" y="1400" type="line"/>
      <point x="670" y="1400" type="line"/>
      <point x="228" y="1262" type="line"/>
      <point x="271" y="1124" type="line"/>
      <point x="522" y="1198" type="line"/>
      <point x="328" y="490" type="line"/>
    </contour>
    <contour>
      <point x="1197" y="701" type="curve"/>
      <point x="1343" y="628" type="line"/>
      <point x="1387" y="716"/>
      <point x="1462" y="780"/>
      <point x="1538" y="780" type="curve" smooth="yes"/>
      <point x="1605" y="780"/>
      <point x="1673" y="747"/>
      <point x="1673" y="672" type="curve" smooth="yes"/>
      <point x="1673" y="537"/>
      <point x="1482" y="420"/>
      <point x="1385" y="353" type="curve" smooth="yes"/>
      <point x="1052" y="123" type="line"/>
      <point x="1019" y="0" type="line"/>
      <point x="1693" y="0" type="line"/>
      <point x="1734" y="152" type="line"/>
      <point x="1344" y="152" type="line"/>
      <point x="1551" y="282" type="line" smooth="yes"/>
      <point x="1702" y="377"/>
      <point x="1856" y="505"/>
      <point x="1856" y="699" type="curve" smooth="yes"/>
      <point x="1856" y="858"/>
      <point x="1696" y="931"/>
      <point x="1556" y="931" type="curve" smooth="yes"/>
      <point x="1407" y="931"/>
      <point x="1272" y="845"/>
    </contour>
  </outline>
</glyph>
<glyph name="threequarters" format="2">
  <advance width="2009"/>
  <unicode hex="00BE"/>
  <outline>
    <component base="fraction" xOffset="818"/>
    <contour>
      <point x="415" y="470" type="curve" smooth="yes"/>
      <point x="618" y="470"/>
      <point x="789" y="602"/>
      <point x="789" y="793" type="curve" smooth="yes"/>
      <point x="789" y="929"/>
      <point x="674" y="1004"/>
      <point x="537" y="1021" type="curve"/>
      <point x="886" y="1285" type="line"/>
      <point x="914" y="1400" type="line"/>
      <point x="324" y="1400" type="line"/>
      <point x="291" y="1273" type="line"/>
      <point x="693" y="1273" type="line"/>
      <point x="340" y="1010" type="line"/>
      <point x="354" y="922" type="line"/>
      <point x="378" y="927"/>
      <point x="406" y="928"/>
      <point x="429" y="928" type="curve" smooth="yes"/>
      <point x="561" y="928"/>
      <point x="641" y="875"/>
      <point x="641" y="787" type="curve" smooth="yes"/>
      <point x="641" y="675"/>
      <point x="548" y="602"/>
      <point x="422" y="602" type="curve" smooth="yes"/>
      <point x="325" y="602"/>
      <point x="231" y="642"/>
      <point x="182" y="697" type="curve"/>
      <point x="105" y="583" type="line"/>
      <point x="159" y="519"/>
      <point x="292" y="470"/>
    </contour>
    <contour>
      <point x="1673" y="0" type="line"/>
      <point x="1723" y="185" type="line"/>
      <point x="1866" y="185" type="line"/>
      <point x="1900" y="311" type="line"/>
      <point x="1755" y="311" type="line"/>
      <point x="1808" y="511" type="line"/>
      <point x="1678" y="511" type="line"/>
      <point x="1624" y="311" type="line"/>
      <point x="1325" y="311" type="line"/>
      <point x="1811" y="910" type="line"/>
      <point x="1649" y="910" type="line"/>
      <point x="1154" y="298" type="line"/>
      <point x="1125" y="185" type="line"/>
      <point x="1592" y="185" type="line"/>
      <point x="1542" y="0" type="line"/>
    </contour>
  </outline>
</glyph>
<glyph name="questiondown" format="2">
  <advance width="1001"/>
  <unicode hex="00BF"/>
  <outline>
    <contour>
      <point x="406" y="573" type="line"/>
      <point x="304" y="491" type="line"/>
      <point x="310" y="477" type="line"/>
      <point x="325" y="477" type="line"/>
      <point x="397" y="478"/>
      <point x="457" y="466"/>
      <point x="500" y="449" type="curve" smooth="yes"/>
      <point x="537" y="434"/>
      <point x="558" y="417"/>
      <point x="558" y="394" type="curve" smooth="yes"/>
      <point x="558" y="355"/>
      <point x="527" y="331"/>
      <point x="446" y="303" type="curve" smooth="yes"/>
      <point x="383" y="282"/>
      <point x="310" y="262"/>
      <point x="240" y="234" type="curve" smooth="yes"/>
      <point x="170" y="205"/>
      <point x="101" y="165"/>
      <point x="49" y="101" type="curve" smooth="yes"/>
      <point x="4" y="45"/>
      <point x="-19" y="-23"/>
      <point x="-19" y="-106" type="curve" smooth="yes"/>
      <point x="-19" y="-182"/>
      <point x="6" y="-243"/>
      <point x="61" y="-298" type="curve"/>
      <point x="86" y="-321"/>
      <point x="114" y="-339"/>
      <point x="147" y="-358" type="curve" smooth="yes"/>
      <point x="211" y="-393"/>
      <point x="282" y="-414"/>
      <point x="358" y="-423" type="curve" smooth="yes"/>
      <point x="401" y="-428"/>
      <point x="430" y="-430"/>
      <point x="461" y="-430" type="curve" smooth="yes"/>
      <point x="522" y="-430"/>
      <point x="574" y="-425"/>
      <point x="619" y="-417" type="curve" smooth="yes"/>
      <point x="676" y="-406"/>
      <point x="730" y="-388"/>
      <point x="769" y="-365" type="curve"/>
      <point x="761" y="-149" type="line"/>
      <point x="689" y="-186"/>
      <point x="620" y="-202"/>
      <point x="540" y="-202" type="curve" smooth="yes"/>
      <point x="480" y="-202"/>
      <point x="423" y="-193"/>
      <point x="380" y="-176" type="curve" smooth="yes"/>
      <point x="320" y="-153"/>
      <point x="288" y="-112"/>
      <point x="288" y="-57" type="curve" smooth="yes"/>
      <point x="288" y="11"/>
      <point x="325" y="62"/>
      <point x="401" y="98" type="curve" smooth="yes"/>
      <point x="425" y="109"/>
      <point x="452" y="120"/>
      <point x="481" y="130" type="curve" smooth="yes"/>
      <point x="539" y="149"/>
      <point x="599" y="170"/>
      <point x="655" y="196" type="curve" smooth="yes"/>
      <point x="683" y="209"/>
      <point x="708" y="224"/>
      <point x="730" y="242" type="curve" smooth="yes"/>
      <point x="774" y="278"/>
      <point x="803" y="327"/>
      <point x="803" y="396" type="curve" smooth="yes"/>
      <point x="803" y="445"/>
      <point x="759" y="489"/>
      <point x="688" y="522" type="curve" smooth="yes"/>
      <point x="623" y="553"/>
      <point x="536" y="573"/>
      <point x="440" y="573" type="curve" smooth="yes"/>
    </contour>
    <contour>
      <point x="893" y="890" type="curve" smooth="yes"/>
      <point x="893" y="933"/>
      <point x="876" y="967"/>
      <point x="843" y="994" type="curve"/>
      <point x="812" y="1018"/>
      <point x="775" y="1030"/>
      <point x="732" y="1030" type="curve" smooth="yes"/>
      <point x="684" y="1030"/>
      <point x="639" y="1013"/>
      <point x="600" y="978" type="curve" smooth="yes"/>
      <point x="563" y="946"/>
      <point x="542" y="901"/>
      <point x="542" y="850" type="curve" smooth="yes"/>
      <point x="542" y="806"/>
      <point x="558" y="773"/>
      <point x="590" y="746" type="curve" smooth="yes"/>
      <point x="619" y="722"/>
      <point x="658" y="709"/>
      <point x="701" y="709" type="curve" smooth="yes"/>
      <point x="750" y="709"/>
      <point x="798" y="726"/>
      <point x="835" y="761" type="curve"/>
      <point x="872" y="793"/>
      <point x="893" y="841"/>
    </contour>
  </outline>
</glyph>
<glyph name="AE" format="2">
  <advance width="1794"/>
  <unicode hex="00C6"/>
  <anchor x="1401" y="1400" name="top"/>
  <outline>
    <contour>
      <point x="102" y="0" type="line"/>
      <point x="329" y="315" type="line"/>
      <point x="730" y="315" type="line"/>
      <point x="646" y="0" type="line"/>
      <point x="1537" y="0" type="line"/>
      <point x="1598" y="230" type="line"/>
      <point x="967" y="230" type="line"/>
      <point x="1072" y="619" type="line"/>
      <point x="1620" y="619" type="line"/>
      <point x="1677" y="833" type="line"/>
      <point x="1129" y="833" type="line"/>
      <point x="1220" y="1172" type="line"/>
      <point x="1843" y="1172" type="line"/>
      <point x="1904" y="1400" type="line"/>
      <point x="850" y="1400" type="line"/>
      <point x="-195" y="0" type="line"/>
    </contour>
    <contour>
      <point x="965" y="1181" type="line"/>
      <point x="786" y="525" type="line"/>
      <point x="475" y="525" type="line"/>
    </contour>
  </outline>
</glyph>
<glyph name="Eth" format="2">
  <advance width="1486"/>
  <unicode hex="00D0"/>
  <anchor x="497" y="727" name="bar"/>
  <anchor x="940" y="1400" name="top"/>
  <outline>
    <component base="D"/>
    <contour>
      <point x="910" y="628" type="line"/>
      <point x="963" y="826" type="line"/>
      <point x="108" y="826" type="line"/>
      <point x="55" y="628" type="line"/>
    </contour>
  </outline>
</glyph>
<glyph name="multiply" format="2">
  <advance width="1296"/>
  <unicode hex="00D7"/>
  <outline>
    <contour>
      <point x="668" y="543" type="line"/>
      <point x="918" y="209" type="line"/>
      <point x="1067" y="325" type="line"/>
      <point x="819" y="658" type="line"/>
      <point x="1258" y="997" type="line"/>
      <point x="1161" y="1131" type="line"/>
      <point x="719" y="791" type="line"/>
      <point x="470" y="1125" type="line"/>
      <point x="321" y="1007" type="line"/>
      <point x="570" y="675" type="line"/>
      <point x="129" y="335" type="line"/>
      <point x="227" y="203" type="line"/>
    </contour>
  </outline>
</glyph>
<glyph name="Oslash" format="2">
  <advance width="1662"/>
  <unicode hex="00D8"/>
  <outline>
    <contour>
      <point x="371" y="109" type="line"/>
      <point x="454" y="44"/>
      <point x="665" y="-30"/>
      <point x="792" y="-30" type="qcurve" smooth="yes"/>
      <point x="906" y="-30"/>
      <point x="1120" y="31"/>
      <point x="1308" y="141"/>
      <point x="1464" y="295"/>
      <point x="1576" y="480"/>
      <point x="1637" y="692"/>
      <point x="1637" y="805" type="qcurve" smooth="yes"/>
      <point x="1637" y="907"/>
      <point x="1584" y="1088"/>
      <point x="1531" y="1165" type="qcurve"/>
      <point x="1694" y="1310" type="line"/>
      <point x="1559" y="1456" type="line"/>
      <point x="1385" y="1297" type="line"/>
      <point x="1306" y="1358"/>
      <point x="1104" y="1430"/>
      <point x="977" y="1430" type="qcurve" smooth="yes"/>
      <point x="863" y="1430"/>
      <point x="649" y="1370"/>
      <point x="462" y="1261"/>
      <point x="306" y="1107"/>
      <point x="194" y="920"/>
      <point x="133" y="706"/>
      <point x="133" y="590" type="qcurve" smooth="yes"/>
      <point x="133" y="492"/>
      <point x="182" y="320"/>
      <point x="230" y="247" type="qcurve"/>
      <point x="64" y="98" type="line"/>
      <point x="199" y="-48" type="line"/>
    </contour>
    <contour>
      <point x="451" y="443" type="line"/>
      <point x="427" y="479"/>
      <point x="404" y="567"/>
      <point x="404" y="618" type="qcurve" smooth="yes"/>
      <point x="404" y="733"/>
      <point x="485" y="941"/>
      <point x="630" y="1099"/>
      <point x="829" y="1192"/>
      <point x="947" y="1192" type="qcurve" smooth="yes"/>
      <point x="1016" y="1192"/>
      <point x="1138" y="1154"/>
      <point x="1188" y="1113" type="qcurve"/>
    </contour>
    <contour>
      <point x="821" y="208" type="qcurve" smooth="yes"/>
      <point x="744" y="208"/>
      <point x="614" y="251"/>
      <point x="564" y="291" type="qcurve"/>
      <point x="1318" y="976" type="line"/>
      <point x="1343" y="937"/>
      <point x="1367" y="844"/>
      <point x="1367" y="790" type="qcurve" smooth="yes"/>
      <point x="1367" y="674"/>
      <point x="1287" y="463"/>
      <point x="1142" y="303"/>
      <point x="941" y="208"/>
    </contour>
  </outline>
</glyph>
<glyph name="Thorn" format="2">
  <advance width="1305"/>
  <unicode hex="00DE"/>
  <outline>
    <contour>
      <point x="300" y="0" type="line"/>
      <point x="375" y="279" type="line"/>
      <point x="736" y="279" type="line" smooth="yes"/>
      <point x="858" y="279"/>
      <point x="1065" y="349"/>
      <point x="1217" y="479"/>
      <point x="1303" y="666"/>
      <point x="1303" y="783" type="qcurve" smooth="yes"/>
      <point x="1303" y="870"/>
      <point x="1236" y="1010"/>
      <point x="1109" y="1108"/>
      <point x="927" y="1161"/>
      <point x="812" y="1161" type="qcurve" smooth="yes"/>
      <point x="611" y="1161" type="line"/>
      <point x="675" y="1400" type="line"/>
      <point x="415" y="1400" type="line"/>
      <point x="40" y="0" type="line"/>
    </contour>
    <contour>
      <point x="551" y="935" type="line"/>
      <point x="777" y="935" type="line" smooth="yes"/>
      <point x="840" y="935"/>
      <point x="938" y="913"/>
      <point x="1004" y="867"/>
      <point x="1038" y="797"/>
      <point x="1038" y="750" type="qcurve" smooth="yes"/>
      <point x="1038" y="693"/>
      <point x="999" y="601"/>
      <point x="927" y="536"/>
      <point x="826" y="500"/>
      <point x="766" y="500" type="qcurve" smooth="yes"/>
      <point x="433" y="500" type="line"/>
    </contour>
  </outline>
</glyph>
<glyph name="germandbls" format="2">
  <advance width="1304"/>
  <unicode hex="00DF"/>
  <outline>
    <contour>
      <point x="740" y="-29" type="curve" smooth="yes"/>
      <point x="867" y="-29"/>
      <point x="982" y="8"/>
      <point x="1066" y="73" type="curve" smooth="yes"/>
      <point x="1150" y="137"/>
      <point x="1202" y="230"/>
      <point x="1202" y="341" type="curve" smooth="yes"/>
      <point x="1202" y="400"/>
      <point x="1185" y="447"/>
      <point x="1158" y="488" type="curve" smooth="yes"/>
      <point x="1131" y="529"/>
      <point x="1096" y="564"/>
      <point x="1061" y="596" type="curve"/>
      <point x="1038" y="619"/>
      <point x="1015" y="639"/>
      <point x="996" y="661" type="curve" smooth="yes"/>
      <point x="977" y="683"/>
      <point x="966" y="705"/>
      <point x="966" y="732" type="curve" smooth="yes"/>
      <point x="966" y="759"/>
      <point x="979" y="783"/>
      <point x="999" y="807" type="curve" smooth="yes"/>
      <point x="1018" y="831"/>
      <point x="1044" y="855"/>
      <point x="1071" y="880" type="curve"/>
      <point x="1108" y="917"/>
      <point x="1152" y="954"/>
      <point x="1186" y="1001" type="curve" smooth="yes"/>
      <point x="1220" y="1048"/>
      <point x="1244" y="1102"/>
      <point x="1244" y="1173" type="curve" smooth="yes"/>
      <point x="1244" y="1260"/>
      <point x="1201" y="1334"/>
      <point x="1125" y="1387" type="curve" smooth="yes"/>
      <point x="1048" y="1439"/>
      <point x="936" y="1470"/>
      <point x="799" y="1470" type="curve" smooth="yes"/>
      <point x="658" y="1470"/>
      <point x="546" y="1428"/>
      <point x="459" y="1351" type="curve" smooth="yes"/>
      <point x="371" y="1274"/>
      <point x="310" y="1162"/>
      <point x="273" y="1019" type="curve" smooth="yes"/>
      <point x="-3" y="0" type="line"/>
      <point x="253" y="0" type="line"/>
      <point x="521" y="992" type="line" smooth="yes"/>
      <point x="544" y="1077"/>
      <point x="572" y="1142"/>
      <point x="613" y="1186" type="curve" smooth="yes"/>
      <point x="653" y="1230"/>
      <point x="706" y="1253"/>
      <point x="777" y="1253" type="curve" smooth="yes"/>
      <point x="838" y="1253"/>
      <point x="889" y="1241"/>
      <point x="925" y="1218" type="curve" smooth="yes"/>
      <point x="961" y="1194"/>
      <point x="981" y="1160"/>
      <point x="981" y="1116" type="curve" smooth="yes"/>
      <point x="981" y="1077"/>
      <point x="964" y="1046"/>
      <point x="940" y="1016" type="curve" smooth="yes"/>
      <point x="915" y="986"/>
      <point x="881" y="957"/>
      <point x="846" y="924" type="curve" smooth="yes"/>
      <point x="814" y="893"/>
      <point x="777" y="860"/>
      <point x="749" y="823" type="curve" smooth="yes"/>
      <point x="720" y="786"/>
      <point x="699" y="745"/>
      <point x="699" y="697" type="curve" smooth="yes"/>
      <point x="699" y="650"/>
      <point x="717" y="611"/>
      <point x="743" y="576" type="curve" smooth="yes"/>
      <point x="769" y="541"/>
      <point x="802" y="512"/>
      <point x="831" y="485" type="curve"/>
      <point x="860" y="460"/>
      <point x="886" y="435"/>
      <point x="904" y="410" type="curve" smooth="yes"/>
      <point x="922" y="385"/>
      <point x="933" y="357"/>
      <point x="933" y="322" type="curve" smooth="yes"/>
      <point x="933" y="273"/>
      <point x="912" y="235"/>
      <point x="876" y="210" type="curve" smooth="yes"/>
      <point x="840" y="185"/>
      <point x="790" y="171"/>
      <point x="731" y="171" type="curve" smooth="yes"/>
      <point x="667" y="171"/>
      <point x="604" y="188"/>
      <point x="545" y="229" type="curve"/>
      <point x="438" y="41" type="line"/>
      <point x="487" y="13"/>
      <point x="542" y="-4"/>
      <point x="595" y="-15" type="curve" smooth="yes"/>
      <point x="647" y="-26"/>
      <point x="699" y="-29"/>
    </contour>
  </outline>
</glyph>
<glyph name="ae" format="2">
  <advance width="1827"/>
  <unicode hex="00E6"/>
  <outline>
    <contour>
      <point x="368" y="-30" type="curve" smooth="yes"/>
      <point x="476" y="-30"/>
      <point x="587" y="-1"/>
      <point x="684" y="59" type="curve" smooth="yes"/>
      <point x="781" y="118"/>
      <point x="864" y="208"/>
      <point x="913" y="328" type="curve"/>
      <point x="828" y="255" type="line"/>
      <point x="843" y="164"/>
      <point x="889" y="93"/>
      <point x="961" y="45" type="curve" smooth="yes"/>
      <point x="1032" y="-4"/>
      <point x="1128" y="-30"/>
      <point x="1240" y="-30" type="curve" smooth="yes"/>
      <point x="1299" y="-30"/>
      <point x="1360" y="-21"/>
      <point x="1420" y="-5" type="curve" smooth="yes"/>
      <point x="1479" y="12"/>
      <point x="1535" y="35"/>
      <point x="1580" y="63" type="curve"/>
      <point x="1536" y="252" type="line"/>
      <point x="1448" y="200"/>
      <point x="1361" y="174"/>
      <point x="1270" y="174" type="curve" smooth="yes"/>
      <point x="1178" y="174"/>
      <point x="1102" y="201"/>
      <point x="1053" y="247" type="curve" smooth="yes"/>
      <point x="1004" y="293"/>
      <point x="980" y="358"/>
      <point x="989" y="438" type="curve"/>
      <point x="1734" y="438" type="line"/>
      <point x="1785" y="607"/>
      <point x="1770" y="756"/>
      <point x="1701" y="861" type="curve" smooth="yes"/>
      <point x="1632" y="966"/>
      <point x="1509" y="1030"/>
      <point x="1345" y="1030" type="curve" smooth="yes"/>
      <point x="1169" y="1030"/>
      <point x="1028" y="962"/>
      <point x="920" y="814" type="curve"/>
      <point x="1012" y="814" type="line"/>
      <point x="971" y="954"/>
      <point x="840" y="1035"/>
      <point x="632" y="1035" type="curve" smooth="yes"/>
      <point x="487" y="1035"/>
      <point x="356" y="999"/>
      <point x="255" y="931" type="curve"/>
      <point x="283" y="744" type="line"/>
      <point x="322" y="771"/>
      <point x="368" y="792"/>
      <point x="420" y="808" type="curve" smooth="yes"/>
      <point x="471" y="824"/>
      <point x="525" y="833"/>
      <point x="574" y="833" type="curve" smooth="yes"/>
      <point x="750" y="833"/>
      <point x="830" y="755"/>
      <point x="794" y="606" type="curve"/>
      <point x="732" y="384" type="line" smooth="yes"/>
      <point x="713" y="317"/>
      <point x="675" y="262"/>
      <point x="624" y="223" type="curve" smooth="yes"/>
      <point x="572" y="184"/>
      <point x="506" y="163"/>
      <point x="433" y="163" type="curve" smooth="yes"/>
      <point x="385" y="163"/>
      <point x="345" y="174"/>
      <point x="318" y="194" type="curve" smooth="yes"/>
      <point x="290" y="214"/>
      <point x="274" y="244"/>
      <point x="274" y="280" type="curve" smooth="yes"/>
      <point x="274" y="355"/>
      <point x="328" y="405"/>
      <point x="418" y="432" type="curve" smooth="yes"/>
      <point x="508" y="459"/>
      <point x="636" y="463"/>
      <point x="784" y="443" type="curve"/>
      <point x="828" y="601" type="line"/>
      <point x="585" y="629"/>
      <point x="386" y="612"/>
      <point x="248" y="553" type="curve" smooth="yes"/>
      <point x="110" y="493"/>
      <point x="31" y="390"/>
      <point x="31" y="249" type="curve" smooth="yes"/>
      <point x="31" y="164"/>
      <point x="64" y="95"/>
      <point x="122" y="47" type="curve" smooth="yes"/>
      <point x="180" y="-2"/>
      <point x="264" y="-30"/>
    </contour>
    <contour>
      <point x="1028" y="620" type="line"/>
      <point x="1041" y="685"/>
      <point x="1074" y="739"/>
      <point x="1122" y="777" type="curve" smooth="yes"/>
      <point x="1169" y="815"/>
      <point x="1232" y="836"/>
      <point x="1305" y="836" type="curve" smooth="yes"/>
      <point x="1382" y="836"/>
      <point x="1440" y="816"/>
      <point x="1477" y="779" type="curve" smooth="yes"/>
      <point x="1513" y="742"/>
      <point x="1531" y="688"/>
      <point x="1524" y="620" type="curve"/>
    </contour>
  </outline>
</glyph>
<glyph name="eth" format="2">
  <advance width="1204"/>
  <unicode hex="00F0"/>
  <outline>
    <contour>
      <point x="522" y="-30" type="curve" smooth="yes"/>
      <point x="701" y="-30"/>
      <point x="858" y="44"/>
      <point x="971" y="166" type="curve" smooth="yes"/>
      <point x="1083" y="288"/>
      <point x="1152" y="457"/>
      <point x="1152" y="649" type="curve" smooth="yes"/>
      <point x="1152" y="800"/>
      <point x="1110" y="944"/>
      <point x="1031" y="1081" type="curve" smooth="yes"/>
      <point x="951" y="1217"/>
      <point x="836" y="1344"/>
      <point x="688" y="1459" type="curve"/>
      <point x="472" y="1334" type="line"/>
      <point x="688" y="1178"/>
      <point x="825" y="1001"/>
      <point x="885" y="821" type="curve"/>
      <point x="927" y="830" type="line"/>
      <point x="887" y="874"/>
      <point x="837" y="903"/>
      <point x="784" y="923" type="curve" smooth="yes"/>
      <point x="731" y="942"/>
      <point x="674" y="950"/>
      <point x="621" y="950" type="curve" smooth="yes"/>
      <point x="470" y="950"/>
      <point x="328" y="889"/>
      <point x="223" y="789" type="curve" smooth="yes"/>
      <point x="118" y="689"/>
      <point x="50" y="551"/>
      <point x="50" y="398" type="curve" smooth="yes"/>
      <point x="50" y="279"/>
      <point x="96" y="172"/>
      <point x="178" y="95" type="curve" smooth="yes"/>
      <point x="260" y="18"/>
      <point x="378" y="-30"/>
    </contour>
    <contour>
      <point x="550" y="189" type="curve" smooth="yes"/>
      <point x="475" y="189"/>
      <point x="415" y="212"/>
      <point x="373" y="252" type="curve" smooth="yes"/>
      <point x="331" y="292"/>
      <point x="306" y="350"/>
      <point x="306" y="418" type="curve" smooth="yes"/>
      <point x="306" y="511"/>
      <point x="338" y="596"/>
      <point x="394" y="659" type="curve" smooth="yes"/>
      <point x="450" y="722"/>
      <point x="529" y="761"/>
      <point x="621" y="761" type="curve" smooth="yes"/>
      <point x="697" y="761"/>
      <point x="759" y="738"/>
      <point x="802" y="698" type="curve" smooth="yes"/>
      <point x="845" y="657"/>
      <point x="869" y="598"/>
      <point x="869" y="527" type="curve" smooth="yes"/>
      <point x="869" y="438"/>
      <point x="838" y="355"/>
      <point x="783" y="292" type="curve" smooth="yes"/>
      <point x="727" y="229"/>
      <point x="647" y="189"/>
    </contour>
    <contour>
      <point x="731" y="1150" type="line"/>
      <point x="732" y="1158" type="line"/>
      <point x="1076" y="1297" type="line"/>
      <point x="1119" y="1461" type="line"/>
      <point x="760" y="1316" type="line"/>
      <point x="758" y="1308" type="line"/>
      <point x="406" y="1170" type="line"/>
      <point x="362" y="1006" type="line"/>
    </contour>
  </outline>
</glyph>
<glyph name="divide" format="2">
  <advance width="1296"/>
  <unicode hex="00F7"/>
  <outline>
    <contour>
      <point x="1212" y="576" type="line"/>
      <point x="1260" y="758" type="line"/>
      <point x="193" y="758" type="line"/>
      <point x="145" y="576" type="line"/>
    </contour>
    <contour>
      <point x="580" y="145" type="qcurve" smooth="yes"/>
      <point x="612" y="145"/>
      <point x="671" y="171"/>
      <point x="717" y="213"/>
      <point x="745" y="270"/>
      <point x="745" y="301" type="qcurve" smooth="yes"/>
      <point x="745" y="327"/>
      <point x="726" y="371"/>
      <point x="693" y="404"/>
      <point x="647" y="422"/>
      <point x="620" y="422" type="qcurve" smooth="yes"/>
      <point x="588" y="422"/>
      <point x="529" y="397"/>
      <point x="484" y="354"/>
      <point x="456" y="297"/>
      <point x="456" y="265" type="qcurve" smooth="yes"/>
      <point x="456" y="240"/>
      <point x="475" y="197"/>
      <point x="508" y="164"/>
      <point x="553" y="145"/>
    </contour>
    <contour>
      <point x="787" y="909" type="qcurve" smooth="yes"/>
      <point x="819" y="909"/>
      <point x="879" y="935"/>
      <point x="924" y="978"/>
      <point x="951" y="1034"/>
      <point x="951" y="1065" type="qcurve" smooth="yes"/>
      <point x="951" y="1091"/>
      <point x="933" y="1135"/>
      <point x="900" y="1168"/>
      <point x="854" y="1186"/>
      <point x="826" y="1186" type="qcurve" smooth="yes"/>
      <point x="795" y="1186"/>
      <point x="736" y="1161"/>
      <point x="689" y="1119"/>
      <point x="661" y="1063"/>
      <point x="661" y="1031" type="qcurve" smooth="yes"/>
      <point x="661" y="1006"/>
      <point x="680" y="961"/>
      <point x="713" y="928"/>
      <point x="759" y="909"/>
    </contour>
  </outline>
</glyph>
<glyph name="oslash" format="2">
  <advance width="1239"/>
  <unicode hex="00F8"/>
  <anchor x="753" y="1000" name="top"/>
  <outline>
    <contour>
      <point x="259" y="58" type="line"/>
      <point x="335" y="1"/>
      <point x="437" y="-30"/>
      <point x="553" y="-30" type="curve" smooth="yes"/>
      <point x="875" y="-30"/>
      <point x="1173" y="243"/>
      <point x="1173" y="567" type="curve" smooth="yes"/>
      <point x="1173" y="665"/>
      <point x="1148" y="755"/>
      <point x="1097" y="829" type="curve"/>
      <point x="1222" y="944" type="line"/>
      <point x="1109" y="1065" type="line"/>
      <point x="977" y="943" type="line"/>
      <point x="901" y="1000"/>
      <point x="800" y="1030"/>
      <point x="684" y="1030" type="curve" smooth="yes"/>
      <point x="361" y="1030"/>
      <point x="64" y="760"/>
      <point x="64" y="432" type="curve" smooth="yes"/>
      <point x="64" y="336"/>
      <point x="89" y="246"/>
      <point x="138" y="173" type="curve"/>
      <point x="14" y="58" type="line"/>
      <point x="126" y="-64" type="line"/>
    </contour>
    <contour>
      <point x="329" y="338" type="line"/>
      <point x="312" y="364"/>
      <point x="305" y="399"/>
      <point x="305" y="436" type="curve" smooth="yes"/>
      <point x="305" y="639"/>
      <point x="447" y="820"/>
      <point x="665" y="820" type="curve" smooth="yes"/>
      <point x="721" y="820"/>
      <point x="770" y="805"/>
      <point x="808" y="778" type="curve"/>
    </contour>
    <contour>
      <point x="562" y="180" type="curve" smooth="yes"/>
      <point x="506" y="180"/>
      <point x="460" y="195"/>
      <point x="424" y="222" type="curve"/>
      <point x="909" y="664" type="line"/>
      <point x="925" y="640"/>
      <point x="933" y="606"/>
      <point x="933" y="571" type="curve" smooth="yes"/>
      <point x="933" y="358"/>
      <point x="782" y="180"/>
    </contour>
  </outline>
</glyph>
<glyph name="thorn" format="2">
  <advance width="1313"/>
  <unicode hex="00FE"/>
  <outline>
    <contour>
      <point x="156" y="-420" type="line"/>
      <point x="306" y="138" type="line"/>
      <point x="379" y="36"/>
      <point x="505" y="-30"/>
      <point x="668" y="-30" type="curve" smooth="yes"/>
      <point x="999" y="-30"/>
      <point x="1253" y="264"/>
      <point x="1253" y="596" type="curve" smooth="yes"/>
      <point x="1253" y="843"/>
      <point x="1085" y="1030"/>
      <point x="806" y="1030" type="curve" smooth="yes"/>
      <point x="685" y="1030"/>
      <point x="594" y="987"/>
      <point x="515" y="922" type="curve"/>
      <point x="656" y="1440" type="line"/>
      <point x="401" y="1440" type="line"/>
      <point x="-99" y="-420" type="line"/>
    </contour>
    <contour>
      <point x="658" y="194" type="curve" smooth="yes"/>
      <point x="499" y="194"/>
      <point x="395" y="292"/>
      <point x="395" y="445" type="curve" smooth="yes"/>
      <point x="395" y="630"/>
      <point x="528" y="806"/>
      <point x="734" y="806" type="curve" smooth="yes"/>
      <point x="891" y="806"/>
      <point x="995" y="712"/>
      <point x="995" y="564" type="curve" smooth="yes"/>
      <point x="995" y="360"/>
      <point x="855" y="194"/>
    </contour>
  </outline>
</glyph>
<glyph name="aogonek" format="2">
  <advance width="1131"/>
  <unicode hex="0105"/>
  <anchor x="407" y="-0" name="bottom"/>
  <anchor x="672" y="1000" name="top"/>
  <anchor x="864" y="-0" name="ogonek"/>
  <outline>
    <component base="a"/>
    <contour>
      <point x="594" y="-450" type="curve" smooth="yes"/>
      <point x="655" y="-450"/>
      <point x="719" y="-436"/>
      <point x="780" y="-402" type="curve"/>
      <point x="757" y="-255" type="line"/>
      <point x="726" y="-277"/>
      <point x="687" y="-288"/>
      <point x="651" y="-288" type="curve" smooth="yes"/>
      <point x="605" y="-288"/>
      <point x="571" y="-267"/>
      <point x="571" y="-210" type="curve"/>
      <point x="570" y="-95"/>
      <point x="700" y="-40"/>
      <point x="863" y="0" type="curve"/>
      <point x="854" y="92" type="line"/>
      <point x="596" y="49"/>
      <point x="389" y="-81"/>
      <point x="389" y="-261" type="curve"/>
      <point x="389" y="-382"/>
      <point x="473" y="-450"/>
    </contour>
  </outline>
</glyph>
<glyph name="dcroat" format="2">
  <advance width="1309"/>
  <unicode hex="0111"/>
  <outline>
    <contour>
      <point x="1466" y="1135" type="line"/>
      <point x="1507" y="1293" type="line"/>
      <point x="797" y="1293" type="line"/>
      <point x="756" y="1135" type="line"/>
    </contour>
    <contour>
      <point x="507" y="-30" type="curve" smooth="yes"/>
      <point x="596" y="-30"/>
      <point x="669" y="-10"/>
      <point x="732" y="25" type="curve" smooth="yes"/>
      <point x="795" y="59"/>
      <point x="846" y="108"/>
      <point x="889" y="167" type="curve"/>
      <point x="871" y="247" type="line"/>
      <point x="804" y="0" type="line"/>
      <point x="1030" y="0" type="line"/>
      <point x="1417" y="1440" type="line"/>
      <point x="1162" y="1440" type="line"/>
      <point x="984" y="775" type="line"/>
      <point x="1052" y="806" type="line"/>
      <point x="1017" y="877"/>
      <point x="963" y="932"/>
      <point x="894" y="971" type="curve" smooth="yes"/>
      <point x="825" y="1010"/>
      <point x="739" y="1030"/>
      <point x="643" y="1030" type="curve" smooth="yes"/>
      <point x="479" y="1030"/>
      <point x="333" y="958"/>
      <point x="228" y="843" type="curve" smooth="yes"/>
      <point x="123" y="728"/>
      <point x="59" y="572"/>
      <point x="59" y="405" type="curve" smooth="yes"/>
      <point x="59" y="274"/>
      <point x="105" y="165"/>
      <point x="183" y="89" type="curve" smooth="yes"/>
      <point x="261" y="13"/>
      <point x="374" y="-30"/>
    </contour>
    <contour>
      <point x="576" y="194" type="curve" smooth="yes"/>
      <point x="497" y="194"/>
      <point x="433" y="218"/>
      <point x="388" y="262" type="curve" smooth="yes"/>
      <point x="343" y="305"/>
      <point x="317" y="366"/>
      <point x="317" y="441" type="curve" smooth="yes"/>
      <point x="317" y="540"/>
      <point x="351" y="630"/>
      <point x="410" y="697" type="curve" smooth="yes"/>
      <point x="469" y="764"/>
      <point x="553" y="806"/>
      <point x="654" y="806" type="curve" smooth="yes"/>
      <point x="733" y="806"/>
      <point x="798" y="782"/>
      <point x="844" y="739" type="curve" smooth="yes"/>
      <point x="890" y="696"/>
      <point x="915" y="633"/>
      <point x="915" y="557" type="curve" smooth="yes"/>
      <point x="915" y="460"/>
      <point x="881" y="369"/>
      <point x="822" y="303" type="curve" smooth="yes"/>
      <point x="762" y="237"/>
      <point x="677" y="194"/>
    </contour>
  </outline>
</glyph>
<glyph name="eogonek" format="2">
  <advance width="1167"/>
  <unicode hex="0119"/>
  <anchor x="480" y="-0" name="bottom"/>
  <anchor x="701" y="1000" name="top"/>
  <anchor x="858" y="-0" name="ogonek"/>
  <outline>
    <component base="e"/>
    <contour>
      <point x="589" y="-450" type="curve" smooth="yes"/>
      <point x="650" y="-450"/>
      <point x="714" y="-436"/>
      <point x="775" y="-402" type="curve"/>
      <point x="752" y="-255" type="line"/>
      <point x="721" y="-277"/>
      <point x="682" y="-288"/>
      <point x="646" y="-288" type="curve" smooth="yes"/>
      <point x="600" y="-288"/>
      <point x="566" y="-267"/>
      <point x="566" y="-210" type="curve"/>
      <point x="565" y="-95"/>
      <point x="695" y="-40"/>
      <point x="858" y="0" type="curve"/>
      <point x="849" y="92" type="line"/>
      <point x="591" y="49"/>
      <point x="384" y="-81"/>
      <point x="384" y="-261" type="curve"/>
      <point x="384" y="-382"/>
      <point x="468" y="-450"/>
    </contour>
  </outline>
</glyph>
<glyph name="Hbar" format="2">
  <advance width="1553"/>
  <unicode hex="0126"/>
  <outline>
    <contour>
      <point x="1221" y="0" type="line"/>
      <point x="1596" y="1400" type="line"/>
      <point x="1336" y="1400" type="line"/>
      <point x="961" y="0" type="line"/>
    </contour>
    <contour>
      <point x="325" y="0" type="line"/>
      <point x="700" y="1400" type="line"/>
      <point x="440" y="1400" type="line"/>
      <point x="65" y="0" type="line"/>
    </contour>
    <contour>
      <point x="1141" y="558" type="line"/>
      <point x="1204" y="796" type="line"/>
      <point x="509" y="796" type="line"/>
      <point x="446" y="558" type="line"/>
    </contour>
    <contour>
      <point x="1667" y="993" type="line"/>
      <point x="1720" y="1191" type="line"/>
      <point x="204" y="1191" type="line"/>
      <point x="151" y="993" type="line"/>
    </contour>
  </outline>
</glyph>
<glyph name="idotless" format="2">
  <advance width="554"/>
  <unicode hex="0131"/>
  <anchor x="143" y="0" name="bottom"/>
  <anchor x="271" y="0" name="ogonek"/>
  <anchor x="411" y="1000" name="top"/>
  <outline>
    <contour>
      <point x="271" y="0" type="line"/>
      <point x="539" y="1000" type="line"/>
      <point x="283" y="1000" type="line"/>
      <point x="15" y="0" type="line"/>
    </contour>
  </outline>
</glyph>
<glyph name="kgreenlandic" format="2">
  <advance width="1149"/>
  <unicode hex="0138"/>
  <outline>
    <contour>
      <point x="270" y="0" type="line"/>
      <point x="354" y="312" type="line"/>
      <point x="515" y="443" type="line"/>
      <point x="687" y="0" type="line"/>
      <point x="979" y="0" type="line"/>
      <point x="737" y="600" type="line"/>
      <point x="1199" y="1000" type="line"/>
      <point x="882" y="1000" type="line"/>
      <point x="442" y="637" type="line"/>
      <point x="541" y="1000" type="line"/>
      <point x="283" y="1000" type="line"/>
      <point x="14" y="0" type="line"/>
    </contour>
  </outline>
</glyph>
<glyph name="Lslash" format="2">
  <advance width="1144"/>
  <unicode hex="0141"/>
  <anchor x="473" y="-0" name="bottom"/>
  <anchor x="693" y="1440" name="caron"/>
  <anchor x="550" y="1400" name="top"/>
  <outline>
    <component base="L" xOffset="-1"/>
    <contour>
      <point x="358" y="576" type="line"/>
      <point x="352" y="551" type="line"/>
      <point x="1129" y="875" type="line"/>
      <point x="1059" y="1045" type="line"/>
      <point x="411" y="774" type="line"/>
      <point x="417" y="799" type="line"/>
      <point x="3" y="627" type="line"/>
      <point x="72" y="458" type="line"/>
    </contour>
  </outline>
</glyph>
<glyph name="lslash" format="2">
  <advance width="744"/>
  <unicode hex="0142"/>
  <anchor x="157" y="0" name="bottom"/>
  <anchor x="675" y="1440" name="caron"/>
  <anchor x="547" y="1440" name="top"/>
  <outline>
    <component base="l" xOffset="9"/>
    <contour>
      <point x="399" y="566" type="line"/>
      <point x="393" y="541" type="line"/>
      <point x="780" y="698" type="line"/>
      <point x="710" y="877" type="line"/>
      <point x="433" y="764" type="line"/>
      <point x="437" y="789" type="line"/>
      <point x="49" y="627" type="line"/>
      <point x="118" y="450" type="line"/>
    </contour>
  </outline>
</glyph>
<glyph name="Eng" format="2">
  <advance width="1524"/>
  <unicode hex="014A"/>
  <outline>
    <contour>
      <point x="1093" y="374" type="line"/>
      <point x="669" y="1400" type="line"/>
      <point x="420" y="1400" type="line"/>
      <point x="45" y="0" type="line"/>
      <point x="298" y="0" type="line"/>
      <point x="564" y="990" type="line"/>
      <point x="986" y="-53" type="line"/>
    </contour>
    <contour>
      <point x="809" y="-450" type="curve" smooth="yes"/>
      <point x="898" y="-450"/>
      <point x="977" y="-419"/>
      <point x="1041" y="-363" type="curve" smooth="yes"/>
      <point x="1105" y="-306"/>
      <point x="1153" y="-222"/>
      <point x="1181" y="-115" type="curve" smooth="yes"/>
      <point x="1588" y="1400" type="line"/>
      <point x="1335" y="1400" type="line"/>
      <point x="930" y="-107" type="line" smooth="yes"/>
      <point x="906" y="-192"/>
      <point x="864" y="-234"/>
      <point x="788" y="-234" type="curve" smooth="yes"/>
      <point x="735" y="-234"/>
      <point x="704" y="-224"/>
      <point x="672" y="-204" type="curve"/>
      <point x="572" y="-386" type="line"/>
      <point x="603" y="-406"/>
      <point x="635" y="-421"/>
      <point x="674" y="-433" type="curve" smooth="yes"/>
      <point x="713" y="-444"/>
      <point x="757" y="-450"/>
    </contour>
  </outline>
</glyph>
<glyph name="eng" format="2">
  <advance width="1253"/>
  <unicode hex="014B"/>
  <outline>
    <contour>
      <point x="574" y="-450" type="curve" smooth="yes"/>
      <point x="753" y="-450"/>
      <point x="891" y="-330"/>
      <point x="948" y="-115" type="curve" smooth="yes"/>
      <point x="1155" y="654" type="line"/>
      <point x="1210" y="865"/>
      <point x="1067" y="1030"/>
      <point x="848" y="1030" type="curve" smooth="yes"/>
      <point x="728" y="1030"/>
      <point x="604" y="980"/>
      <point x="504" y="863" type="curve"/>
      <point x="540" y="1000" type="line"/>
      <point x="284" y="1000" type="line"/>
      <point x="15" y="0" type="line"/>
      <point x="271" y="0" type="line"/>
      <point x="420" y="553" type="line"/>
      <point x="461" y="712"/>
      <point x="577" y="799"/>
      <point x="710" y="799" type="curve" smooth="yes"/>
      <point x="853" y="799"/>
      <point x="915" y="716"/>
      <point x="877" y="574" type="curve" smooth="yes"/>
      <point x="698" y="-94" type="line"/>
      <point x="675" y="-190"/>
      <point x="626" y="-233"/>
      <point x="551" y="-233" type="curve" smooth="yes"/>
      <point x="507" y="-233"/>
      <point x="478" y="-224"/>
      <point x="443" y="-203" type="curve"/>
      <point x="342" y="-386" type="line"/>
      <point x="381" y="-420"/>
      <point x="473" y="-450"/>
    </contour>
  </outline>
</glyph>
<glyph name="OE" format="2">
  <advance width="2400"/>
  <unicode hex="0152"/>
  <outline>
    <contour>
      <point x="779" y="-30" type="curve" smooth="yes"/>
      <point x="1014" y="-30"/>
      <point x="1218" y="60"/>
      <point x="1352" y="224" type="curve"/>
      <point x="1340" y="258" type="line"/>
      <point x="1268" y="0" type="line"/>
      <point x="2132" y="0" type="line"/>
      <point x="2179" y="181" type="line"/>
      <point x="1487" y="181" type="line"/>
      <point x="1613" y="647" type="line"/>
      <point x="2208" y="647" type="line"/>
      <point x="2254" y="818" type="line"/>
      <point x="1658" y="818" type="line"/>
      <point x="1766" y="1220" type="line"/>
      <point x="2452" y="1220" type="line"/>
      <point x="2500" y="1400" type="line"/>
      <point x="1616" y="1400" type="line"/>
      <point x="1517" y="1018" type="line"/>
      <point x="1563" y="1055" type="line"/>
      <point x="1469" y="1310"/>
      <point x="1236" y="1430"/>
      <point x="968" y="1430" type="curve" smooth="yes"/>
      <point x="523" y="1430"/>
      <point x="154" y="1042"/>
      <point x="154" y="587" type="curve" smooth="yes"/>
      <point x="154" y="235"/>
      <point x="407" y="-30"/>
    </contour>
    <contour>
      <point x="832" y="162" type="curve" smooth="yes"/>
      <point x="558" y="162"/>
      <point x="367" y="336"/>
      <point x="367" y="605" type="curve" smooth="yes"/>
      <point x="367" y="941"/>
      <point x="620" y="1238"/>
      <point x="971" y="1238" type="curve" smooth="yes"/>
      <point x="1251" y="1238"/>
      <point x="1434" y="1058"/>
      <point x="1434" y="791" type="curve" smooth="yes"/>
      <point x="1434" y="446"/>
      <point x="1176" y="162"/>
    </contour>
  </outline>
</glyph>
<glyph name="oe" format="2">
  <advance width="2002"/>
  <unicode hex="0153"/>
  <outline>
    <contour>
      <point x="543" y="-30" type="curve" smooth="yes"/>
      <point x="862" y="-30"/>
      <point x="1149" y="246"/>
      <point x="1149" y="576" type="curve" smooth="yes"/>
      <point x="1149" y="827"/>
      <point x="970" y="1030"/>
      <point x="676" y="1030" type="curve" smooth="yes"/>
      <point x="353" y="1030"/>
      <point x="60" y="754"/>
      <point x="60" y="428" type="curve" smooth="yes"/>
      <point x="60" y="173"/>
      <point x="244" y="-30"/>
    </contour>
    <contour>
      <point x="578" y="194" type="curve" smooth="yes"/>
      <point x="419" y="194"/>
      <point x="316" y="291"/>
      <point x="316" y="443" type="curve" smooth="yes"/>
      <point x="316" y="633"/>
      <point x="449" y="806"/>
      <point x="654" y="806" type="curve" smooth="yes"/>
      <point x="812" y="806"/>
      <point x="915" y="711"/>
      <point x="915" y="557" type="curve" smooth="yes"/>
      <point x="915" y="369"/>
      <point x="782" y="194"/>
    </contour>
    <contour>
      <point x="1400" y="-30" type="curve" smooth="yes"/>
      <point x="1524" y="-30"/>
      <point x="1671" y="3"/>
      <point x="1771" y="60" type="curve"/>
      <point x="1726" y="249" type="line"/>
      <point x="1636" y="200"/>
      <point x="1540" y="174"/>
      <point x="1444" y="174" type="curve" smooth="yes"/>
      <point x="1259" y="174"/>
      <point x="1111" y="268"/>
      <point x="1136" y="438" type="curve"/>
      <point x="1924" y="438" type="line"/>
      <point x="2036" y="756"/>
      <point x="1865" y="1030"/>
      <point x="1519" y="1030" type="curve" smooth="yes"/>
      <point x="1183" y="1030"/>
      <point x="922" y="748"/>
      <point x="922" y="402" type="curve" smooth="yes"/>
      <point x="922" y="142"/>
      <point x="1104" y="-30"/>
    </contour>
    <contour>
      <point x="1188" y="620" type="line"/>
      <point x="1220" y="756"/>
      <point x="1332" y="836"/>
      <point x="1478" y="836" type="curve" smooth="yes"/>
      <point x="1634" y="836"/>
      <point x="1720" y="765"/>
      <point x="1710" y="620" type="curve"/>
    </contour>
  </outline>
</glyph>
<glyph name="Uogonek" format="2">
  <advance width="1493"/>
  <unicode hex="0172"/>
  <anchor x="989" y="1400" name="top"/>
  <outline>
    <contour>
      <point x="709" y="-450" type="curve" smooth="yes"/>
      <point x="770" y="-450"/>
      <point x="834" y="-436"/>
      <point x="895" y="-402" type="curve"/>
      <point x="872" y="-255" type="line"/>
      <point x="842" y="-277"/>
      <point x="802" y="-288"/>
      <point x="766" y="-288" type="curve" smooth="yes"/>
      <point x="720" y="-288"/>
      <point x="687" y="-267"/>
      <point x="686" y="-210" type="curve" smooth="yes"/>
      <point x="686" y="-108"/>
      <point x="769" y="-39"/>
      <point x="886" y="4" type="curve"/>
      <point x="1115" y="81"/>
      <point x="1268" y="281"/>
      <point x="1340" y="556" type="curve" smooth="yes"/>
      <point x="1566" y="1400" type="line"/>
      <point x="1305" y="1400" type="line"/>
      <point x="1077" y="553" type="line" smooth="yes"/>
      <point x="1014" y="314"/>
      <point x="874" y="215"/>
      <point x="696" y="215" type="curve" smooth="yes"/>
      <point x="469" y="215"/>
      <point x="386" y="340"/>
      <point x="444" y="553" type="curve" smooth="yes"/>
      <point x="672" y="1400" type="line"/>
      <point x="412" y="1400" type="line"/>
      <point x="186" y="556" type="line" smooth="yes"/>
      <point x="93" y="218"/>
      <point x="271" y="-10"/>
      <point x="615" y="-29" type="curve"/>
      <point x="547" y="-93"/>
      <point x="504" y="-174"/>
      <point x="505" y="-261" type="curve" smooth="yes"/>
      <point x="505" y="-382"/>
      <point x="588" y="-450"/>
    </contour>
  </outline>
</glyph>
<glyph name="uogonek" format="2">
  <advance width="1234"/>
  <unicode hex="0173"/>
  <outline>
    <contour>
      <point x="405" y="-30" type="qcurve" smooth="yes"/>
      <point x="460" y="-30"/>
      <point x="559" y="-7"/>
      <point x="649" y="35"/>
      <point x="726" y="95"/>
      <point x="759" y="132" type="qcurve"/>
      <point x="725" y="0" type="line"/>
      <point x="951" y="0" type="line"/>
      <point x="1220" y="1000" type="line"/>
      <point x="964" y="1000" type="line"/>
      <point x="812" y="436" type="line" smooth="yes"/>
      <point x="797" y="380"/>
      <point x="742" y="292"/>
      <point x="668" y="233"/>
      <point x="580" y="203"/>
      <point x="532" y="203" type="qcurve" smooth="yes"/>
      <point x="482" y="203"/>
      <point x="412" y="230"/>
      <point x="371" y="283"/>
      <point x="362" y="363"/>
      <point x="373" y="415" type="qcurve"/>
      <point x="530" y="1000" type="line"/>
      <point x="274" y="1000" type="line"/>
      <point x="105" y="371" type="line"/>
      <point x="82" y="280"/>
      <point x="106" y="131"/>
      <point x="186" y="27"/>
      <point x="319" y="-30"/>
    </contour>
    <contour>
      <point x="681" y="-449" type="qcurve" smooth="yes"/>
      <point x="727" y="-449"/>
      <point x="821" y="-427"/>
      <point x="868" y="-401" type="qcurve"/>
      <point x="844" y="-255" type="line"/>
      <point x="821" y="-271"/>
      <point x="765" y="-287"/>
      <point x="739" y="-287" type="qcurve" smooth="yes"/>
      <point x="704" y="-287"/>
      <point x="659" y="-252"/>
      <point x="659" y="-210" type="qcurve"/>
      <point x="658" y="-166"/>
      <point x="704" y="-101"/>
      <point x="783" y="-51"/>
      <point x="890" y="-14"/>
      <point x="951" y="0" type="qcurve"/>
      <point x="942" y="92" type="line"/>
      <point x="845" y="76"/>
      <point x="675" y="13"/>
      <point x="549" y="-78"/>
      <point x="477" y="-193"/>
      <point x="477" y="-260" type="qcurve" smooth="yes"/>
      <point x="477" y="-305"/>
      <point x="507" y="-376"/>
      <point x="561" y="-424"/>
      <point x="636" y="-449"/>
    </contour>
  </outline>
</glyph>
<glyph name="Schwa" format="2">
  <advance width="1604"/>
  <unicode hex="018F"/>
  <outline>
    <contour>
      <point x="744" y="-30" type="curve" smooth="yes"/>
      <point x="823" y="-30"/>
      <point x="896" y="-20"/>
      <point x="968" y="1" type="curve" smooth="yes"/>
      <point x="1112" y="42"/>
      <point x="1236" y="119"/>
      <point x="1337" y="224" type="curve" smooth="yes"/>
      <point x="1388" y="277"/>
      <point x="1430" y="335"/>
      <point x="1466" y="399" type="curve" smooth="yes"/>
      <point x="1538" y="528"/>
      <point x="1579" y="676"/>
      <point x="1579" y="837" type="curve" smooth="yes"/>
      <point x="1579" y="1021"/>
      <point x="1515" y="1166"/>
      <point x="1396" y="1270" type="curve" smooth="yes"/>
      <point x="1277" y="1374"/>
      <point x="1108" y="1430"/>
      <point x="895" y="1430" type="curve" smooth="yes"/>
      <point x="791" y="1430"/>
      <point x="696" y="1415"/>
      <point x="608" y="1388" type="curve" smooth="yes"/>
      <point x="519" y="1361"/>
      <point x="439" y="1325"/>
      <point x="367" y="1282" type="curve"/>
      <point x="443" y="1069" type="line"/>
      <point x="555" y="1149"/>
      <point x="697" y="1187"/>
      <point x="845" y="1187" type="curve" smooth="yes"/>
      <point x="997" y="1187"/>
      <point x="1111" y="1152"/>
      <point x="1191" y="1084" type="curve" smooth="yes"/>
      <point x="1271" y="1016"/>
      <point x="1310" y="922"/>
      <point x="1310" y="802" type="curve" smooth="yes"/>
      <point x="1310" y="722"/>
      <point x="1298" y="645"/>
      <point x="1273" y="572" type="curve" smooth="yes"/>
      <point x="1248" y="499"/>
      <point x="1212" y="435"/>
      <point x="1165" y="379" type="curve" smooth="yes"/>
      <point x="1118" y="323"/>
      <point x="1063" y="278"/>
      <point x="996" y="245" type="curve" smooth="yes"/>
      <point x="928" y="212"/>
      <point x="856" y="195"/>
      <point x="773" y="195" type="curve" smooth="yes"/>
      <point x="632" y="195"/>
      <point x="521" y="247"/>
      <point x="453" y="331" type="curve" smooth="yes"/>
      <point x="418" y="374"/>
      <point x="397" y="422"/>
      <point x="386" y="479" type="curve" smooth="yes"/>
      <point x="375" y="535"/>
      <point x="378" y="594"/>
      <point x="397" y="658" type="curve"/>
      <point x="272" y="564" type="line"/>
      <point x="1367" y="564" type="line"/>
      <point x="1423" y="766" type="line"/>
      <point x="153" y="766" type="line"/>
      <point x="96" y="531"/>
      <point x="123" y="335"/>
      <point x="227" y="194" type="curve" smooth="yes"/>
      <point x="331" y="53"/>
      <point x="504" y="-30"/>
    </contour>
  </outline>
</glyph>
<glyph name="uni018F" format="2">
  <advance width="1604"/>
  <unicode hex="018F"/>
  <outline>
    <contour>
      <point x="744" y="-30" type="curve" smooth="yes"/>
      <point x="1211" y="-30"/>
      <point x="1580" y="357"/>
      <point x="1580" y="837" type="curve" smooth="yes"/>
      <point x="1580" y="1201"/>
      <point x="1318" y="1430"/>
      <point x="896" y="1430" type="curve" smooth="yes"/>
      <point x="690" y="1430"/>
      <point x="510" y="1366"/>
      <point x="368" y="1282" type="curve"/>
      <point x="444" y="1069" type="line"/>
      <point x="553" y="1147"/>
      <point x="700" y="1187"/>
      <point x="845" y="1187" type="curve" smooth="yes"/>
      <point x="1148" y="1187"/>
      <point x="1310" y="1039"/>
      <point x="1310" y="802" type="curve" smooth="yes"/>
      <point x="1310" y="481"/>
      <point x="1103" y="195"/>
      <point x="773" y="195" type="curve" smooth="yes"/>
      <point x="492" y="195"/>
      <point x="325" y="403"/>
      <point x="398" y="658" type="curve"/>
      <point x="273" y="564" type="line"/>
      <point x="1368" y="564" type="line"/>
      <point x="1423" y="766" type="line"/>
      <point x="154" y="766" type="line"/>
      <point x="39" y="300"/>
      <point x="269" y="-30"/>
    </contour>
  </outline>
</glyph>
<glyph name="florin" format="2">
  <advance width="1296"/>
  <unicode hex="0192"/>
  <outline>
    <contour>
      <point x="211" y="-451" type="curve" smooth="yes"/>
      <point x="427" y="-451"/>
      <point x="568" y="-322"/>
      <point x="628" y="-53" type="curve" smooth="yes"/>
      <point x="871" y="1019" type="line" smooth="yes"/>
      <point x="888" y="1091"/>
      <point x="910" y="1139"/>
      <point x="942" y="1170" type="curve" smooth="yes"/>
      <point x="973" y="1201"/>
      <point x="1012" y="1213"/>
      <point x="1063" y="1213" type="curve" smooth="yes"/>
      <point x="1090" y="1213"/>
      <point x="1118" y="1208"/>
      <point x="1143" y="1199" type="curve" smooth="yes"/>
      <point x="1168" y="1190"/>
      <point x="1193" y="1179"/>
      <point x="1210" y="1164" type="curve"/>
      <point x="1262" y="1372" type="line"/>
      <point x="1194" y="1411"/>
      <point x="1122" y="1430"/>
      <point x="1034" y="1430" type="curve" smooth="yes"/>
      <point x="815" y="1430"/>
      <point x="678" y="1301"/>
      <point x="617" y="1032" type="curve" smooth="yes"/>
      <point x="373" y="-41" type="line"/>
      <point x="358" y="-113"/>
      <point x="335" y="-160"/>
      <point x="304" y="-191" type="curve" smooth="yes"/>
      <point x="273" y="-222"/>
      <point x="234" y="-234"/>
      <point x="182" y="-234" type="curve" smooth="yes"/>
      <point x="157" y="-234"/>
      <point x="127" y="-228"/>
      <point x="102" y="-220" type="curve"/>
      <point x="77" y="-211"/>
      <point x="54" y="-198"/>
      <point x="35" y="-185" type="curve"/>
      <point x="-17" y="-393" type="line"/>
      <point x="51" y="-432"/>
      <point x="123" y="-451"/>
    </contour>
    <contour>
      <point x="1146" y="599" type="line"/>
      <point x="1195" y="774" type="line"/>
      <point x="207" y="774" type="line"/>
      <point x="158" y="599" type="line"/>
    </contour>
  </outline>
</glyph>
<glyph name="Oogonek" format="2">
  <advance width="1689"/>
  <unicode hex="01EA"/>
  <anchor x="1043" y="1400" name="top"/>
  <outline>
    <contour>
      <point x="722" y="-450" type="curve" smooth="yes"/>
      <point x="781" y="-450"/>
      <point x="840" y="-436"/>
      <point x="896" y="-405" type="curve"/>
      <point x="874" y="-278" type="line"/>
      <point x="845" y="-300"/>
      <point x="809" y="-310"/>
      <point x="771" y="-310" type="curve" smooth="yes"/>
      <point x="724" y="-310"/>
      <point x="690" y="-290"/>
      <point x="690" y="-230" type="curve" smooth="yes"/>
      <point x="689" y="-137"/>
      <point x="786" y="-65"/>
      <point x="965" y="-15" type="curve"/>
      <point x="960" y="68" type="line"/>
      <point x="705" y="15"/>
      <point x="529" y="-118"/>
      <point x="530" y="-269" type="curve"/>
      <point x="530" y="-387"/>
      <point x="608" y="-450"/>
    </contour>
    <contour>
      <point x="809" y="-30" type="curve" smooth="yes"/>
      <point x="1262" y="-30"/>
      <point x="1647" y="353"/>
      <point x="1647" y="804" type="curve" smooth="yes"/>
      <point x="1647" y="1159"/>
      <point x="1386" y="1430"/>
      <point x="990" y="1430" type="curve" smooth="yes"/>
      <point x="536" y="1430"/>
      <point x="154" y="1049"/>
      <point x="154" y="591" type="curve" smooth="yes"/>
      <point x="154" y="234"/>
      <point x="415" y="-30"/>
    </contour>
    <contour>
      <point x="833" y="162" type="curve" smooth="yes"/>
      <point x="559" y="162"/>
      <point x="368" y="338"/>
      <point x="368" y="608" type="curve" smooth="yes"/>
      <point x="368" y="950"/>
      <point x="624" y="1238"/>
      <point x="969" y="1238" type="curve" smooth="yes"/>
      <point x="1246" y="1238"/>
      <point x="1433" y="1062"/>
      <point x="1433" y="792" type="curve" smooth="yes"/>
      <point x="1433" y="450"/>
      <point x="1177" y="162"/>
    </contour>
  </outline>
</glyph>
<glyph name="uni01EA" format="2">
  <advance width="1662"/>
  <unicode hex="01EA"/>
  <outline>
    <contour>
      <point x="713" y="-449" type="qcurve" smooth="yes"/>
      <point x="759" y="-449"/>
      <point x="853" y="-427"/>
      <point x="900" y="-401" type="qcurve"/>
      <point x="876" y="-255" type="line"/>
      <point x="853" y="-271"/>
      <point x="798" y="-287"/>
      <point x="771" y="-287" type="qcurve" smooth="yes"/>
      <point x="736" y="-287"/>
      <point x="691" y="-252"/>
      <point x="691" y="-210" type="qcurve" smooth="yes"/>
      <point x="691" y="-175"/>
      <point x="726" y="-116"/>
      <point x="792" y="-68"/>
      <point x="886" y="-30"/>
      <point x="945" y="-15" type="qcurve"/>
      <point x="951" y="77" type="line"/>
      <point x="857" y="60"/>
      <point x="695" y="-3"/>
      <point x="576" y="-90"/>
      <point x="509" y="-198"/>
      <point x="509" y="-260" type="qcurve" smooth="yes"/>
      <point x="509" y="-305"/>
      <point x="539" y="-376"/>
      <point x="593" y="-424"/>
      <point x="668" y="-449"/>
    </contour>
    <contour>
      <point x="795" y="-30" type="qcurve" smooth="yes"/>
      <point x="908" y="-30"/>
      <point x="1122" y="31"/>
      <point x="1309" y="140"/>
      <point x="1464" y="294"/>
      <point x="1575" y="479"/>
      <point x="1636" y="691"/>
      <point x="1636" y="804" type="qcurve" smooth="yes"/>
      <point x="1636" y="937"/>
      <point x="1542" y="1166"/>
      <point x="1368" y="1334"/>
      <point x="1123" y="1430"/>
      <point x="972" y="1430" type="qcurve" smooth="yes"/>
      <point x="859" y="1430"/>
      <point x="645" y="1370"/>
      <point x="459" y="1260"/>
      <point x="305" y="1107"/>
      <point x="194" y="920"/>
      <point x="133" y="706"/>
      <point x="133" y="591" type="qcurve" smooth="yes"/>
      <point x="133" y="458"/>
      <point x="228" y="230"/>
      <point x="401" y="64"/>
      <point x="645" y="-30"/>
    </contour>
    <contour>
      <point x="824" y="215" type="qcurve" smooth="yes"/>
      <point x="731" y="215"/>
      <point x="578" y="272"/>
      <point x="469" y="376"/>
      <point x="408" y="523"/>
      <point x="408" y="614" type="qcurve" smooth="yes"/>
      <point x="408" y="731"/>
      <point x="489" y="938"/>
      <point x="632" y="1094"/>
      <point x="829" y="1185"/>
      <point x="946" y="1185" type="qcurve" smooth="yes"/>
      <point x="1039" y="1185"/>
      <point x="1193" y="1129"/>
      <point x="1302" y="1025"/>
      <point x="1362" y="877"/>
      <point x="1362" y="786" type="qcurve" smooth="yes"/>
      <point x="1362" y="670"/>
      <point x="1281" y="463"/>
      <point x="1138" y="306"/>
      <point x="941" y="215"/>
    </contour>
  </outline>
</glyph>
